{"glyphs":{"0":{"ha":892,"x_min":24,"x_max":880,"o":"m 408 406 q 470 457 450 406 q 480 516 480 482 q 456 597 480 567 q 408 619 438 619 q 357 589 377 619 q 338 511 338 559 q 363 428 338 460 q 408 406 380 406 m 458 0 q 274 40 355 0 q 137 150 193 81 q 53 307 81 219 q 24 491 24 395 q 78 752 24 637 q 230 934 132 867 q 456 1001 327 1001 q 760 865 639 1001 q 880 496 880 729 q 852 312 880 401 q 770 153 824 224 q 638 41 716 83 q 458 0 559 0 z "},"1":{"ha":623,"x_min":-5,"x_max":591,"o":"m 366 -1 q 212 43 269 -1 q 161 150 161 81 q 167 216 161 168 q 188 601 187 393 q 180 650 188 637 q 143 663 172 663 q 64 679 98 663 q 13 729 31 694 q -5 823 -5 764 q 95 955 -5 909 q 370 1001 195 1001 q 510 964 462 1001 q 574 834 557 928 q 591 570 591 741 q 563 134 591 349 q 499 32 553 66 q 366 -1 448 -1 z "},"2":{"ha":879,"x_min":14,"x_max":865,"o":"m 184 0 q 59 90 95 0 q 41 185 41 134 q 130 378 41 303 q 233 441 174 414 q 331 481 283 463 q 399 508 369 494 q 465 570 465 536 q 429 597 465 597 q 315 530 368 597 q 229 483 277 483 q 121 510 180 483 q 14 666 14 559 q 59 821 14 745 q 275 983 127 935 q 456 1009 353 1009 q 690 971 600 1009 q 822 867 780 933 q 865 716 865 800 q 767 515 865 581 q 587 446 703 473 q 535 416 535 434 q 560 401 535 401 q 798 337 745 401 q 837 184 837 289 q 701 17 837 17 q 652 20 684 17 q 530 23 604 23 q 235 4 380 23 q 184 0 204 0 z "},"3":{"ha":873,"x_min":22,"x_max":872,"o":"m 465 0 q 151 94 269 0 q 22 345 22 197 q 130 498 22 451 q 236 526 193 526 q 323 479 286 526 q 437 412 376 412 q 472 439 472 412 q 403 504 472 474 q 377 539 377 515 q 398 566 377 557 q 449 593 430 579 q 469 627 469 608 q 438 650 469 650 q 338 591 384 650 q 275 551 308 551 q 171 576 229 551 q 76 710 76 616 q 115 845 76 780 q 303 987 174 944 q 462 1009 371 1009 q 665 976 587 1009 q 781 885 744 943 q 818 754 818 827 q 695 557 818 615 q 685 545 685 553 q 695 534 685 537 q 872 293 872 473 q 830 142 872 209 q 698 38 788 76 q 465 0 608 0 z "},"4":{"ha":941,"x_min":14,"x_max":909,"o":"m 684 -1 q 530 43 587 -1 q 479 150 479 81 q 484 195 479 161 q 490 265 490 251 q 465 293 490 293 q 446 291 457 293 q 347 280 393 280 q 127 365 206 280 q 14 732 14 489 q 23 866 14 797 q 86 968 32 935 q 219 1001 138 1001 q 374 957 315 1001 q 424 850 424 920 q 421 794 424 821 q 418 730 418 768 q 466 543 418 602 q 488 530 476 530 q 507 557 506 530 q 491 821 507 702 q 488 857 488 840 q 526 956 488 923 q 688 1001 576 1001 q 828 964 781 1001 q 892 834 876 928 q 909 570 909 741 q 881 134 909 349 q 819 33 871 66 q 684 -1 766 -1 z "},"5":{"ha":882,"x_min":21,"x_max":871,"o":"m 464 -1 q 281 26 359 -1 q 66 189 134 75 q 21 345 21 263 q 129 498 21 452 q 237 526 195 526 q 322 479 286 526 q 434 412 374 412 q 485 452 485 412 q 463 498 485 474 q 392 539 441 522 q 267 557 344 557 q 132 582 180 557 q 66 666 85 608 q 48 823 48 725 q 66 920 48 875 q 190 1009 101 1009 q 211 1008 200 1009 q 534 986 372 986 q 630 989 572 986 q 707 991 683 991 q 807 954 770 991 q 844 823 844 916 q 824 701 844 751 q 688 617 790 617 q 500 665 614 617 q 471 671 484 671 q 447 647 447 671 q 473 611 447 623 q 576 581 499 599 q 769 505 701 551 q 871 293 871 435 q 829 142 871 209 q 697 38 787 76 q 464 -1 607 -1 z "},"6":{"ha":851,"x_min":28,"x_max":850,"o":"m 469 0 q 223 60 321 0 q 77 230 125 120 q 28 488 28 339 q 136 854 28 716 q 467 1001 251 1001 q 684 956 590 1001 q 798 792 798 900 q 755 647 798 721 q 622 557 702 557 q 537 582 577 557 q 499 595 517 595 q 450 567 467 595 q 445 553 445 558 q 458 545 445 545 q 480 546 465 545 q 511 547 496 547 q 739 494 649 547 q 850 279 850 428 q 809 133 850 196 q 683 35 768 70 q 469 0 599 0 m 486 376 q 515 388 506 376 q 525 414 525 399 q 508 453 525 436 q 458 470 492 470 q 427 427 428 470 q 486 376 427 376 z "},"7":{"ha":789,"x_min":1,"x_max":794,"o":"m 412 0 q 195 186 195 0 q 334 543 195 399 q 363 585 363 574 q 334 603 363 603 q 267 591 310 603 q 184 580 226 580 q 1 801 1 580 q 41 941 1 901 q 146 982 80 982 q 180 980 158 982 q 294 977 232 977 q 577 994 442 977 q 650 1002 637 1002 q 759 952 723 1002 q 794 823 794 902 q 713 629 794 726 q 635 495 660 568 q 605 337 611 422 q 599 154 599 253 q 574 68 599 102 q 412 0 526 0 z "},"8":{"ha":886,"x_min":24,"x_max":886,"o":"m 454 0 q 216 38 311 0 q 72 142 120 76 q 24 293 24 209 q 201 534 24 473 q 211 543 211 537 q 201 557 211 553 q 79 754 79 614 q 121 885 79 827 q 247 976 163 943 q 454 1009 330 1009 q 662 976 578 1009 q 788 885 746 943 q 831 754 831 827 q 708 557 831 614 q 699 546 699 553 q 708 534 699 537 q 886 293 886 473 q 838 142 886 209 q 694 38 789 76 q 454 0 598 0 m 455 341 q 504 360 487 341 q 520 404 520 378 q 502 451 520 434 q 455 468 484 468 q 405 449 420 468 q 389 404 389 430 q 407 357 389 373 q 455 341 425 341 m 454 599 q 489 612 477 599 q 501 643 501 625 q 488 677 501 665 q 454 689 475 689 q 419 676 430 689 q 408 645 408 663 q 454 599 408 599 z "},"9":{"ha":849,"x_min":12,"x_max":833,"o":"m 394 0 q 178 44 270 0 q 62 207 62 99 q 106 354 62 279 q 174 427 139 410 q 241 444 210 444 q 323 420 284 444 q 362 406 346 406 q 412 435 393 406 q 416 448 416 443 q 401 456 416 456 q 380 455 395 456 q 351 454 370 454 q 122 508 212 454 q 12 721 12 574 q 53 867 12 804 q 178 966 94 930 q 393 1001 262 1001 q 637 941 540 1001 q 784 771 735 881 q 833 513 833 661 q 726 147 833 285 q 394 0 610 0 m 404 531 q 434 574 433 531 q 375 625 434 625 q 346 613 355 625 q 336 586 336 602 q 353 548 336 565 q 404 531 370 531 z "}," ":{"ha":345,"x_min":0,"x_max":0,"o":""}," ":{"ha":345,"x_min":0,"x_max":0,"o":""},"!":{"ha":485,"x_min":34,"x_max":451,"o":"m 239 340 q 112 375 157 340 q 51 473 68 410 q 34 626 34 537 q 41 780 34 706 q 61 889 49 854 q 129 976 83 951 q 252 1001 174 1001 q 451 857 451 1001 q 448 821 451 840 q 433 595 434 713 q 418 464 433 521 q 361 374 402 407 q 239 340 319 340 m 238 0 q 111 35 151 0 q 71 140 71 70 q 87 207 71 177 q 223 272 123 272 q 357 235 315 272 q 399 121 399 198 q 356 32 399 64 q 238 0 314 0 z "},"\"":{"ha":738,"x_min":34,"x_max":704,"o":"m 197 513 q 103 539 138 513 q 51 610 67 565 q 34 713 34 656 q 40 831 34 774 q 55 915 45 888 q 107 982 72 963 q 201 1001 142 1001 q 355 891 355 1001 q 353 863 355 878 q 340 689 341 780 q 325 601 340 640 q 278 537 309 561 q 197 513 246 513 m 546 513 q 452 539 488 513 q 400 610 416 565 q 383 713 383 656 q 389 831 383 774 q 404 915 395 888 q 456 982 421 963 q 550 1001 491 1001 q 704 891 704 1001 q 702 863 704 878 q 690 689 690 780 q 674 601 689 640 q 627 537 659 561 q 546 513 595 513 z "},"#":{"ha":1097,"x_min":34,"x_max":1063,"o":"m 788 -1 q 601 73 648 -1 q 568 229 568 124 l 568 256 q 524 287 568 287 q 477 254 479 287 q 473 140 473 197 q 325 -1 473 -1 q 140 69 189 -1 q 104 229 104 121 l 104 244 q 100 260 104 254 q 84 270 96 266 q 34 363 34 288 q 50 424 34 401 q 105 457 65 447 q 135 538 135 465 q 119 554 135 549 q 70 646 70 571 q 86 708 70 686 q 144 741 102 730 q 168 761 164 746 q 193 890 179 826 q 357 1001 217 1001 q 524 947 464 1001 q 564 857 564 913 q 560 826 564 842 q 549 769 549 774 q 581 746 549 746 q 631 773 626 746 q 656 890 643 832 q 821 1001 680 1001 q 987 947 927 1001 q 1027 859 1027 913 q 1023 826 1027 843 q 1004 725 1004 730 q 1021 699 1004 708 q 1063 626 1063 675 q 1062 608 1063 620 q 987 519 1053 522 q 960 443 960 517 q 977 419 960 427 q 1027 343 1027 397 q 1026 325 1027 334 q 964 237 1017 248 q 937 200 937 231 l 937 140 q 788 -1 937 -1 m 544 471 q 588 481 576 471 q 601 511 601 491 q 548 559 601 559 q 497 508 497 559 q 544 471 497 471 z "},"$":{"ha":919,"x_min":34,"x_max":885,"o":"m 465 -126 q 326 -93 379 -126 q 264 9 273 -60 q 235 45 260 34 q 88 202 88 106 q 130 318 88 267 q 274 408 203 408 q 328 391 302 408 q 377 374 355 374 q 404 396 404 374 q 375 430 404 419 q 303 451 346 441 q 214 476 260 460 q 127 519 168 491 q 60 594 86 547 q 34 716 34 641 q 77 868 34 802 q 213 972 121 935 q 273 1027 260 991 q 333 1103 292 1078 q 495 1139 391 1139 q 658 1006 651 1139 q 693 954 660 970 q 823 847 777 910 q 885 664 885 761 q 777 510 885 559 q 670 483 718 483 q 584 530 620 483 q 470 597 532 597 q 435 570 435 597 q 466 530 435 547 q 543 495 496 513 q 708 408 648 455 q 793 231 793 340 q 690 47 793 104 q 671 30 676 39 q 664 5 666 21 q 600 -93 654 -60 q 465 -126 545 -126 z "},"%":{"ha":905,"x_min":34,"x_max":871,"o":"m 203 611 q 74 675 122 611 q 34 802 34 728 q 81 944 34 888 q 203 1001 127 1001 q 320 948 274 1001 q 368 804 367 895 q 349 710 368 754 q 293 639 330 667 q 203 611 256 611 m 184 781 q 204 812 204 781 q 184 841 204 841 q 164 810 164 841 q 184 781 164 781 m 309 0 q 260 9 288 0 q 197 94 197 31 q 253 297 197 155 q 305 435 279 366 q 524 951 466 863 q 603 1002 557 1002 q 648 990 624 1002 q 709 915 709 961 q 694 850 709 888 q 542 465 619 656 q 391 79 465 273 q 353 15 372 30 q 309 0 333 0 m 707 0 q 616 27 654 0 q 558 98 578 54 q 538 191 538 142 q 585 333 538 277 q 707 390 631 390 q 824 337 778 390 q 871 193 871 284 q 852 99 871 143 q 797 28 833 56 q 707 0 760 0 m 688 170 q 709 201 709 170 q 688 230 709 230 q 668 199 668 230 q 688 170 668 170 z "},"&":{"ha":919,"x_min":34,"x_max":885,"o":"m 465 -126 q 334 -97 386 -126 q 268 -9 282 -68 q 227 33 260 21 q 80 137 127 68 q 34 293 34 205 q 212 534 34 473 q 222 545 221 538 q 211 557 222 552 q 89 754 89 614 q 214 962 89 896 q 251 988 237 975 q 273 1025 266 1002 q 333 1103 292 1077 q 496 1139 391 1139 q 610 1109 572 1139 q 660 992 660 1070 q 665 967 660 976 q 682 951 669 958 q 781 861 746 913 q 830 709 830 788 q 736 574 830 616 q 644 551 685 551 q 568 591 599 551 q 468 650 522 650 q 437 627 437 650 q 457 593 437 608 q 509 566 477 579 q 530 539 530 557 q 503 503 530 515 q 435 439 435 473 q 470 412 435 412 q 584 480 531 412 q 670 526 621 526 q 777 498 718 526 q 885 345 885 446 q 823 161 885 248 q 691 54 776 98 q 671 37 676 46 q 665 9 667 28 q 603 -92 659 -57 q 465 -126 547 -126 z "},"'":{"ha":389,"x_min":34,"x_max":355,"o":"m 197 513 q 103 539 138 513 q 51 610 67 565 q 34 713 34 656 q 40 831 34 774 q 55 915 45 888 q 107 982 72 963 q 201 1001 142 1001 q 355 891 355 1001 q 353 863 355 878 q 340 689 341 780 q 325 601 340 640 q 278 537 309 561 q 197 513 246 513 z "},"(":{"ha":616,"x_min":34,"x_max":583,"o":"m 456 -217 q 311 -149 391 -217 q 102 145 170 -27 q 34 502 34 317 q 111 880 34 704 q 332 1166 185 1052 q 455 1218 399 1218 q 543 1182 503 1218 q 583 1102 583 1146 q 548 1018 583 1062 q 468 805 491 946 q 444 513 444 664 q 475 180 444 333 q 549 -17 500 50 q 583 -104 583 -64 q 543 -182 583 -147 q 456 -217 503 -217 z "},")":{"ha":616,"x_min":34,"x_max":583,"o":"m 161 -217 q 74 -181 114 -217 q 34 -101 34 -145 q 68 -18 34 -62 q 149 196 125 55 q 172 488 172 336 q 142 821 172 667 q 68 1017 116 951 q 35 1105 35 1065 q 74 1183 35 1147 q 161 1218 114 1218 q 306 1149 226 1218 q 514 856 446 1028 q 583 499 583 683 q 506 121 583 297 q 285 -165 431 -51 q 161 -217 218 -217 z "},"*":{"ha":453,"x_min":34,"x_max":419,"o":"m 222 583 q 178 593 193 583 q 156 659 156 609 q 149 671 156 671 q 143 669 146 671 q 92 652 115 652 q 46 686 66 652 q 34 722 34 705 q 73 781 34 750 q 84 797 84 789 q 75 808 84 803 q 34 860 34 831 q 46 898 34 876 q 96 932 65 932 q 146 919 117 932 q 153 918 151 918 q 159 928 159 918 q 171 981 159 962 q 223 1001 183 1001 q 270 985 254 1001 q 292 928 286 969 q 301 918 293 918 q 309 920 304 918 q 358 932 338 932 q 407 898 387 932 q 419 859 419 876 q 413 837 419 851 q 378 807 406 823 q 370 798 370 803 q 380 781 370 789 q 419 722 419 750 q 407 686 419 705 q 362 652 385 652 q 313 668 340 652 q 302 672 307 672 q 288 653 291 672 q 265 598 281 612 q 222 583 250 583 z "},"+":{"ha":701,"x_min":34,"x_max":667,"o":"m 355 188 q 281 216 304 188 q 247 370 253 250 q 236 395 246 389 q 206 404 227 402 q 140 412 170 408 q 55 447 79 422 q 34 509 34 469 q 89 605 34 591 q 148 611 114 611 l 211 611 q 248 640 248 611 q 289 800 248 768 q 354 821 315 821 q 451 766 437 821 q 457 707 457 741 l 457 634 q 491 607 457 607 q 556 606 524 606 q 616 600 591 606 q 667 509 667 584 q 639 435 667 458 q 480 400 604 407 q 453 374 453 399 l 453 300 q 446 240 453 264 q 355 188 429 188 z "},",":{"ha":393,"x_min":34,"x_max":359,"o":"m 142 -193 q 65 -173 97 -193 q 34 -119 34 -153 q 54 -52 34 -87 q 110 -14 77 -14 q 146 -23 130 -14 q 182 -35 165 -35 q 211 -25 198 -35 q 220 -11 220 -18 q 201 0 220 0 q 74 35 113 0 q 34 140 34 70 q 50 207 34 177 q 186 272 85 272 q 282 246 244 272 q 340 175 321 220 q 359 76 359 131 q 304 -106 359 -28 q 142 -193 243 -193 z "},"-":{"ha":526,"x_min":34,"x_max":492,"o":"m 280 400 q 58 441 98 400 q 34 507 34 465 q 64 589 34 570 q 142 608 94 608 l 206 609 q 386 604 258 609 q 465 582 438 602 q 492 509 492 562 q 462 429 492 452 q 355 402 431 406 q 280 400 318 400 z "},"­":{"ha":526,"x_min":34,"x_max":492,"o":"m 280 400 q 58 441 98 400 q 34 507 34 465 q 64 589 34 570 q 142 608 94 608 l 206 609 q 386 604 258 609 q 465 582 438 602 q 492 509 492 562 q 462 429 492 452 q 355 402 431 406 q 280 400 318 400 z "},".":{"ha":395,"x_min":34,"x_max":361,"o":"m 201 0 q 74 35 113 0 q 34 140 34 70 q 50 207 34 177 q 186 272 85 272 q 320 235 278 272 q 361 121 361 198 q 319 32 361 64 q 201 0 277 0 z "},"/":{"ha":606,"x_min":34,"x_max":572,"o":"m 262 0 q 176 11 224 0 q 37 146 54 39 q 34 195 34 168 q 83 494 34 302 q 208 909 137 704 q 351 1001 240 1001 q 418 993 382 1001 q 545 924 500 974 q 572 848 572 891 q 564 799 572 825 q 442 379 494 592 q 395 130 406 226 q 336 18 387 52 q 262 0 308 0 z "},":":{"ha":395,"x_min":34,"x_max":361,"o":"m 201 0 q 74 35 113 0 q 34 140 34 70 q 50 207 34 177 q 186 272 85 272 q 320 235 278 272 q 361 121 361 198 q 319 32 361 64 q 201 0 277 0 m 210 616 q 76 653 117 616 q 34 767 34 690 q 76 856 34 823 q 195 888 119 888 q 322 853 282 888 q 361 748 361 818 q 346 682 361 711 q 210 616 310 616 z "},";":{"ha":395,"x_min":34,"x_max":361,"o":"m 142 -193 q 65 -173 97 -193 q 34 -119 34 -153 q 54 -52 34 -87 q 110 -14 77 -14 q 146 -23 130 -14 q 182 -35 165 -35 q 211 -25 198 -35 q 220 -11 220 -18 q 201 0 220 0 q 74 35 113 0 q 34 140 34 70 q 50 207 34 177 q 186 272 85 272 q 282 246 244 272 q 340 175 321 220 q 359 76 359 131 q 304 -106 359 -28 q 142 -193 243 -193 m 210 616 q 76 653 117 616 q 34 767 34 690 q 76 856 34 823 q 195 888 119 888 q 322 853 282 888 q 361 748 361 818 q 346 682 361 711 q 210 616 310 616 z "},"<":{"ha":698,"x_min":34,"x_max":664,"o":"m 584 233 q 332 294 522 233 q 136 370 219 330 q 34 505 34 420 q 58 577 34 542 q 136 639 83 613 q 332 715 219 679 q 584 777 522 777 q 664 693 664 777 q 634 612 664 640 q 553 568 604 584 q 372 505 372 512 q 553 441 372 496 q 634 397 604 425 q 664 316 664 369 q 639 249 664 265 q 584 233 614 233 z "},"=":{"ha":702,"x_min":34,"x_max":668,"o":"m 367 251 q 55 300 102 251 q 34 361 34 322 q 89 458 34 444 q 148 465 114 465 q 361 462 254 465 q 557 459 464 459 q 645 436 621 459 q 668 362 668 413 q 640 288 668 312 q 589 266 623 274 q 367 251 526 251 m 148 545 q 89 551 114 545 q 34 648 34 565 q 55 709 34 687 q 367 758 102 758 q 536 751 460 758 q 640 721 611 745 q 668 647 668 697 q 644 573 668 595 q 557 550 620 550 q 361 547 464 550 q 148 545 254 545 z "},">":{"ha":698,"x_min":34,"x_max":664,"o":"m 114 233 q 34 316 34 233 q 64 397 34 369 q 145 441 94 425 q 326 504 326 497 q 145 568 326 513 q 64 612 94 584 q 34 693 34 640 q 59 760 34 744 q 114 777 83 777 q 367 715 176 777 q 562 639 479 679 q 664 505 664 589 q 640 432 664 467 q 562 370 615 396 q 367 294 479 330 q 114 233 176 233 z "},"?":{"ha":918,"x_min":34,"x_max":884,"o":"m 534 340 q 389 421 389 340 q 407 474 389 453 q 444 513 424 496 q 473 541 460 527 q 485 572 485 555 q 447 597 485 597 q 335 530 387 597 q 248 483 298 483 q 142 509 200 483 q 34 664 34 558 q 163 915 34 812 q 476 1009 281 1009 q 708 974 618 1009 q 841 880 798 939 q 884 753 884 822 q 870 667 884 701 q 834 611 856 633 q 789 570 812 589 q 740 525 762 549 q 713 459 718 500 q 671 370 705 400 q 534 340 636 340 m 517 0 q 390 35 429 0 q 351 139 351 70 q 367 207 351 177 q 503 272 402 272 q 636 235 595 272 q 677 121 677 198 q 635 32 677 64 q 517 0 593 0 z "},"@":{"ha":1247,"x_min":14,"x_max":1208,"o":"m 776 385 q 816 432 816 385 q 779 480 816 480 q 737 464 751 480 q 724 429 724 448 q 736 399 724 412 q 776 385 748 385 m 654 -236 q 337 -170 478 -236 q 55 140 133 -76 q 14 397 14 252 q 92 712 14 576 q 312 925 169 848 q 650 1001 454 1001 q 1097 839 965 1001 q 1208 431 1208 699 q 1192 165 1208 259 q 1127 36 1175 72 q 987 -1 1080 -1 q 835 37 880 -1 q 804 51 817 51 q 787 47 797 51 q 627 16 713 16 q 450 55 523 16 q 338 167 376 95 q 299 337 299 239 q 420 612 299 515 q 719 722 527 699 q 757 738 744 726 q 770 766 770 749 q 748 799 770 785 q 673 814 726 814 q 499 788 583 814 q 341 703 410 760 q 203 374 203 585 q 363 9 203 119 q 530 -58 446 -46 q 663 -68 609 -68 q 796 -58 726 -68 q 812 -57 804 -57 q 851 -71 836 -57 q 871 -140 871 -88 q 853 -201 871 -182 q 654 -236 821 -236 z "},"A":{"ha":985,"x_min":-7,"x_max":945,"o":"m 475 477 q 536 524 536 477 q 519 574 536 553 q 476 595 501 595 q 437 576 454 595 q 421 531 421 557 q 475 477 421 477 m 724 -1 q 573 40 627 -1 q 519 150 519 81 l 519 177 q 475 211 519 211 q 435 174 435 211 q 436 159 435 168 q 438 130 438 144 q 374 20 438 51 q 260 -1 334 -1 q 135 33 177 -1 q 77 153 92 66 q 42 203 73 180 q -7 337 -7 241 q 33 452 -7 416 q 53 477 47 465 q 60 510 58 489 q 171 857 74 731 q 509 1001 282 1001 q 856 841 749 1001 q 945 481 945 707 q 920 134 945 324 q 858 33 911 66 q 724 -1 806 -1 z "},"B":{"ha":977,"x_min":35,"x_max":963,"o":"m 467 518 q 515 534 498 518 q 532 572 532 550 q 521 594 532 585 q 492 603 511 603 q 450 592 464 603 q 433 558 433 579 q 443 531 433 543 q 467 518 452 518 m 264 -1 q 126 33 179 -1 q 64 134 73 66 q 35 570 35 349 q 52 834 35 741 q 95 943 65 905 q 256 1001 141 1001 q 399 970 354 1001 q 439 954 424 954 q 457 958 448 954 q 597 985 524 985 q 767 951 699 985 q 868 859 835 918 q 902 722 902 800 q 851 555 902 618 q 838 527 838 538 q 855 505 838 515 q 963 290 963 440 q 920 123 963 186 q 799 30 877 59 q 616 0 721 0 q 467 28 536 0 q 427 37 444 37 q 386 25 408 37 q 264 -1 335 0 m 479 361 q 506 371 496 361 q 515 395 515 381 q 505 419 515 408 q 471 431 494 431 q 446 420 454 431 q 437 396 437 410 q 447 372 437 382 q 479 361 457 361 z "},"C":{"ha":879,"x_min":14,"x_max":865,"o":"m 419 0 q 106 140 208 0 q 14 488 14 265 q 122 854 14 716 q 453 1001 237 1001 q 620 977 548 1001 q 821 820 758 928 q 865 664 865 744 q 757 509 865 558 q 650 483 699 483 q 555 543 591 483 q 525 581 543 564 q 486 595 509 595 q 441 573 458 595 q 414 484 414 538 q 432 413 414 441 q 486 382 452 382 q 518 391 503 382 q 572 408 543 408 q 715 317 644 408 q 758 202 758 262 q 709 104 758 149 q 578 28 656 56 q 419 0 499 0 z "},"D":{"ha":996,"x_min":35,"x_max":964,"o":"m 492 406 q 536 426 519 406 q 558 469 553 446 q 564 508 564 492 q 539 583 564 554 q 492 603 522 603 q 449 581 459 603 q 439 516 439 559 q 452 425 439 444 q 492 406 464 406 m 264 -1 q 127 32 179 -1 q 64 134 73 66 q 35 570 35 349 q 52 834 35 741 q 117 964 69 928 q 257 1001 165 1001 q 402 968 357 1001 q 429 960 415 960 q 445 963 436 960 q 562 985 500 985 q 789 927 700 985 q 921 762 878 870 q 964 501 964 654 q 750 37 964 139 q 568 0 675 0 q 449 24 505 0 q 415 32 430 32 q 382 23 401 32 q 264 -1 333 -1 z "},"E":{"ha":793,"x_min":35,"x_max":780,"o":"m 264 -1 q 127 32 179 -1 q 64 134 73 66 q 35 570 35 349 q 52 834 35 741 q 117 964 69 928 q 256 1001 165 1001 q 536 986 422 1001 q 710 931 650 970 q 769 817 769 891 q 747 714 769 751 q 690 667 724 677 q 623 656 656 656 q 562 663 597 656 q 491 671 517 671 q 434 635 434 671 q 452 607 434 612 q 490 601 469 601 q 547 607 511 601 q 592 612 576 612 q 659 593 633 612 q 692 500 692 568 q 667 423 692 447 q 604 393 641 399 q 529 387 566 387 q 485 384 505 386 q 453 375 465 382 q 441 353 441 368 q 459 327 441 332 q 496 323 477 323 q 571 331 524 323 q 635 337 608 337 q 780 177 780 337 q 735 65 780 104 q 578 13 690 27 q 264 -1 467 -1 z "},"F":{"ha":768,"x_min":35,"x_max":769,"o":"m 264 -1 q 127 32 179 -1 q 64 134 73 66 q 35 570 35 349 q 52 834 35 741 q 117 964 69 928 q 256 1001 165 1001 q 536 986 422 1001 q 710 931 650 970 q 769 817 769 891 q 747 714 769 751 q 690 667 724 677 q 623 656 656 656 q 589 659 606 656 q 522 663 551 663 q 475 659 494 663 q 439 610 439 649 q 460 574 439 582 q 508 567 482 567 q 547 570 526 567 q 576 572 562 572 q 654 549 623 572 q 693 437 693 519 q 649 339 693 370 q 486 302 604 308 q 453 275 453 301 q 461 197 453 262 q 465 150 465 161 q 415 43 465 81 q 264 -1 358 0 z "},"G":{"ha":880,"x_min":14,"x_max":865,"o":"m 453 -1 q 107 144 214 -1 q 14 488 14 269 q 122 854 14 716 q 453 1001 237 1001 q 742 911 631 1001 q 860 717 839 832 q 865 664 865 688 q 757 510 865 559 q 650 483 698 483 q 555 543 591 483 q 525 581 543 564 q 486 595 509 595 q 432 550 450 595 q 414 441 414 506 q 437 339 414 379 q 497 281 459 299 q 581 262 534 262 q 603 286 603 262 q 568 324 603 324 q 560 323 565 324 q 549 323 555 323 q 501 376 501 323 q 530 425 501 414 q 646 436 559 436 q 755 419 714 436 q 816 361 797 403 q 835 241 835 319 q 740 56 835 112 q 453 -1 644 -1 z "},"H":{"ha":994,"x_min":-7,"x_max":945,"o":"m 720 -1 q 566 43 624 -1 q 515 151 515 81 q 517 182 515 170 q 522 216 519 195 q 532 317 532 299 q 520 346 532 334 q 481 359 509 359 q 434 321 434 359 q 446 167 434 258 q 448 134 448 149 q 436 72 448 103 q 381 20 424 41 q 262 -1 339 -1 q 109 69 153 -1 q 59 310 65 139 q 52 341 58 330 q 30 369 45 353 q -7 489 -7 405 q 40 610 -7 574 q 58 631 53 621 q 64 660 63 642 q 84 876 71 776 q 142 971 92 939 q 266 1001 190 1001 q 410 960 356 1001 q 456 861 456 925 q 455 830 456 842 q 441 697 441 740 q 491 652 441 652 q 539 695 539 652 q 527 821 539 732 q 524 856 524 839 q 537 923 524 889 q 596 979 551 956 q 724 1001 642 1001 q 864 964 817 1001 q 928 834 911 928 q 945 570 945 741 q 917 134 945 349 q 854 33 907 66 q 720 -1 802 -1 z "},"I":{"ha":507,"x_min":35,"x_max":465,"o":"m 267 -1 l 260 -1 q 127 32 179 -1 q 64 134 73 66 q 35 570 35 349 q 52 834 35 741 q 117 964 69 928 q 256 1001 165 1001 q 384 979 339 1001 q 443 923 429 956 q 456 857 456 890 q 454 821 456 840 q 438 584 438 703 q 464 176 438 364 q 465 150 465 163 q 415 43 465 81 q 267 -1 358 0 z "},"J":{"ha":541,"x_min":-33,"x_max":496,"o":"m 96 -1 q 26 9 54 -1 q -18 42 -3 18 q -33 110 -33 66 q 68 200 -33 200 q 100 208 89 200 q 117 240 112 216 q 121 312 121 264 q 81 730 121 431 q 66 849 66 837 q 117 957 66 919 q 271 1001 176 1001 q 406 968 353 1001 q 467 865 458 935 q 496 408 496 631 q 458 175 496 265 q 332 42 420 84 q 96 -1 244 -1 z "},"K":{"ha":964,"x_min":35,"x_max":962,"o":"m 733 -1 q 632 22 676 -1 q 563 138 568 54 q 540 269 558 222 q 488 332 522 315 q 467 339 475 339 q 450 313 450 339 q 460 216 450 298 q 465 150 465 170 q 415 43 465 81 q 260 -1 357 -1 q 127 32 179 -1 q 64 134 73 66 q 35 570 35 349 q 52 834 35 741 q 117 964 69 928 q 256 1001 165 1001 q 385 979 339 1001 q 443 923 430 956 q 456 857 456 889 q 454 821 456 840 q 439 595 439 713 q 448 575 439 575 q 463 586 454 575 q 532 877 515 660 q 684 1001 541 1001 q 743 995 712 1001 q 863 938 827 978 q 899 832 899 897 q 867 683 899 750 q 779 557 835 616 q 765 528 765 542 q 784 497 765 509 q 917 363 871 441 q 962 194 962 285 q 944 109 962 149 q 888 42 927 69 q 785 3 849 14 q 733 -1 758 -1 z "},"L":{"ha":639,"x_min":35,"x_max":656,"o":"m 302 -1 q 166 22 218 -1 q 89 86 115 44 q 56 188 63 128 q 35 570 35 376 q 52 834 35 741 q 117 964 69 928 q 256 1001 164 1001 q 385 979 339 1001 q 443 923 430 956 q 456 856 456 889 q 454 802 456 839 q 438 338 438 585 q 479 279 438 279 q 509 280 494 279 q 538 281 525 281 q 626 253 596 281 q 656 153 656 224 q 571 37 656 74 q 302 -1 485 -1 z "},"M":{"ha":1178,"x_min":34,"x_max":1128,"o":"m 923 -1 q 824 20 867 -1 q 770 72 782 41 q 758 134 758 103 q 760 167 758 149 q 791 450 791 399 q 785 467 791 467 q 771 451 776 467 q 708 260 765 431 q 581 90 651 90 q 454 260 511 90 q 391 451 397 431 q 378 467 387 467 q 371 450 371 467 q 402 167 371 399 q 405 134 405 149 q 393 72 405 103 q 338 20 380 41 q 239 -1 296 -1 q 110 41 154 -1 q 50 179 65 82 q 34 444 34 276 q 59 876 34 670 q 235 1001 75 1001 q 373 956 326 1001 q 452 829 420 911 q 551 556 497 708 q 581 509 567 509 q 612 555 595 509 q 711 829 662 699 q 789 956 743 911 q 928 1001 836 1001 q 1103 876 1088 1001 q 1128 444 1128 670 q 1113 179 1128 276 q 1053 41 1097 82 q 923 -1 1008 -1 z "},"N":{"ha":999,"x_min":34,"x_max":953,"o":"m 728 -1 q 583 36 630 -1 q 510 145 536 72 q 409 427 417 398 q 395 442 404 442 q 389 425 389 442 q 409 167 390 313 q 412 134 412 149 q 399 72 412 103 q 345 20 387 41 q 239 -1 302 -1 q 110 41 154 -1 q 50 179 65 82 q 34 444 34 276 q 59 876 34 670 q 235 1001 75 1001 q 373 956 326 1001 q 452 828 420 911 q 562 607 484 744 q 571 600 566 600 q 575 611 575 600 q 562 821 575 743 q 559 857 559 840 q 572 923 559 889 q 631 979 585 956 q 732 1001 676 1001 q 871 964 823 1001 q 936 834 919 928 q 953 570 953 741 q 924 134 953 349 q 862 33 915 66 q 728 -1 810 -1 z "},"O":{"ha":922,"x_min":15,"x_max":893,"o":"m 422 406 q 477 444 456 406 q 493 517 493 473 q 469 597 493 566 q 422 619 452 619 q 371 589 391 619 q 351 513 351 559 q 376 428 351 460 q 422 406 393 406 m 454 0 q 125 127 235 0 q 15 500 15 254 q 63 767 15 654 q 208 940 111 879 q 454 1001 306 1001 q 699 940 602 1001 q 845 767 797 879 q 893 500 893 654 q 845 238 893 350 q 700 63 798 127 q 454 0 603 0 z "},"P":{"ha":965,"x_min":35,"x_max":945,"o":"m 465 520 q 506 536 493 520 q 519 571 519 552 q 508 602 519 588 q 468 615 496 615 q 428 568 428 615 q 465 520 428 520 m 264 -1 q 126 33 178 -1 q 63 134 73 66 q 35 570 35 349 q 52 834 35 741 q 116 964 68 928 q 256 1001 164 1001 q 409 964 363 1001 q 439 949 427 949 q 457 954 447 949 q 616 985 531 985 q 794 945 721 985 q 906 833 867 905 q 945 663 945 760 q 808 376 945 474 q 475 273 689 290 q 455 252 455 272 q 461 190 455 244 q 465 150 465 161 q 415 43 465 81 q 264 -1 357 0 z "},"Q":{"ha":923,"x_min":14,"x_max":892,"o":"m 421 406 q 474 441 453 406 q 492 517 492 471 q 468 597 492 566 q 421 619 451 619 q 371 589 391 619 q 351 513 351 559 q 376 428 351 460 q 421 406 393 406 m 676 -304 q 471 -244 553 -304 q 369 -83 388 -183 q 340 -11 359 -35 q 285 25 321 13 q 14 500 14 114 q 62 767 14 654 q 208 940 111 879 q 454 1001 306 1001 q 699 940 601 1001 q 844 767 796 879 q 892 500 892 654 q 824 196 892 319 q 614 23 755 72 q 594 5 594 16 q 631 -14 594 -14 q 736 3 671 -14 q 774 7 756 7 q 856 -27 819 7 q 892 -126 892 -62 q 872 -213 892 -172 q 806 -279 852 -254 q 676 -304 759 -304 z "},"R":{"ha":985,"x_min":35,"x_max":962,"o":"m 473 520 q 512 535 499 520 q 524 568 524 550 q 512 601 524 586 q 475 615 499 615 q 438 563 438 615 q 448 530 438 541 q 473 520 458 520 m 733 -1 q 632 22 676 -1 q 563 138 568 54 q 511 315 554 273 q 479 331 494 331 q 469 329 473 331 q 451 297 451 322 q 459 216 451 279 q 465 150 465 170 q 415 43 465 81 q 260 -1 357 -1 q 126 33 178 -1 q 64 134 73 66 q 35 570 35 349 q 52 834 35 741 q 116 964 68 928 q 256 1001 164 1001 q 410 962 366 1001 q 439 949 425 949 q 460 955 448 949 q 616 985 533 985 q 859 904 772 985 q 945 680 945 824 q 841 452 945 527 q 826 430 826 441 q 838 413 826 420 q 962 172 962 338 q 916 59 962 102 q 785 3 870 17 q 733 -1 758 -1 z "},"S":{"ha":858,"x_min":-5,"x_max":846,"o":"m 426 1009 q 602 981 514 1009 q 743 905 690 953 q 791 807 791 860 q 749 692 791 747 q 605 602 677 602 q 551 618 577 602 q 503 635 525 635 q 475 613 475 635 q 505 579 475 590 q 578 557 534 568 q 753 490 690 533 q 846 293 846 427 q 803 142 846 209 q 671 38 761 76 q 437 0 581 0 q 256 26 334 0 q 39 189 108 75 q -5 343 -5 264 q 102 499 -5 450 q 209 526 161 526 q 296 479 260 526 q 410 412 349 412 q 446 439 446 412 q 414 479 446 462 q 336 514 383 496 q 172 602 230 555 q 87 778 87 669 q 127 910 87 859 q 244 985 168 961 q 426 1009 319 1009 z "},"T":{"ha":799,"x_min":1,"x_max":793,"o":"m 414 -1 l 407 -1 q 273 33 326 -1 q 210 134 220 66 q 182 549 184 332 q 177 572 182 564 q 157 583 172 580 q 41 643 75 597 q 1 801 1 694 q 40 941 1 901 q 146 982 79 982 q 176 981 157 982 q 294 977 231 977 q 577 995 425 977 q 642 1000 621 1000 q 749 950 712 1000 q 793 795 793 891 q 761 663 793 714 q 658 599 727 608 q 602 581 618 594 q 585 536 585 568 q 606 209 585 386 q 612 151 612 169 q 562 43 612 81 q 414 -1 505 0 z "},"U":{"ha":954,"x_min":26,"x_max":915,"o":"m 463 -1 q 115 160 222 -1 q 26 519 26 293 q 51 865 26 671 q 113 968 60 935 q 247 1001 165 1001 q 397 960 342 1001 q 452 850 452 920 q 447 789 452 833 q 429 570 429 643 q 448 443 429 486 q 494 406 465 406 q 557 595 557 406 q 535 840 557 682 q 533 871 533 857 q 711 1001 533 1001 q 809 985 770 1001 q 868 928 847 968 q 899 819 890 888 q 915 581 915 701 q 463 -1 915 -1 z "},"V":{"ha":922,"x_min":22,"x_max":891,"o":"m 446 -1 q 151 167 263 -1 q 60 374 93 254 q 26 565 31 484 q 22 684 22 646 q 34 865 22 773 q 96 968 43 935 q 230 1001 149 1001 q 380 960 326 1001 q 435 850 435 920 q 431 793 435 836 q 420 591 420 694 q 437 425 420 484 q 478 365 453 365 q 517 426 501 365 q 535 614 535 495 q 518 840 535 713 q 516 870 516 856 q 580 981 516 949 q 694 1001 621 1001 q 792 985 753 1001 q 852 928 830 968 q 891 671 891 854 q 879 510 891 588 q 795 248 855 363 q 646 66 735 134 q 446 -1 556 -1 z "},"W":{"ha":1170,"x_min":27,"x_max":1131,"o":"m 917 -1 q 791 32 833 -1 q 709 172 749 65 q 610 445 660 302 q 579 491 593 491 q 549 445 565 491 q 449 172 498 302 q 367 32 409 65 q 241 -1 325 -1 q 94 125 120 -1 q 35 556 53 330 q 27 736 27 659 q 33 851 27 784 q 79 960 38 918 q 205 1001 120 1001 q 306 980 262 1001 q 365 928 350 960 q 382 850 382 890 l 382 833 q 372 585 372 657 q 379 534 372 534 q 389 549 385 534 q 452 740 395 570 q 579 911 509 911 q 706 740 649 911 q 769 549 763 570 q 779 534 774 534 q 786 585 786 534 q 777 833 786 657 l 776 850 q 793 928 776 890 q 852 980 808 960 q 953 1001 897 1001 q 1079 960 1038 1001 q 1126 851 1120 918 q 1131 736 1131 784 q 1123 556 1131 659 q 1064 125 1105 330 q 917 -1 1038 -1 z "},"X":{"ha":916,"x_min":26,"x_max":882,"o":"m 681 -1 q 531 40 585 -1 q 476 151 476 81 q 479 194 476 171 q 481 237 481 216 q 475 294 481 272 q 433 336 463 336 q 388 231 388 336 q 393 160 388 199 q 395 128 395 143 q 217 -1 395 -1 q 119 16 157 -1 q 60 72 81 32 q 30 181 39 112 q 26 237 26 210 q 47 351 26 300 q 133 471 75 423 q 149 501 149 484 q 136 530 149 517 q 26 797 26 631 q 31 865 26 829 q 93 968 40 935 q 228 1001 146 1001 q 378 960 323 1001 q 433 849 433 919 q 430 808 433 830 q 427 764 427 786 q 433 706 427 728 q 475 665 446 665 q 521 770 521 665 q 515 840 521 801 q 513 872 513 857 q 691 1001 513 1001 q 789 985 751 1001 q 848 928 827 968 q 878 819 869 888 q 882 764 882 790 q 861 648 882 699 q 774 528 832 576 q 758 498 758 515 q 771 472 758 485 q 882 200 882 371 q 878 134 882 169 q 815 33 868 66 q 681 -1 763 -1 z "},"Y":{"ha":874,"x_min":4,"x_max":859,"o":"m 450 -1 q 293 42 352 -1 q 237 149 241 79 q 230 340 231 239 q 219 398 230 373 q 176 445 208 422 q 44 606 85 511 q 4 798 4 701 q 8 865 4 831 q 70 968 17 935 q 205 1001 123 1001 q 355 960 300 1001 q 410 850 410 920 q 407 805 410 830 q 404 751 404 781 q 416 663 404 699 q 452 631 427 631 q 485 662 474 631 q 497 728 496 696 l 498 766 q 492 840 498 804 q 490 871 490 857 q 668 1001 490 1001 q 766 985 728 1001 q 825 928 804 968 q 856 819 847 888 q 859 764 859 791 q 821 601 859 673 q 686 450 773 508 q 645 409 657 432 q 632 349 632 385 q 636 233 633 286 q 639 153 639 180 q 581 35 639 73 q 450 -1 528 -1 z "},"Z":{"ha":839,"x_min":18,"x_max":814,"o":"m 164 0 q 58 50 94 0 q 18 182 18 104 q 58 320 18 254 q 273 538 121 424 q 286 557 286 548 q 260 574 286 572 q 189 581 221 576 q 64 640 101 594 q 22 801 22 691 q 61 941 22 901 q 167 982 100 982 q 200 980 178 982 q 315 977 252 977 q 643 1000 463 977 q 671 1002 657 1002 q 779 952 743 1002 q 814 823 814 902 q 784 705 814 759 q 707 602 754 651 q 608 507 661 553 q 519 415 519 429 q 537 401 519 401 q 775 337 722 401 q 814 184 814 289 q 679 17 814 17 q 640 19 663 17 q 507 23 582 23 q 227 7 367 23 q 193 2 204 4 q 164 0 181 0 z "},"[":{"ha":726,"x_min":34,"x_max":692,"o":"m 290 -217 q 138 -178 193 -217 q 58 -63 82 -139 q 34 124 34 13 l 34 787 q 104 1131 34 1035 q 192 1198 139 1179 q 318 1218 245 1218 q 603 1175 515 1218 q 692 1034 692 1132 q 584 906 692 906 q 557 908 571 906 q 530 909 543 909 q 486 898 499 909 q 467 841 467 882 l 467 172 q 486 106 467 120 q 534 92 505 92 q 557 93 544 92 q 584 95 571 95 q 692 -33 692 95 q 593 -174 692 -132 q 290 -217 495 -217 z "},"\\":{"ha":606,"x_min":34,"x_max":572,"o":"m 345 0 q 271 18 298 0 q 212 130 220 52 q 165 379 201 226 q 43 799 113 592 q 34 848 34 825 q 62 924 34 891 q 189 993 106 974 q 256 1001 224 1001 q 399 909 366 1001 q 524 494 470 704 q 572 195 572 302 q 570 146 572 168 q 431 11 553 39 q 345 0 382 0 z "},"]":{"ha":726,"x_min":34,"x_max":692,"o":"m 408 -217 q 122 -174 211 -217 q 34 -33 34 -131 q 142 95 34 95 q 169 93 155 95 q 195 92 183 92 q 240 103 227 92 q 258 160 258 119 l 258 829 q 240 895 258 881 q 192 909 221 909 q 168 908 182 909 q 142 906 155 906 q 34 1034 34 906 q 132 1175 34 1133 q 436 1218 231 1218 q 588 1179 532 1218 q 668 1064 644 1140 q 692 877 692 988 l 692 214 q 622 -130 692 -34 q 533 -197 587 -178 q 408 -217 480 -217 z "},"^":{"ha":465,"x_min":34,"x_max":431,"o":"m 365 631 q 290 679 321 631 q 243 800 259 726 q 233 812 240 812 q 223 799 227 812 q 175 679 206 726 q 100 631 144 631 q 34 711 34 631 q 50 795 34 747 q 109 913 71 860 q 233 1001 169 1001 q 309 969 273 1001 q 416 795 378 907 q 431 708 431 747 q 416 653 431 675 q 365 631 400 631 z "},"_":{"ha":702,"x_min":34,"x_max":668,"o":"m 368 -281 q 55 -233 103 -281 q 34 -171 34 -210 q 89 -74 34 -88 q 148 -68 114 -68 q 361 -71 254 -68 q 557 -73 464 -73 q 645 -96 621 -73 q 668 -170 668 -119 q 640 -244 668 -220 q 589 -267 623 -258 q 368 -281 526 -281 z "},"`":{"ha":330,"x_min":34,"x_max":296,"o":"m 233 1062 q 174 1088 201 1062 q 34 1265 34 1228 q 62 1312 34 1287 q 105 1332 83 1332 q 177 1291 133 1332 q 274 1181 231 1242 q 296 1126 296 1152 q 275 1078 296 1100 q 233 1062 258 1062 z "},"a":{"ha":987,"x_min":-4,"x_max":948,"o":"m 478 477 q 540 524 540 477 q 522 574 540 553 q 479 595 505 595 q 441 576 457 595 q 425 531 425 557 q 478 477 425 477 m 727 -1 q 577 40 631 -1 q 523 150 523 81 l 523 177 q 479 211 523 211 q 438 174 438 211 q 439 159 438 168 q 441 130 441 144 q 378 20 441 51 q 264 -1 337 -1 q 138 33 180 -1 q 81 153 96 66 q 45 203 76 180 q -4 337 -4 241 q 36 452 -4 416 q 56 477 50 465 q 63 510 62 489 q 174 857 77 731 q 512 1001 286 1001 q 859 841 753 1001 q 948 481 948 707 q 923 134 948 324 q 862 33 914 66 q 727 -1 809 -1 z "},"b":{"ha":978,"x_min":39,"x_max":966,"o":"m 470 518 q 518 534 501 518 q 535 572 535 550 q 525 594 535 585 q 495 603 514 603 q 454 592 467 603 q 437 558 437 579 q 446 531 437 543 q 470 518 455 518 m 267 -1 q 130 33 182 -1 q 67 134 77 66 q 39 570 39 349 q 56 834 39 741 q 98 943 68 905 q 260 1001 144 1001 q 403 970 357 1001 q 442 954 427 954 q 460 958 451 954 q 601 985 527 985 q 770 951 703 985 q 872 859 838 918 q 905 722 905 800 q 854 555 905 618 q 841 527 841 538 q 859 505 841 515 q 966 290 966 440 q 923 123 966 186 q 802 30 880 59 q 620 0 724 0 q 470 28 540 0 q 431 37 447 37 q 389 25 412 37 q 267 -1 338 0 m 479 361 q 505 371 495 361 q 515 395 515 381 q 504 419 515 408 q 471 431 494 431 q 445 420 454 431 q 436 396 436 410 q 446 372 436 382 q 479 361 456 361 z "},"c":{"ha":881,"x_min":18,"x_max":869,"o":"m 423 0 q 110 140 212 0 q 18 488 18 265 q 126 854 18 716 q 457 1001 241 1001 q 624 977 552 1001 q 825 820 762 928 q 869 664 869 744 q 761 509 869 558 q 654 483 703 483 q 559 543 595 483 q 529 581 547 564 q 490 595 513 595 q 446 573 463 595 q 418 484 418 538 q 436 413 418 441 q 490 382 456 382 q 522 391 507 382 q 576 408 547 408 q 719 317 648 408 q 762 202 762 262 q 713 104 762 149 q 582 28 661 56 q 423 0 503 0 z "},"d":{"ha":998,"x_min":39,"x_max":967,"o":"m 495 406 q 539 426 522 406 q 562 469 557 446 q 567 508 567 492 q 543 583 567 554 q 495 603 525 603 q 453 581 463 603 q 443 516 443 559 q 455 425 443 444 q 495 406 467 406 m 267 -1 q 131 32 182 -1 q 67 134 77 66 q 39 570 39 349 q 56 834 39 741 q 120 964 73 928 q 260 1001 168 1001 q 406 968 360 1001 q 432 960 418 960 q 448 963 439 960 q 565 985 503 985 q 792 927 703 985 q 924 762 882 870 q 967 501 967 654 q 753 37 967 139 q 572 0 678 0 q 452 24 509 0 q 418 32 433 32 q 386 23 404 32 q 267 -1 336 -1 z "},"e":{"ha":794,"x_min":39,"x_max":783,"o":"m 267 -1 q 131 32 182 -1 q 67 134 77 66 q 39 570 39 349 q 56 834 39 741 q 120 964 73 928 q 260 1001 168 1001 q 539 986 425 1001 q 713 931 654 970 q 772 817 772 891 q 750 714 772 751 q 694 667 728 677 q 626 656 660 656 q 566 663 600 656 q 494 671 520 671 q 437 635 437 671 q 455 607 437 612 q 493 601 473 601 q 551 607 515 601 q 595 612 580 612 q 663 593 637 612 q 696 500 696 568 q 670 423 696 447 q 607 393 644 399 q 532 387 570 387 q 488 384 508 386 q 457 375 469 382 q 445 353 445 368 q 463 327 445 332 q 499 323 481 323 q 574 331 528 323 q 638 337 611 337 q 783 177 783 337 q 738 65 783 104 q 582 13 693 27 q 267 -1 470 -1 z "},"f":{"ha":770,"x_min":39,"x_max":772,"o":"m 267 -1 q 131 32 182 -1 q 67 134 77 66 q 39 570 39 349 q 56 834 39 741 q 120 964 73 928 q 260 1001 168 1001 q 539 986 425 1001 q 713 931 654 970 q 772 817 772 891 q 750 714 772 751 q 694 667 728 677 q 626 656 660 656 q 592 659 610 656 q 526 663 554 663 q 479 659 497 663 q 442 610 442 649 q 464 574 442 582 q 511 567 486 567 q 551 570 529 567 q 579 572 566 572 q 657 549 627 572 q 696 437 696 519 q 652 339 696 370 q 490 302 608 308 q 456 275 456 301 q 465 197 456 262 q 469 150 469 161 q 418 43 469 81 q 267 -1 361 0 z "},"g":{"ha":882,"x_min":18,"x_max":868,"o":"m 456 -1 q 111 144 218 -1 q 18 488 18 269 q 125 854 18 716 q 456 1001 241 1001 q 745 911 634 1001 q 863 717 842 832 q 868 664 868 688 q 760 510 868 559 q 653 483 701 483 q 558 543 595 483 q 528 581 546 564 q 489 595 513 595 q 436 550 454 595 q 418 441 418 506 q 440 339 418 379 q 500 281 463 299 q 584 262 538 262 q 606 286 606 262 q 572 324 606 324 q 564 323 568 324 q 553 323 559 323 q 505 376 505 323 q 534 425 505 414 q 649 436 563 436 q 759 419 718 436 q 819 361 800 403 q 838 241 838 319 q 743 56 838 112 q 456 -1 648 -1 z "},"h":{"ha":996,"x_min":-3,"x_max":949,"o":"m 724 -1 q 570 43 628 -1 q 519 151 519 81 q 522 182 519 170 q 526 216 524 195 q 536 317 536 299 q 524 346 536 334 q 485 359 513 359 q 438 321 438 359 q 450 167 438 258 q 452 134 452 149 q 440 72 452 103 q 386 20 428 41 q 267 -1 343 -1 q 113 69 157 -1 q 63 310 69 139 q 56 341 62 330 q 34 369 49 353 q -3 489 -3 405 q 44 610 -3 574 q 62 631 57 621 q 68 660 67 642 q 88 876 75 776 q 146 971 96 939 q 270 1001 194 1001 q 414 960 360 1001 q 460 861 460 925 q 459 830 460 842 q 446 697 446 740 q 495 652 446 652 q 543 695 543 652 q 531 821 543 732 q 528 856 528 839 q 542 923 528 889 q 600 979 555 956 q 728 1001 646 1001 q 868 964 821 1001 q 932 834 916 928 q 949 570 949 741 q 921 134 949 349 q 859 33 911 66 q 724 -1 806 -1 z "},"i":{"ha":509,"x_min":39,"x_max":469,"o":"m 271 -1 l 264 -1 q 131 32 182 -1 q 67 134 77 66 q 39 570 39 349 q 56 834 39 741 q 120 964 73 928 q 260 1001 168 1001 q 388 979 342 1001 q 446 923 433 956 q 460 857 460 890 q 457 821 460 840 q 441 584 441 703 q 467 176 441 364 q 469 150 469 163 q 418 43 469 81 q 271 -1 361 0 z "},"j":{"ha":543,"x_min":-29,"x_max":500,"o":"m 99 -1 q 29 9 58 -1 q -14 42 1 18 q -29 110 -29 66 q 71 200 -29 200 q 104 208 92 200 q 120 240 115 216 q 125 312 125 264 q 84 730 125 431 q 70 849 70 837 q 120 957 70 919 q 275 1001 179 1001 q 409 968 356 1001 q 471 865 462 935 q 500 408 500 631 q 461 175 500 265 q 335 42 423 84 q 99 -1 248 -1 z "},"k":{"ha":965,"x_min":39,"x_max":965,"o":"m 736 -1 q 635 22 680 -1 q 567 138 572 54 q 543 269 562 222 q 492 332 525 315 q 470 339 479 339 q 453 313 453 339 q 463 216 453 298 q 469 150 469 170 q 418 43 469 81 q 264 -1 361 -1 q 131 32 182 -1 q 67 134 77 66 q 39 570 39 349 q 56 834 39 741 q 120 964 73 928 q 260 1001 168 1001 q 388 979 342 1001 q 447 923 433 956 q 460 857 460 889 q 457 821 460 840 q 442 595 443 713 q 451 575 442 575 q 466 586 458 575 q 535 877 519 660 q 688 1001 545 1001 q 746 995 715 1001 q 867 938 831 978 q 903 832 903 897 q 870 683 903 750 q 783 557 838 616 q 768 528 768 542 q 787 497 768 509 q 920 363 875 441 q 965 194 965 285 q 948 109 965 149 q 891 42 930 69 q 789 3 852 14 q 736 -1 762 -1 z "},"l":{"ha":641,"x_min":39,"x_max":660,"o":"m 305 -1 q 170 22 221 -1 q 93 86 119 44 q 60 188 66 128 q 39 570 39 376 q 56 834 39 741 q 120 964 73 928 q 260 1001 168 1001 q 388 979 342 1001 q 447 923 433 956 q 460 856 460 889 q 457 802 460 839 q 441 338 441 585 q 482 279 441 279 q 513 280 497 279 q 541 281 528 281 q 630 253 600 281 q 660 153 660 224 q 574 37 660 74 q 305 -1 488 -1 z "},"m":{"ha":1180,"x_min":38,"x_max":1133,"o":"m 927 -1 q 828 20 871 -1 q 774 72 786 41 q 762 134 762 103 q 764 167 762 149 q 795 450 795 399 q 789 467 795 467 q 775 451 780 467 q 712 260 769 431 q 585 90 655 90 q 458 260 515 90 q 395 451 401 431 q 382 467 391 467 q 375 450 375 467 q 406 167 375 399 q 409 134 409 149 q 397 72 409 103 q 342 20 385 41 q 243 -1 300 -1 q 114 41 158 -1 q 54 179 69 82 q 38 444 38 276 q 63 876 38 670 q 239 1001 79 1001 q 377 956 330 1001 q 456 829 424 911 q 555 556 501 708 q 585 509 571 509 q 616 555 600 509 q 715 829 666 699 q 793 956 747 911 q 932 1001 840 1001 q 1107 876 1092 1001 q 1133 444 1133 670 q 1117 179 1133 276 q 1057 41 1101 82 q 927 -1 1013 -1 z "},"n":{"ha":1002,"x_min":38,"x_max":957,"o":"m 732 -1 q 587 36 634 -1 q 514 145 541 72 q 413 427 421 398 q 399 442 408 442 q 393 425 393 442 q 413 167 394 313 q 416 134 416 149 q 404 72 416 103 q 349 20 391 41 q 243 -1 307 -1 q 114 41 158 -1 q 54 179 69 82 q 38 444 38 276 q 63 876 38 670 q 239 1001 79 1001 q 377 956 330 1001 q 456 828 424 911 q 566 607 488 744 q 575 600 570 600 q 579 611 579 600 q 566 821 579 743 q 563 857 563 840 q 576 923 563 889 q 635 979 589 956 q 736 1001 680 1001 q 875 964 827 1001 q 940 834 923 928 q 957 570 957 741 q 928 134 957 349 q 866 33 919 66 q 732 -1 814 -1 z "},"o":{"ha":924,"x_min":18,"x_max":897,"o":"m 425 406 q 480 444 459 406 q 496 517 496 473 q 472 597 496 566 q 425 619 455 619 q 374 589 394 619 q 355 513 355 559 q 380 428 355 460 q 425 406 397 406 m 457 0 q 129 127 239 0 q 18 500 18 254 q 66 767 18 654 q 212 940 114 879 q 457 1001 309 1001 q 703 940 605 1001 q 848 767 800 879 q 897 500 897 654 q 849 238 897 350 q 704 63 801 127 q 457 0 606 0 z "},"p":{"ha":966,"x_min":39,"x_max":948,"o":"m 468 520 q 510 536 496 520 q 523 571 523 552 q 511 602 523 588 q 471 615 499 615 q 431 568 431 615 q 468 520 431 520 m 267 -1 q 129 33 182 -1 q 66 134 77 66 q 39 570 39 349 q 55 834 39 741 q 120 964 72 928 q 260 1001 168 1001 q 412 964 367 1001 q 443 949 431 949 q 460 954 450 949 q 620 985 534 985 q 798 945 724 985 q 909 833 871 905 q 948 663 948 760 q 812 376 948 474 q 479 273 692 290 q 458 252 458 272 q 465 190 458 244 q 469 150 469 161 q 418 43 469 81 q 267 -1 361 0 z "},"q":{"ha":926,"x_min":18,"x_max":897,"o":"m 425 406 q 478 441 457 406 q 496 517 496 471 q 472 597 496 566 q 425 619 455 619 q 375 589 395 619 q 355 513 355 559 q 380 428 355 460 q 425 406 397 406 m 680 -304 q 475 -244 557 -304 q 373 -83 392 -183 q 344 -11 363 -35 q 289 25 325 13 q 18 500 18 114 q 66 767 18 654 q 212 940 115 879 q 458 1001 310 1001 q 703 940 605 1001 q 848 767 800 879 q 897 500 897 654 q 828 196 897 319 q 618 23 759 72 q 598 5 598 16 q 635 -14 598 -14 q 740 3 675 -14 q 778 7 760 7 q 860 -27 823 7 q 896 -126 896 -62 q 876 -213 896 -172 q 810 -279 857 -254 q 680 -304 763 -304 z "},"r":{"ha":987,"x_min":39,"x_max":966,"o":"m 477 520 q 516 535 503 520 q 528 568 528 550 q 516 601 528 586 q 479 615 503 615 q 442 563 442 615 q 452 530 442 541 q 477 520 463 520 m 737 -1 q 636 22 680 -1 q 567 138 572 54 q 515 315 558 273 q 483 331 498 331 q 473 329 477 331 q 455 297 455 322 q 463 216 455 279 q 469 150 469 170 q 419 43 469 81 q 264 -1 361 -1 q 130 33 182 -1 q 68 134 77 66 q 39 570 39 349 q 56 834 39 741 q 120 964 73 928 q 260 1001 168 1001 q 414 962 370 1001 q 444 949 429 949 q 465 955 452 949 q 621 985 537 985 q 863 904 777 985 q 949 680 949 824 q 845 452 949 527 q 830 430 830 441 q 842 413 830 420 q 966 172 966 338 q 920 59 966 102 q 789 3 874 17 q 737 -1 762 -1 z "},"s":{"ha":861,"x_min":-1,"x_max":850,"o":"m 430 1009 q 606 981 518 1009 q 747 905 694 953 q 795 807 795 860 q 753 692 795 747 q 609 602 682 602 q 555 618 581 602 q 507 635 529 635 q 479 613 479 635 q 509 579 479 590 q 583 557 538 568 q 757 490 694 533 q 850 293 850 427 q 807 142 850 209 q 675 38 765 76 q 441 0 585 0 q 260 26 338 0 q 43 189 112 75 q -1 343 -1 264 q 106 499 -1 450 q 213 526 165 526 q 300 479 264 526 q 414 412 353 412 q 450 439 450 412 q 418 479 450 462 q 340 514 387 496 q 176 602 234 555 q 91 778 91 669 q 132 910 91 859 q 248 985 172 961 q 430 1009 323 1009 z "},"t":{"ha":800,"x_min":4,"x_max":797,"o":"m 417 -1 l 410 -1 q 276 33 329 -1 q 214 134 223 66 q 185 549 188 332 q 180 572 185 564 q 160 583 175 580 q 44 643 79 597 q 4 801 4 694 q 43 941 4 901 q 149 982 83 982 q 179 981 161 982 q 297 977 235 977 q 581 995 428 977 q 646 1000 625 1000 q 753 950 715 1000 q 797 795 797 891 q 764 663 797 714 q 661 599 730 608 q 605 581 622 594 q 588 536 588 568 q 610 209 588 386 q 615 151 615 169 q 565 43 615 81 q 417 -1 508 0 z "},"u":{"ha":956,"x_min":30,"x_max":919,"o":"m 467 -1 q 119 160 227 -1 q 30 519 30 293 q 55 865 30 671 q 117 968 64 935 q 251 1001 170 1001 q 401 960 347 1001 q 456 850 456 920 q 451 789 456 833 q 433 570 433 643 q 452 443 433 486 q 498 406 469 406 q 562 595 562 406 q 539 840 562 682 q 537 871 537 857 q 715 1001 537 1001 q 813 985 774 1001 q 872 928 851 968 q 903 819 894 888 q 919 581 919 701 q 467 -1 919 -1 z "},"v":{"ha":927,"x_min":26,"x_max":895,"o":"m 450 -1 q 155 167 267 -1 q 64 374 97 254 q 30 565 35 484 q 26 684 26 646 q 38 865 26 773 q 100 968 47 935 q 234 1001 153 1001 q 385 960 330 1001 q 439 850 439 920 q 435 793 439 836 q 425 591 425 694 q 441 425 425 484 q 482 365 457 365 q 522 426 505 365 q 539 614 539 495 q 522 840 539 713 q 520 870 520 856 q 584 981 520 949 q 698 1001 625 1001 q 796 985 758 1001 q 856 928 834 968 q 895 671 895 854 q 883 510 895 588 q 799 248 859 363 q 650 66 739 134 q 450 -1 560 -1 z "},"w":{"ha":1172,"x_min":31,"x_max":1135,"o":"m 920 -1 q 795 32 837 -1 q 713 172 753 65 q 613 445 663 302 q 583 491 597 491 q 552 445 568 491 q 452 172 502 302 q 370 32 412 65 q 245 -1 328 -1 q 98 125 123 -1 q 39 556 56 330 q 31 736 31 659 q 36 851 31 784 q 82 960 41 918 q 209 1001 123 1001 q 309 980 265 1001 q 368 928 353 960 q 386 850 386 890 l 385 833 q 376 585 376 657 q 382 534 376 534 q 393 549 388 534 q 456 740 399 570 q 583 911 513 911 q 709 740 652 911 q 772 549 766 570 q 783 534 777 534 q 789 585 789 534 q 780 833 789 657 l 779 850 q 797 928 779 890 q 856 980 812 960 q 956 1001 900 1001 q 1083 960 1042 1001 q 1129 851 1124 918 q 1135 736 1135 784 q 1126 556 1135 659 q 1067 125 1109 330 q 920 -1 1042 -1 z "},"x":{"ha":918,"x_min":30,"x_max":886,"o":"m 684 -1 q 534 40 589 -1 q 479 151 479 81 q 482 194 479 171 q 485 237 485 216 q 478 294 485 272 q 437 336 466 336 q 391 231 391 336 q 396 160 391 199 q 399 128 399 143 q 220 -1 399 -1 q 123 16 161 -1 q 63 72 85 32 q 33 181 42 112 q 30 237 30 210 q 50 351 30 300 q 136 471 79 423 q 153 501 153 484 q 139 530 153 517 q 30 797 30 631 q 34 865 30 829 q 96 968 43 935 q 231 1001 149 1001 q 381 960 326 1001 q 436 849 436 919 q 433 808 436 830 q 431 764 431 786 q 437 706 431 728 q 478 665 449 665 q 524 770 524 665 q 519 840 524 801 q 517 872 517 857 q 694 1001 517 1001 q 792 985 754 1001 q 851 928 830 968 q 882 819 873 888 q 886 764 886 790 q 865 648 886 699 q 777 528 836 576 q 761 498 761 515 q 774 472 761 485 q 886 200 886 371 q 881 134 886 169 q 819 33 871 66 q 684 -1 766 -1 z "},"y":{"ha":876,"x_min":7,"x_max":863,"o":"m 454 -1 q 296 42 355 -1 q 240 149 245 79 q 233 340 234 239 q 222 398 233 373 q 180 445 212 422 q 48 606 88 511 q 7 798 7 701 q 12 865 7 831 q 73 968 20 935 q 208 1001 126 1001 q 358 960 304 1001 q 413 850 413 920 q 410 805 413 830 q 407 751 407 781 q 419 663 407 699 q 455 631 430 631 q 488 662 477 631 q 500 728 500 696 l 501 766 q 496 840 501 804 q 494 871 494 857 q 671 1001 494 1001 q 769 985 731 1001 q 829 928 807 968 q 859 819 850 888 q 863 764 863 791 q 825 601 863 673 q 689 450 777 508 q 648 409 661 432 q 635 349 635 385 q 640 233 637 286 q 642 153 642 180 q 585 35 642 73 q 454 -1 532 -1 z "},"z":{"ha":840,"x_min":21,"x_max":818,"o":"m 168 0 q 61 50 98 0 q 21 182 21 104 q 61 320 21 254 q 277 538 125 424 q 289 557 289 548 q 264 574 289 572 q 192 581 224 576 q 67 640 104 594 q 25 801 25 691 q 64 941 25 901 q 170 982 104 982 q 203 980 182 982 q 318 977 256 977 q 646 1000 466 977 q 674 1002 661 1002 q 782 952 747 1002 q 818 823 818 902 q 788 705 818 759 q 711 602 758 651 q 612 507 664 553 q 523 415 523 429 q 541 401 523 401 q 779 337 726 401 q 818 184 818 289 q 682 17 818 17 q 644 19 667 17 q 510 23 585 23 q 231 7 370 23 q 196 2 208 4 q 168 0 184 0 z "},"{":{"ha":859,"x_min":34,"x_max":825,"o":"m 522 -217 q 205 -56 237 -217 q 197 24 197 -14 q 208 155 197 79 q 218 269 218 222 q 200 345 218 314 q 127 387 180 378 q 57 425 81 395 q 34 500 34 455 q 57 582 34 557 q 127 614 81 607 q 199 655 180 623 q 218 732 218 687 q 208 846 218 779 q 197 977 197 922 q 204 1051 197 1015 q 522 1218 240 1218 q 685 1199 617 1218 q 789 1140 753 1181 q 825 1034 825 1099 q 717 906 825 906 q 690 908 704 906 q 664 909 676 909 q 585 852 592 909 q 582 798 582 825 q 583 770 582 785 q 584 739 584 755 q 505 525 584 597 q 493 503 493 514 q 509 472 493 488 q 584 262 584 395 q 583 231 584 246 q 582 203 582 216 q 585 154 582 176 q 663 92 592 92 q 690 93 675 92 q 717 95 704 95 q 825 -33 825 95 q 789 -139 825 -98 q 685 -198 753 -180 q 522 -217 617 -217 z "},"|":{"ha":283,"x_min":34,"x_max":250,"o":"m 145 -217 q 62 -174 83 -217 q 37 47 37 -126 q 35 303 37 168 q 34 543 34 425 q 39 957 34 758 q 65 1165 42 1111 q 144 1219 88 1219 q 217 1202 194 1219 q 243 1163 237 1188 q 250 1104 250 1138 l 243 -106 q 235 -165 243 -140 q 145 -217 220 -217 z "},"}":{"ha":859,"x_min":34,"x_max":825,"o":"m 337 -217 q 174 -198 241 -217 q 70 -139 106 -180 q 34 -33 34 -98 q 142 95 34 95 q 169 93 155 95 q 195 92 182 92 q 273 149 267 92 q 277 203 277 176 q 276 231 277 216 q 275 262 275 246 q 353 476 275 404 q 366 498 366 487 q 349 529 366 513 q 275 739 275 606 q 276 770 275 755 q 277 798 277 785 q 274 847 277 825 q 196 909 267 909 q 169 908 183 909 q 142 906 155 906 q 34 1034 34 906 q 70 1140 34 1099 q 174 1199 106 1181 q 337 1218 241 1218 q 654 1057 621 1218 q 662 977 662 1015 q 651 846 662 922 q 641 732 641 779 q 659 656 641 687 q 731 614 678 623 q 801 576 778 606 q 825 500 825 546 q 801 419 825 444 q 731 387 778 394 q 660 346 678 378 q 641 269 641 314 q 651 155 641 222 q 662 24 662 79 q 654 -50 662 -14 q 337 -217 618 -217 z "},"~":{"ha":702,"x_min":34,"x_max":668,"o":"m 433 363 q 314 399 382 363 q 230 427 261 427 q 178 402 203 427 q 113 366 143 366 q 60 393 90 366 q 34 446 34 418 q 35 464 34 448 q 75 526 37 480 q 198 631 142 608 q 269 646 236 646 q 388 610 318 646 q 471 583 439 583 q 524 608 498 583 q 589 643 558 643 q 641 616 612 643 q 668 564 668 591 q 666 545 668 562 q 627 483 665 529 q 503 378 559 401 q 433 363 467 363 z "},"¡":{"ha":485,"x_min":34,"x_max":451,"o":"m 245 661 q 373 626 328 661 q 434 528 417 591 q 451 375 451 464 q 444 221 451 295 q 424 112 436 147 q 356 25 401 50 q 233 0 311 0 q 34 144 34 0 q 37 180 34 161 q 52 406 51 288 q 67 537 52 480 q 124 627 83 594 q 245 661 165 661 m 247 1001 q 374 966 334 1001 q 414 861 414 931 q 397 795 414 824 q 262 729 362 729 q 128 766 170 729 q 86 880 86 803 q 129 969 86 937 q 247 1001 171 1001 z "},"¢":{"ha":918,"x_min":34,"x_max":884,"o":"m 361 -127 q 283 -117 326 -127 q 161 65 170 -87 q 153 100 159 86 q 132 130 146 113 q 34 488 34 257 q 68 714 34 611 q 347 985 140 930 q 387 1018 378 994 l 393 1037 q 537 1128 426 1128 q 604 1120 568 1128 q 726 1057 682 1103 q 759 975 759 1023 q 755 945 759 960 q 753 930 753 935 q 763 909 753 918 q 842 819 812 869 q 884 664 884 743 q 777 510 884 559 q 669 483 717 483 q 584 530 616 483 q 544 581 559 566 q 505 595 529 595 q 461 573 478 595 q 434 484 434 539 q 456 406 434 435 q 505 382 475 382 q 538 391 524 382 q 591 408 562 408 q 734 317 661 408 q 778 202 778 262 q 730 104 778 145 q 528 9 649 35 q 507 -1 513 6 q 496 -24 500 -7 q 418 -119 473 -99 q 361 -127 393 -127 z "},"£":{"ha":919,"x_min":34,"x_max":885,"o":"m 232 0 q 157 22 190 0 q 106 90 124 45 q 88 185 88 134 q 151 321 88 269 q 201 359 176 343 q 222 381 222 374 q 202 392 222 392 q 94 377 162 392 q 80 376 86 376 q 46 418 46 376 q 66 447 46 437 q 167 465 92 461 q 182 473 182 467 q 173 482 182 477 q 109 525 141 498 q 56 597 77 551 q 34 716 34 642 q 76 867 34 800 q 209 971 119 933 q 442 1009 298 1009 q 625 983 547 1009 q 840 821 772 935 q 885 665 885 745 q 777 510 885 559 q 670 483 718 483 q 585 530 620 483 q 529 581 559 564 q 471 597 499 597 q 433 555 433 597 q 451 505 433 526 q 494 483 469 483 q 571 475 551 483 q 591 444 591 467 q 558 403 591 403 q 531 404 549 403 q 477 406 507 406 q 424 388 444 406 q 404 346 404 370 q 427 324 404 324 q 447 329 437 324 q 705 395 587 395 q 885 187 885 395 q 749 17 885 17 q 694 20 727 17 q 577 23 652 23 q 300 5 432 23 q 232 0 257 0 z "},"¤":{"ha":597,"x_min":34,"x_max":563,"o":"m 293 469 q 324 508 324 469 q 293 547 324 547 q 262 510 262 547 q 293 469 262 469 m 151 245 q 85 277 121 245 q 50 344 50 309 q 86 427 50 377 q 119 515 119 473 q 81 578 119 541 q 34 661 34 623 q 66 725 34 690 q 133 760 98 760 q 216 724 166 760 q 299 694 258 694 q 374 724 336 694 q 463 764 427 764 q 528 732 496 764 q 563 665 563 695 q 517 585 563 628 q 475 509 475 544 q 501 450 475 483 q 553 349 553 387 q 522 283 553 315 q 453 248 484 248 q 373 292 416 248 q 304 320 345 320 q 233 291 262 320 q 151 245 187 245 z "},"¥":{"ha":924,"x_min":34,"x_max":890,"o":"m 479 -1 q 331 37 388 -1 q 269 130 280 69 q 260 139 268 139 q 244 138 252 139 q 222 137 237 137 q 176 195 176 137 q 189 231 176 218 q 248 250 205 245 q 264 265 264 252 q 248 275 264 275 q 197 271 239 275 q 174 269 184 269 q 115 286 138 269 q 85 368 85 307 q 101 429 85 406 q 157 462 117 451 q 165 473 165 464 q 161 483 165 479 q 62 634 91 551 q 34 797 34 718 q 39 865 34 830 q 100 968 47 935 q 235 1001 153 1001 q 385 960 330 1001 q 440 850 440 920 q 437 800 440 823 q 434 751 434 776 q 446 663 434 699 q 482 631 457 631 q 528 766 528 631 q 523 840 528 804 q 520 872 520 857 q 699 1001 520 1001 q 796 985 758 1001 q 856 928 834 968 q 886 819 878 888 q 890 764 890 791 q 863 625 890 688 q 758 481 827 541 q 751 471 751 475 q 761 460 751 463 q 812 426 798 448 q 827 369 827 404 q 806 288 827 307 q 738 269 785 269 q 714 270 726 269 q 675 274 687 274 q 663 267 663 274 q 676 256 663 258 q 730 237 716 250 q 745 203 745 224 q 701 143 745 143 q 690 144 695 143 q 678 145 684 145 q 669 134 670 145 q 606 31 661 62 q 479 -1 551 -1 z "},"§":{"ha":772,"x_min":34,"x_max":739,"o":"m 399 -100 q 223 -72 311 -100 q 83 5 136 -43 q 34 102 34 49 q 77 217 34 163 q 220 308 148 308 q 273 292 248 308 q 323 273 301 273 q 350 296 350 273 q 336 323 350 313 q 250 347 315 337 q 179 361 215 352 q 40 530 40 395 q 66 625 40 585 q 72 642 72 633 q 64 664 72 652 q 34 778 34 710 q 373 1009 34 1009 q 549 981 461 1009 q 690 905 636 953 q 739 807 739 862 q 694 693 739 751 q 553 602 625 602 q 499 618 524 602 q 450 635 471 635 q 422 613 422 635 q 436 587 422 596 q 472 572 450 577 q 522 562 494 567 q 593 548 557 557 q 662 520 630 539 q 713 468 693 502 q 732 380 732 435 q 710 291 732 329 q 703 265 703 278 q 709 243 703 254 q 739 132 739 197 q 698 -1 739 50 q 581 -76 657 -52 q 399 -100 505 -100 z "},"¨":{"ha":572,"x_min":34,"x_max":538,"o":"m 126 1078 q 34 1156 34 1078 q 130 1235 34 1235 q 198 1217 174 1235 q 222 1166 222 1198 q 126 1078 222 1078 m 441 1078 q 349 1156 349 1078 q 445 1235 349 1235 q 513 1217 489 1235 q 538 1166 538 1198 q 441 1078 538 1078 z "},"©":{"ha":974,"x_min":8,"x_max":949,"o":"m 467 224 q 337 260 386 224 q 266 356 288 295 q 244 493 244 416 q 271 637 244 574 q 351 739 297 701 q 486 776 404 776 q 677 694 615 776 q 713 591 713 645 q 653 507 713 536 q 595 491 621 491 q 543 524 563 491 q 504 552 524 552 q 475 534 486 552 q 465 494 465 517 q 474 452 465 469 q 504 435 484 435 q 522 440 514 435 q 553 449 536 449 q 631 400 589 449 q 654 340 654 372 q 555 240 654 276 q 467 224 511 224 m 479 -1 q 274 41 363 -1 q 127 153 186 83 q 38 311 68 222 q 8 492 8 399 q 37 678 8 587 q 125 842 66 769 q 272 958 184 914 q 479 1001 361 1001 q 681 961 593 1001 q 828 854 768 922 q 919 702 888 787 q 949 527 949 617 q 922 335 949 429 q 836 166 894 241 q 690 45 779 90 q 479 -1 601 -1 m 477 78 q 648 116 576 78 q 767 216 720 153 q 838 357 814 279 q 861 515 861 435 q 836 666 861 593 q 762 796 811 739 q 642 888 713 854 q 477 922 570 922 q 308 885 380 922 q 190 785 237 848 q 119 644 142 722 q 96 485 96 566 q 121 335 96 408 q 194 205 146 262 q 313 113 242 147 q 477 78 384 78 z "},"«":{"ha":667,"x_min":34,"x_max":633,"o":"m 236 246 q 155 291 200 246 l 110 338 q 34 515 34 416 q 142 711 34 621 q 245 763 203 763 q 310 730 278 763 q 346 663 346 694 q 300 582 346 626 l 248 530 q 238 511 238 521 q 247 491 238 500 q 304 425 283 452 q 336 347 336 382 q 304 281 336 313 q 236 246 267 246 m 524 246 q 444 291 488 246 l 397 338 q 321 515 321 416 q 429 711 321 621 q 533 763 490 763 q 597 730 566 763 q 633 663 633 694 q 589 582 633 626 l 536 530 q 526 511 526 521 q 534 491 526 500 q 591 425 570 452 q 624 347 624 382 q 591 281 624 313 q 524 246 554 246 z "},"¬":{"ha":702,"x_min":34,"x_max":668,"o":"m 548 188 q 487 201 507 188 q 458 240 466 215 q 451 298 451 264 l 451 365 q 421 398 451 398 l 366 398 q 55 447 103 398 q 34 509 34 469 q 89 605 34 591 q 148 611 114 611 q 361 608 254 611 q 557 606 464 606 q 616 599 591 606 q 654 571 641 592 q 668 509 668 550 q 654 320 668 445 q 623 216 646 245 q 548 188 599 188 z "},"®":{"ha":1009,"x_min":34,"x_max":975,"o":"m 491 511 q 511 519 505 511 q 518 537 518 528 q 511 555 518 547 q 492 564 505 564 q 471 535 471 564 q 491 511 471 511 m 634 224 q 578 237 603 224 q 540 301 543 255 q 511 398 535 375 q 494 407 503 407 q 478 389 478 407 q 482 353 478 381 q 486 309 486 324 q 458 249 486 270 q 374 224 426 224 q 299 243 329 224 q 264 299 270 261 q 249 538 249 416 q 258 684 249 633 q 279 740 265 720 q 371 776 304 776 q 456 754 431 776 q 471 747 464 747 q 484 750 476 747 q 569 766 524 766 q 703 722 655 766 q 750 599 750 678 q 693 473 750 514 q 684 462 684 467 q 694 452 684 457 q 760 319 760 410 q 662 227 760 243 q 634 224 648 224 m 505 -1 q 300 41 389 -1 q 153 152 212 82 q 64 311 94 222 q 34 492 34 399 q 63 677 34 587 q 151 841 92 768 q 298 958 210 914 q 505 1001 387 1001 q 707 961 619 1001 q 854 854 794 921 q 945 702 914 787 q 975 526 975 617 q 947 335 975 429 q 862 166 920 241 q 715 45 804 90 q 505 -1 627 -1 m 503 78 q 674 115 602 78 q 793 215 746 153 q 863 356 840 278 q 886 515 886 435 q 862 665 886 593 q 788 796 837 738 q 668 888 739 854 q 503 922 596 922 q 334 885 406 922 q 215 785 262 847 q 145 644 168 722 q 122 485 122 566 q 147 335 122 408 q 220 204 172 262 q 339 112 268 146 q 503 78 410 78 z "},"¯":{"ha":526,"x_min":34,"x_max":492,"o":"m 280 1067 q 58 1108 98 1067 q 34 1174 34 1131 q 64 1256 34 1237 q 142 1275 94 1275 l 206 1276 q 386 1271 258 1276 q 465 1249 438 1269 q 492 1175 492 1228 q 462 1095 492 1118 q 355 1069 431 1072 q 280 1067 318 1067 z "},"°":{"ha":403,"x_min":34,"x_max":369,"o":"m 202 646 q 109 672 146 646 q 53 737 71 697 q 34 821 34 777 q 53 907 34 866 q 109 975 71 948 q 202 1001 146 1001 q 295 975 258 1001 q 351 909 332 949 q 369 823 369 869 q 350 738 369 779 q 295 672 332 698 q 202 646 258 646 m 190 781 q 214 795 205 781 q 222 820 222 810 l 222 831 q 215 861 222 847 q 190 874 207 874 q 157 828 157 874 q 161 805 157 817 q 190 781 168 781 z "},"±":{"ha":701,"x_min":34,"x_max":667,"o":"m 343 0 q 140 12 212 0 q 55 47 79 22 q 34 109 34 69 q 89 204 34 190 q 148 211 114 211 l 264 210 q 274 216 274 210 q 269 237 274 226 q 247 370 252 279 q 236 395 246 389 q 206 404 227 402 q 140 412 170 408 q 55 447 79 422 q 34 509 34 469 q 89 605 34 591 q 148 611 114 611 l 211 611 q 248 640 248 611 q 289 800 248 768 q 354 821 315 821 q 451 766 437 821 q 457 707 457 741 l 457 634 q 491 607 457 607 q 556 606 524 606 q 616 599 591 606 q 667 509 667 584 q 639 435 667 458 q 480 400 604 407 q 453 374 453 399 l 453 300 q 446 240 453 264 q 439 215 439 220 q 448 208 439 208 q 556 206 517 206 q 616 199 591 206 q 667 109 667 184 q 639 35 667 58 q 343 0 595 0 z "},"´":{"ha":330,"x_min":34,"x_max":296,"o":"m 96 1062 q 54 1078 71 1062 q 34 1126 34 1100 q 55 1181 34 1152 q 152 1291 98 1242 q 224 1332 196 1332 q 267 1312 246 1332 q 296 1265 296 1287 q 155 1088 296 1228 q 96 1062 128 1062 z "},"¶":{"ha":1106,"x_min":34,"x_max":1072,"o":"m 389 -111 q 299 -88 334 -111 q 262 -22 265 -65 q 250 356 250 115 q 207 416 250 397 q 77 525 121 455 q 34 687 34 595 q 213 947 34 871 q 644 1009 361 1009 q 902 997 809 1009 q 1034 950 996 985 q 1072 848 1072 915 q 980 705 1072 724 q 953 675 953 699 q 962 570 953 655 q 973 311 973 460 q 962 35 973 170 q 904 -71 956 -35 q 751 -110 848 -110 q 615 -73 670 -110 q 560 43 560 -35 q 565 131 560 68 q 570 307 570 205 q 543 688 570 526 q 531 707 540 707 q 522 693 524 707 q 500 285 500 517 q 509 56 500 159 q 512 -16 512 7 q 477 -86 512 -62 q 389 -111 443 -111 z "},"·":{"ha":347,"x_min":34,"x_max":313,"o":"m 176 385 q 67 415 101 385 q 34 503 34 444 q 47 560 34 535 q 163 616 77 616 q 277 585 241 616 q 313 488 313 553 q 276 412 313 439 q 176 385 240 385 z "},"∙":{"ha":347,"x_min":34,"x_max":313,"o":"m 176 385 q 67 415 101 385 q 34 503 34 444 q 47 560 34 535 q 163 616 77 616 q 277 585 241 616 q 313 488 313 553 q 276 412 313 439 q 176 385 240 385 z "},"¸":{"ha":330,"x_min":34,"x_max":296,"o":"m 88 -322 q 48 -312 62 -322 q 34 -270 34 -301 q 100 -220 34 -220 q 160 -199 145 -220 q 167 -178 167 -189 q 89 -110 167 -134 q 41 -62 41 -95 q 127 88 41 -27 q 165 109 142 109 q 197 99 184 109 q 209 77 209 90 q 190 13 209 64 q 184 -12 184 -3 q 205 -39 184 -26 q 273 -100 249 -64 q 296 -176 296 -136 q 274 -246 296 -213 q 206 -301 252 -279 q 88 -322 159 -322 z "},"»":{"ha":667,"x_min":34,"x_max":633,"o":"m 134 246 q 70 279 102 246 q 34 346 34 315 q 79 427 34 382 l 132 478 q 142 498 142 488 q 133 517 142 508 q 76 584 97 557 q 43 661 43 627 q 76 727 43 696 q 144 763 113 763 q 224 718 180 763 l 270 671 q 346 494 346 592 q 238 297 346 387 q 134 246 177 246 m 422 246 q 357 279 389 246 q 321 346 321 315 q 367 427 321 382 l 419 478 q 429 498 429 488 q 420 517 429 508 q 364 584 385 557 q 331 661 331 627 q 363 727 331 696 q 431 763 401 763 q 512 718 467 763 l 557 671 q 633 494 633 592 q 526 297 633 387 q 422 246 465 246 z "},"¼":{"ha":1213,"x_min":34,"x_max":1179,"o":"m 237 454 q 153 478 185 454 q 125 537 125 498 q 127 563 125 553 q 132 599 129 573 q 140 779 140 687 q 135 809 140 802 q 115 817 131 817 q 56 836 78 817 q 34 904 34 855 q 89 976 34 951 q 239 1001 144 1001 q 315 981 290 1001 q 351 910 341 961 q 360 766 360 859 q 344 528 360 644 q 237 454 334 454 m 398 0 q 349 9 377 0 q 286 94 286 31 q 342 297 286 155 q 394 435 368 366 q 613 951 555 863 q 692 1002 646 1002 q 736 990 713 1002 q 798 915 798 961 q 783 850 798 888 q 631 465 708 656 q 479 79 553 273 q 441 15 461 30 q 398 0 422 0 m 1055 0 q 971 24 1004 0 q 944 83 944 45 q 947 119 944 100 q 950 144 950 138 q 937 161 950 161 q 926 159 932 161 q 877 154 900 154 q 752 201 795 154 q 690 400 690 267 q 694 473 690 435 q 728 529 699 511 q 802 547 758 547 q 886 524 854 547 q 913 465 913 503 q 912 425 913 452 q 910 384 910 402 q 937 297 910 330 q 949 290 942 290 q 959 304 959 290 q 950 449 959 380 q 949 469 949 459 q 969 524 949 500 q 1058 547 990 547 q 1134 527 1108 547 q 1170 456 1160 507 q 1179 312 1179 405 q 1162 74 1179 191 q 1055 0 1152 0 z "},"½":{"ha":1188,"x_min":34,"x_max":1154,"o":"m 237 454 q 153 478 185 454 q 125 537 125 498 q 127 563 125 553 q 132 599 129 573 q 140 779 140 687 q 135 809 140 802 q 115 817 131 817 q 56 836 78 817 q 34 904 34 855 q 89 976 34 951 q 239 1001 144 1001 q 315 981 290 1001 q 351 910 341 961 q 360 766 360 859 q 344 528 360 644 q 237 454 334 454 m 398 0 q 349 9 377 0 q 286 94 286 31 q 342 297 286 155 q 394 435 368 366 q 613 951 555 863 q 692 1002 646 1002 q 736 990 713 1002 q 798 915 798 961 q 783 850 798 888 q 631 465 708 656 q 479 79 553 273 q 441 15 461 30 q 398 0 422 0 m 783 0 q 726 28 746 0 q 704 101 704 60 q 758 210 704 168 q 863 262 792 236 q 915 285 894 274 q 936 312 936 296 q 918 326 936 326 q 854 289 882 326 q 808 264 835 264 q 749 278 781 264 q 704 315 718 293 q 690 363 690 336 q 726 467 690 418 q 931 551 791 551 q 1059 531 1010 551 q 1131 474 1108 510 q 1154 391 1154 437 q 1101 281 1154 317 q 1002 243 1067 258 q 975 227 975 237 q 987 219 975 219 q 1118 184 1089 219 q 1139 100 1139 157 q 1065 9 1139 9 q 1026 11 1048 9 q 971 12 993 12 q 838 4 901 12 q 783 0 803 0 z "},"¾":{"ha":1351,"x_min":34,"x_max":1317,"o":"m 275 450 q 71 534 134 450 q 34 639 34 583 q 93 722 34 694 q 152 737 125 737 q 199 711 179 737 q 262 675 227 675 q 280 689 280 675 q 242 724 280 707 q 228 745 228 730 q 239 759 228 754 q 278 792 278 775 q 260 805 278 805 q 207 773 232 805 q 165 751 190 751 q 115 764 142 751 q 64 838 64 789 q 96 927 64 884 q 275 1001 151 1001 q 386 983 342 1001 q 449 933 429 964 q 469 861 469 901 q 404 755 469 783 q 396 747 396 751 q 401 741 396 743 q 498 610 498 707 q 475 527 498 564 q 403 470 452 491 q 275 450 354 450 m 536 0 q 487 9 515 0 q 424 94 424 31 q 480 297 424 155 q 532 435 507 366 q 751 951 693 863 q 830 1002 785 1002 q 875 990 851 1002 q 937 915 937 961 q 922 850 937 888 q 769 465 846 656 q 618 79 692 273 q 580 15 600 30 q 536 0 560 0 m 1194 0 q 1109 24 1142 0 q 1082 83 1082 45 q 1085 119 1082 100 q 1088 144 1088 138 q 1075 161 1088 161 q 1064 159 1070 161 q 1015 154 1038 154 q 890 201 934 154 q 828 400 828 267 q 833 473 828 435 q 867 529 838 511 q 941 547 896 547 q 1025 524 993 547 q 1052 465 1052 503 q 1050 425 1052 452 q 1048 384 1048 402 q 1075 297 1048 330 q 1087 290 1080 290 q 1097 304 1097 290 q 1088 449 1097 380 q 1087 469 1087 459 q 1108 524 1087 500 q 1196 547 1128 547 q 1273 527 1246 547 q 1308 456 1299 507 q 1317 312 1317 405 q 1301 74 1317 191 q 1194 0 1291 0 z "},"¿":{"ha":918,"x_min":34,"x_max":884,"o":"m 384 661 q 529 580 529 661 q 512 527 529 548 q 474 488 494 505 q 446 460 458 474 q 433 429 433 446 q 471 404 433 404 q 583 471 531 404 q 670 518 620 518 q 777 492 718 518 q 884 337 884 443 q 755 86 884 189 q 442 -8 637 -8 q 210 27 300 -8 q 77 121 120 62 q 34 248 34 179 q 48 334 34 300 q 84 390 62 368 q 130 431 106 412 q 178 476 157 452 q 205 542 200 501 q 248 631 213 601 q 384 661 282 661 m 401 1001 q 528 966 489 1001 q 568 862 568 931 q 551 795 568 824 q 416 729 516 729 q 282 766 323 729 q 241 880 241 803 q 283 969 241 937 q 401 1001 325 1001 z "},"À":{"ha":985,"x_min":-7,"x_max":945,"o":"m 475 477 q 536 524 536 477 q 519 574 536 553 q 476 595 501 595 q 437 576 454 595 q 421 531 421 557 q 475 477 421 477 m 724 -1 q 573 40 627 -1 q 519 150 519 81 l 519 177 q 475 211 519 211 q 435 174 435 211 q 436 159 435 168 q 438 130 438 144 q 374 20 438 51 q 260 -1 334 -1 q 135 33 177 -1 q 77 153 92 66 q 42 203 73 180 q -7 337 -7 241 q 33 452 -7 416 q 53 477 47 465 q 60 510 58 489 q 171 857 74 731 q 509 1001 282 1001 q 856 841 749 1001 q 945 481 945 707 q 920 134 945 324 q 858 33 911 66 q 724 -1 806 -1 m 534 1062 q 474 1088 501 1062 q 334 1265 334 1228 q 362 1312 334 1287 q 406 1332 383 1332 q 477 1291 433 1332 q 574 1181 531 1242 q 596 1126 596 1152 q 575 1078 596 1100 q 534 1062 559 1062 z "},"Á":{"ha":985,"x_min":-7,"x_max":945,"o":"m 475 477 q 536 524 536 477 q 519 574 536 553 q 476 595 501 595 q 437 576 454 595 q 421 531 421 557 q 475 477 421 477 m 724 -1 q 573 40 627 -1 q 519 150 519 81 l 519 177 q 475 211 519 211 q 435 174 435 211 q 436 159 435 168 q 438 130 438 144 q 374 20 438 51 q 260 -1 334 -1 q 135 33 177 -1 q 77 153 92 66 q 42 203 73 180 q -7 337 -7 241 q 33 452 -7 416 q 53 477 47 465 q 60 510 58 489 q 171 857 74 731 q 509 1001 282 1001 q 856 841 749 1001 q 945 481 945 707 q 920 134 945 324 q 858 33 911 66 q 724 -1 806 -1 m 484 1062 q 442 1078 458 1062 q 422 1126 422 1100 q 443 1181 422 1152 q 540 1291 486 1242 q 612 1332 584 1332 q 655 1312 634 1332 q 684 1265 684 1287 q 543 1088 684 1228 q 484 1062 516 1062 z "},"Â":{"ha":985,"x_min":-7,"x_max":945,"o":"m 475 477 q 536 524 536 477 q 519 574 536 553 q 476 595 501 595 q 437 576 454 595 q 421 531 421 557 q 475 477 421 477 m 724 -1 q 573 40 627 -1 q 519 150 519 81 l 519 177 q 475 211 519 211 q 435 174 435 211 q 436 159 435 168 q 438 130 438 144 q 374 20 438 51 q 260 -1 334 -1 q 135 33 177 -1 q 77 153 92 66 q 42 203 73 180 q -7 337 -7 241 q 33 452 -7 416 q 53 477 47 465 q 60 510 58 489 q 171 857 74 731 q 509 1001 282 1001 q 856 841 749 1001 q 945 481 945 707 q 920 134 945 324 q 858 33 911 66 q 724 -1 806 -1 m 652 1062 q 593 1088 620 1062 q 522 1163 561 1121 q 507 1171 515 1171 q 492 1162 500 1171 q 423 1088 465 1128 q 363 1062 396 1062 q 322 1078 338 1062 q 302 1125 302 1100 q 323 1181 302 1152 q 421 1291 367 1242 q 464 1322 445 1313 q 508 1332 484 1332 q 553 1322 535 1332 q 596 1291 572 1313 q 693 1181 650 1242 q 715 1126 715 1152 q 694 1078 715 1100 q 652 1062 677 1062 z "},"Ã":{"ha":985,"x_min":-7,"x_max":945,"o":"m 475 477 q 536 524 536 477 q 519 574 536 553 q 476 595 501 595 q 437 576 454 595 q 421 531 421 557 q 475 477 421 477 m 724 -1 q 573 40 627 -1 q 519 150 519 81 l 519 177 q 475 211 519 211 q 435 174 435 211 q 436 159 435 168 q 438 130 438 144 q 374 20 438 51 q 260 -1 334 -1 q 135 33 177 -1 q 77 153 92 66 q 42 203 73 180 q -7 337 -7 241 q 33 452 -7 416 q 53 477 47 465 q 60 510 58 489 q 171 857 74 731 q 509 1001 282 1001 q 856 841 749 1001 q 945 481 945 707 q 920 134 945 324 q 858 33 911 66 q 724 -1 806 -1 m 587 1062 q 503 1093 539 1062 q 476 1120 488 1106 q 451 1143 463 1133 q 427 1152 439 1152 q 413 1137 414 1152 q 399 1080 412 1098 q 359 1062 387 1062 q 314 1077 326 1062 q 302 1121 302 1093 q 319 1208 302 1173 q 363 1262 336 1243 q 426 1280 391 1280 q 496 1262 469 1280 q 541 1223 523 1244 q 590 1190 572 1190 q 604 1205 604 1190 q 618 1262 606 1244 q 659 1280 631 1280 q 703 1265 692 1280 q 715 1221 715 1250 q 698 1133 715 1168 q 652 1080 681 1097 q 587 1062 623 1062 z "},"Ä":{"ha":985,"x_min":-7,"x_max":945,"o":"m 475 477 q 536 524 536 477 q 519 574 536 553 q 476 595 501 595 q 437 576 454 595 q 421 531 421 557 q 475 477 421 477 m 724 -1 q 573 40 627 -1 q 519 150 519 81 l 519 177 q 475 211 519 211 q 435 174 435 211 q 436 159 435 168 q 438 130 438 144 q 374 20 438 51 q 260 -1 334 -1 q 135 33 177 -1 q 77 153 92 66 q 42 203 73 180 q -7 337 -7 241 q 33 452 -7 416 q 53 477 47 465 q 60 510 58 489 q 171 857 74 731 q 509 1001 282 1001 q 856 841 749 1001 q 945 481 945 707 q 920 134 945 324 q 858 33 911 66 q 724 -1 806 -1 m 349 1078 q 256 1156 256 1078 q 352 1235 256 1235 q 420 1217 396 1235 q 445 1166 445 1198 q 349 1078 445 1078 m 664 1078 q 572 1156 572 1078 q 667 1235 572 1235 q 736 1217 711 1235 q 760 1166 760 1198 q 664 1078 760 1078 z "},"Å":{"ha":985,"x_min":-7,"x_max":945,"o":"m 475 477 q 536 524 536 477 q 519 574 536 553 q 476 595 501 595 q 437 576 454 595 q 421 531 421 557 q 475 477 421 477 m 724 -1 q 573 40 627 -1 q 519 150 519 81 l 519 177 q 475 211 519 211 q 435 174 435 211 q 436 159 435 168 q 438 130 438 144 q 374 20 438 51 q 260 -1 334 -1 q 135 33 177 -1 q 77 153 92 66 q 42 203 73 180 q -7 337 -7 241 q 33 452 -7 416 q 53 477 47 465 q 60 510 58 489 q 171 857 74 731 q 509 1001 282 1001 q 856 841 749 1001 q 945 481 945 707 q 920 134 945 324 q 858 33 911 66 q 724 -1 806 -1 m 509 1029 q 427 1051 460 1029 q 378 1107 394 1073 q 361 1178 361 1141 q 377 1252 361 1217 q 426 1310 393 1287 q 509 1332 459 1332 q 615 1290 574 1332 q 656 1181 656 1248 q 603 1061 656 1107 q 509 1029 568 1029 m 508 1101 q 559 1126 541 1101 q 578 1185 578 1151 q 561 1237 578 1214 q 508 1260 545 1260 q 456 1236 473 1260 q 439 1181 439 1212 q 456 1125 439 1149 q 508 1101 473 1101 z "},"Æ":{"ha":1256,"x_min":-7,"x_max":1242,"o":"m 726 -1 q 584 33 642 -1 q 526 134 526 66 q 475 211 526 211 q 435 173 435 211 l 435 124 q 260 -1 435 -1 q 134 33 176 -1 q 77 153 92 66 q 41 203 72 180 q -7 337 -7 241 q 32 452 -7 416 q 52 477 47 466 q 59 510 58 489 q 173 867 76 757 q 393 981 250 953 q 644 1001 498 1001 q 965 986 833 1001 q 1164 931 1096 970 q 1232 817 1232 891 q 1209 714 1232 751 q 1153 667 1187 677 q 1085 656 1119 656 q 1025 663 1059 656 q 954 671 979 671 q 897 635 897 671 q 915 607 897 612 q 952 601 932 601 q 1010 606 975 601 q 1055 612 1041 612 q 1156 500 1156 612 q 1130 423 1156 447 q 1111 409 1121 415 q 991 386 1074 387 q 947 384 967 386 q 904 353 904 379 q 922 327 904 332 q 958 323 941 323 q 1034 331 987 323 q 1097 337 1071 337 q 1158 328 1131 337 q 1242 177 1242 302 q 1197 65 1242 104 q 1041 13 1152 27 q 726 -1 929 -1 m 465 477 q 500 536 500 477 q 471 595 500 595 q 434 576 448 595 q 420 531 420 557 q 465 477 420 477 z "},"Ç":{"ha":879,"x_min":14,"x_max":865,"o":"m 362 -322 q 322 -312 336 -322 q 309 -270 309 -301 q 374 -220 309 -220 q 435 -199 420 -220 q 441 -178 441 -189 q 363 -111 441 -135 q 315 -61 315 -95 q 321 -34 315 -46 q 336 -4 336 -7 q 323 8 336 6 q 144 96 212 30 q 14 488 14 222 q 122 854 14 716 q 453 1001 237 1001 q 620 977 548 1001 q 822 820 758 928 q 865 664 865 745 q 756 511 865 565 q 650 483 699 483 q 564 530 595 483 q 525 581 540 566 q 486 595 509 595 q 441 573 458 595 q 414 484 414 538 q 438 404 414 435 q 486 382 455 382 q 519 391 505 382 q 572 408 544 408 q 714 317 642 408 q 758 202 758 262 q 709 104 758 147 q 479 3 618 25 q 458 -12 458 0 q 459 -20 458 -13 q 479 -39 460 -28 q 547 -100 524 -64 q 571 -176 571 -136 q 549 -246 571 -213 q 480 -301 527 -279 q 362 -322 434 -322 z "},"È":{"ha":793,"x_min":35,"x_max":780,"o":"m 264 -1 q 127 32 179 -1 q 64 134 73 66 q 35 570 35 349 q 52 834 35 741 q 117 964 69 928 q 256 1001 165 1001 q 536 986 422 1001 q 710 931 650 970 q 769 817 769 891 q 747 714 769 751 q 690 667 724 677 q 623 656 656 656 q 562 663 597 656 q 491 671 517 671 q 434 635 434 671 q 452 607 434 612 q 490 601 469 601 q 547 607 511 601 q 592 612 576 612 q 659 593 633 612 q 692 500 692 568 q 667 423 692 447 q 604 393 641 399 q 529 387 566 387 q 485 384 505 386 q 453 375 465 382 q 441 353 441 368 q 459 327 441 332 q 496 323 477 323 q 571 331 524 323 q 635 337 608 337 q 780 177 780 337 q 735 65 780 104 q 578 13 690 27 q 264 -1 467 -1 m 433 1062 q 373 1088 400 1062 q 233 1265 233 1228 q 261 1312 233 1287 q 304 1332 282 1332 q 376 1291 332 1332 q 473 1181 430 1242 q 495 1126 495 1152 q 474 1078 495 1100 q 433 1062 458 1062 z "},"É":{"ha":793,"x_min":35,"x_max":780,"o":"m 264 -1 q 127 32 179 -1 q 64 134 73 66 q 35 570 35 349 q 52 834 35 741 q 117 964 69 928 q 256 1001 165 1001 q 536 986 422 1001 q 710 931 650 970 q 769 817 769 891 q 747 714 769 751 q 690 667 724 677 q 623 656 656 656 q 562 663 597 656 q 491 671 517 671 q 434 635 434 671 q 452 607 434 612 q 490 601 469 601 q 547 607 511 601 q 592 612 576 612 q 659 593 633 612 q 692 500 692 568 q 667 423 692 447 q 604 393 641 399 q 529 387 566 387 q 485 384 505 386 q 453 375 465 382 q 441 353 441 368 q 459 327 441 332 q 496 323 477 323 q 571 331 524 323 q 635 337 608 337 q 780 177 780 337 q 735 65 780 104 q 578 13 690 27 q 264 -1 467 -1 m 382 1062 q 341 1078 357 1062 q 321 1126 321 1100 q 342 1181 321 1152 q 439 1291 385 1242 q 511 1332 483 1332 q 554 1312 533 1332 q 583 1265 583 1287 q 442 1088 583 1228 q 382 1062 415 1062 z "},"Ê":{"ha":793,"x_min":35,"x_max":780,"o":"m 264 -1 q 127 32 179 -1 q 64 134 73 66 q 35 570 35 349 q 52 834 35 741 q 117 964 69 928 q 256 1001 165 1001 q 536 986 422 1001 q 710 931 650 970 q 769 817 769 891 q 747 714 769 751 q 690 667 724 677 q 623 656 656 656 q 562 663 597 656 q 491 671 517 671 q 434 635 434 671 q 452 607 434 612 q 490 601 469 601 q 547 607 511 601 q 592 612 576 612 q 659 593 633 612 q 692 500 692 568 q 667 423 692 447 q 604 393 641 399 q 529 387 566 387 q 485 384 505 386 q 453 375 465 382 q 441 353 441 368 q 459 327 441 332 q 496 323 477 323 q 571 331 524 323 q 635 337 608 337 q 780 177 780 337 q 735 65 780 104 q 578 13 690 27 q 264 -1 467 -1 m 551 1062 q 492 1088 519 1062 q 420 1163 460 1121 q 406 1171 414 1171 q 391 1162 399 1171 q 322 1088 363 1128 q 262 1062 295 1062 q 221 1078 237 1062 q 201 1125 201 1100 q 222 1181 201 1152 q 320 1291 266 1242 q 363 1322 344 1313 q 407 1332 382 1332 q 452 1322 434 1332 q 495 1291 471 1313 q 592 1181 549 1242 q 614 1126 614 1152 q 593 1078 614 1100 q 551 1062 576 1062 z "},"Ë":{"ha":793,"x_min":35,"x_max":780,"o":"m 264 -1 q 127 32 179 -1 q 64 134 73 66 q 35 570 35 349 q 52 834 35 741 q 117 964 69 928 q 256 1001 165 1001 q 536 986 422 1001 q 710 931 650 970 q 769 817 769 891 q 747 714 769 751 q 690 667 724 677 q 623 656 656 656 q 562 663 597 656 q 491 671 517 671 q 434 635 434 671 q 452 607 434 612 q 490 601 469 601 q 547 607 511 601 q 592 612 576 612 q 659 593 633 612 q 692 500 692 568 q 667 423 692 447 q 604 393 641 399 q 529 387 566 387 q 485 384 505 386 q 453 375 465 382 q 441 353 441 368 q 459 327 441 332 q 496 323 477 323 q 571 331 524 323 q 635 337 608 337 q 780 177 780 337 q 735 65 780 104 q 578 13 690 27 q 264 -1 467 -1 m 248 1078 q 155 1156 155 1078 q 251 1235 155 1235 q 319 1217 295 1235 q 344 1166 344 1198 q 248 1078 344 1078 m 563 1078 q 471 1156 471 1078 q 566 1235 471 1235 q 635 1217 610 1235 q 659 1166 659 1198 q 563 1078 659 1078 z "},"Ì":{"ha":506,"x_min":35,"x_max":465,"o":"m 267 -1 l 260 -1 q 127 32 179 -1 q 64 134 73 66 q 35 570 35 349 q 52 834 35 741 q 117 964 69 928 q 256 1001 165 1001 q 384 979 339 1001 q 443 923 429 956 q 456 857 456 890 q 454 821 456 840 q 438 584 438 703 q 464 176 438 364 q 465 150 465 163 q 415 43 465 81 q 267 -1 358 0 m 275 1062 q 216 1088 243 1062 q 76 1265 76 1228 q 104 1312 76 1287 q 147 1332 125 1332 q 219 1291 175 1332 q 316 1181 273 1242 q 338 1126 338 1152 q 317 1078 338 1100 q 275 1062 300 1062 z "},"Í":{"ha":506,"x_min":35,"x_max":465,"o":"m 267 -1 l 260 -1 q 127 32 179 -1 q 64 134 73 66 q 35 570 35 349 q 52 834 35 741 q 117 964 69 928 q 256 1001 165 1001 q 384 979 339 1001 q 443 923 429 956 q 456 857 456 890 q 454 821 456 840 q 438 584 438 703 q 464 176 438 364 q 465 150 465 163 q 415 43 465 81 q 267 -1 358 0 m 225 1062 q 184 1078 200 1062 q 163 1126 163 1100 q 184 1181 163 1152 q 281 1291 228 1242 q 353 1332 326 1332 q 397 1312 376 1332 q 425 1265 425 1287 q 285 1088 425 1228 q 225 1062 258 1062 z "},"Î":{"ha":506,"x_min":35,"x_max":465,"o":"m 267 -1 l 260 -1 q 127 32 179 -1 q 64 134 73 66 q 35 570 35 349 q 52 834 35 741 q 117 964 69 928 q 256 1001 165 1001 q 384 979 339 1001 q 443 923 429 956 q 456 857 456 890 q 454 821 456 840 q 438 584 438 703 q 464 176 438 364 q 465 150 465 163 q 415 43 465 81 q 267 -1 358 0 m 394 1062 q 334 1088 361 1062 q 263 1163 302 1121 q 249 1171 256 1171 q 234 1162 241 1171 q 165 1088 206 1128 q 105 1062 138 1062 q 64 1078 80 1062 q 43 1125 43 1100 q 65 1181 43 1152 q 163 1291 109 1242 q 206 1322 186 1313 q 250 1332 225 1332 q 295 1322 277 1332 q 338 1291 313 1313 q 435 1181 391 1242 q 456 1126 456 1152 q 435 1078 456 1100 q 394 1062 419 1062 z "},"Ï":{"ha":526,"x_min":14,"x_max":518,"o":"m 283 -1 l 277 -1 q 144 32 195 -1 q 80 134 90 66 q 52 570 52 349 q 68 834 52 741 q 133 964 85 928 q 273 1001 181 1001 q 400 979 355 1001 q 459 923 446 956 q 473 857 473 890 q 470 821 473 840 q 454 584 454 703 q 480 176 454 364 q 481 150 481 163 q 431 43 481 81 q 283 -1 374 0 m 106 1078 q 14 1156 14 1078 q 110 1235 14 1235 q 178 1217 154 1235 q 203 1166 203 1198 q 106 1078 203 1078 m 422 1078 q 330 1156 330 1078 q 425 1235 330 1235 q 494 1217 469 1235 q 518 1166 518 1198 q 422 1078 518 1078 z "},"Ð":{"ha":1011,"x_min":-14,"x_max":979,"o":"m 508 406 q 559 435 538 406 q 579 508 579 464 q 555 583 579 553 q 508 603 538 603 q 465 579 475 603 q 463 570 463 574 q 473 558 463 561 q 510 536 500 551 q 521 496 521 522 q 510 452 521 466 q 479 435 499 439 q 470 425 470 433 q 474 416 470 420 q 508 406 484 406 m 283 -1 l 277 -1 q 142 33 195 -1 q 81 134 90 66 q 55 418 62 270 q 41 430 54 429 q 1 445 16 431 q -14 498 -14 458 q 40 556 -14 544 q 52 570 52 559 q 68 834 52 741 q 133 964 85 928 q 273 1001 180 1001 q 418 968 372 1001 q 445 960 432 960 q 461 963 452 960 q 578 985 516 985 q 805 927 716 985 q 937 763 894 870 q 979 501 979 655 q 766 37 979 140 q 585 0 691 0 q 465 24 522 0 q 431 32 446 32 q 398 23 416 32 q 283 -1 349 0 z "},"Ñ":{"ha":995,"x_min":35,"x_max":954,"o":"m 729 -1 q 585 36 631 -1 q 511 145 538 72 q 410 427 418 398 q 397 442 406 442 q 390 425 390 442 q 410 167 391 313 q 413 134 413 149 q 401 72 413 103 q 346 20 389 41 q 241 -1 304 -1 q 111 41 155 -1 q 51 179 66 82 q 35 444 35 276 q 60 876 35 670 q 236 1001 76 1001 q 374 956 328 1001 q 453 828 421 911 q 564 607 485 744 q 572 600 568 600 q 576 611 576 600 q 564 821 576 743 q 560 857 560 840 q 573 923 560 889 q 632 979 587 956 q 733 1001 677 1001 q 872 964 825 1001 q 937 834 920 928 q 954 570 954 741 q 926 134 954 349 q 864 33 916 66 q 729 -1 811 -1 m 574 1062 q 490 1093 526 1062 q 462 1120 475 1106 q 437 1143 450 1133 q 414 1152 425 1152 q 399 1137 400 1152 q 386 1080 398 1098 q 345 1062 373 1062 q 300 1077 312 1062 q 289 1121 289 1093 q 306 1208 289 1173 q 350 1262 322 1243 q 412 1280 378 1280 q 483 1262 456 1280 q 528 1223 509 1244 q 576 1190 558 1190 q 591 1205 590 1190 q 605 1262 592 1244 q 645 1280 617 1280 q 690 1265 678 1280 q 701 1221 701 1250 q 684 1133 701 1168 q 638 1080 667 1097 q 574 1062 609 1062 z "},"Ò":{"ha":924,"x_min":14,"x_max":892,"o":"m 421 406 q 476 444 455 406 q 492 517 492 473 q 468 597 492 566 q 421 619 451 619 q 370 589 390 619 q 351 513 351 559 q 376 428 351 460 q 421 406 393 406 m 453 0 q 124 127 235 0 q 14 500 14 254 q 62 767 14 654 q 208 940 110 879 q 453 1001 305 1001 q 699 940 601 1001 q 844 767 796 879 q 892 500 892 654 q 845 238 892 350 q 700 63 797 127 q 453 0 602 0 m 478 1062 q 418 1088 446 1062 q 279 1265 279 1228 q 307 1312 279 1287 q 350 1332 328 1332 q 422 1291 378 1332 q 519 1181 475 1242 q 541 1126 541 1152 q 519 1078 541 1100 q 478 1062 503 1062 z "},"Ó":{"ha":924,"x_min":14,"x_max":892,"o":"m 421 406 q 476 444 455 406 q 492 517 492 473 q 468 597 492 566 q 421 619 451 619 q 370 589 390 619 q 351 513 351 559 q 376 428 351 460 q 421 406 393 406 m 453 0 q 124 127 235 0 q 14 500 14 254 q 62 767 14 654 q 208 940 110 879 q 453 1001 305 1001 q 699 940 601 1001 q 844 767 796 879 q 892 500 892 654 q 845 238 892 350 q 700 63 797 127 q 453 0 602 0 m 428 1062 q 387 1078 403 1062 q 366 1126 366 1100 q 387 1181 366 1152 q 484 1291 431 1242 q 556 1332 528 1332 q 600 1312 578 1332 q 628 1265 628 1287 q 488 1088 628 1228 q 428 1062 460 1062 z "},"Ô":{"ha":924,"x_min":14,"x_max":892,"o":"m 421 406 q 476 444 455 406 q 492 517 492 473 q 468 597 492 566 q 421 619 451 619 q 370 589 390 619 q 351 513 351 559 q 376 428 351 460 q 421 406 393 406 m 453 0 q 124 127 235 0 q 14 500 14 254 q 62 767 14 654 q 208 940 110 879 q 453 1001 305 1001 q 699 940 601 1001 q 844 767 796 879 q 892 500 892 654 q 845 238 892 350 q 700 63 797 127 q 453 0 602 0 m 597 1062 q 537 1088 564 1062 q 466 1163 505 1121 q 452 1171 459 1171 q 437 1162 444 1171 q 368 1088 409 1128 q 308 1062 340 1062 q 267 1078 283 1062 q 246 1125 246 1100 q 268 1181 246 1152 q 366 1291 311 1242 q 409 1322 389 1313 q 452 1332 428 1332 q 498 1322 479 1332 q 541 1291 516 1313 q 637 1181 594 1242 q 659 1126 659 1152 q 638 1078 659 1100 q 597 1062 622 1062 z "},"Õ":{"ha":924,"x_min":14,"x_max":892,"o":"m 421 406 q 476 444 455 406 q 492 517 492 473 q 468 597 492 566 q 421 619 451 619 q 370 589 390 619 q 351 513 351 559 q 376 428 351 460 q 421 406 393 406 m 453 0 q 124 127 235 0 q 14 500 14 254 q 62 767 14 654 q 208 940 110 879 q 453 1001 305 1001 q 699 940 601 1001 q 844 767 796 879 q 892 500 892 654 q 845 238 892 350 q 700 63 797 127 q 453 0 602 0 m 532 1062 q 448 1093 484 1062 q 420 1120 433 1106 q 395 1143 408 1133 q 372 1152 383 1152 q 357 1137 358 1152 q 343 1080 356 1098 q 303 1062 331 1062 q 258 1077 270 1062 q 247 1121 247 1093 q 263 1208 247 1173 q 308 1262 280 1243 q 370 1280 336 1280 q 440 1262 414 1280 q 486 1223 467 1244 q 534 1190 516 1190 q 549 1205 548 1190 q 563 1262 550 1244 q 603 1280 575 1280 q 648 1265 636 1280 q 659 1221 659 1250 q 642 1133 659 1168 q 596 1080 625 1097 q 532 1062 567 1062 z "},"Ö":{"ha":924,"x_min":14,"x_max":892,"o":"m 421 406 q 476 444 455 406 q 492 517 492 473 q 468 597 492 566 q 421 619 451 619 q 370 589 390 619 q 351 513 351 559 q 376 428 351 460 q 421 406 393 406 m 453 0 q 124 127 235 0 q 14 500 14 254 q 62 767 14 654 q 208 940 110 879 q 453 1001 305 1001 q 699 940 601 1001 q 844 767 796 879 q 892 500 892 654 q 845 238 892 350 q 700 63 797 127 q 453 0 602 0 m 293 1078 q 201 1156 201 1078 q 296 1235 201 1235 q 365 1217 340 1235 q 389 1166 389 1198 q 293 1078 389 1078 m 608 1078 q 516 1156 516 1078 q 612 1235 516 1235 q 680 1217 656 1235 q 705 1166 705 1198 q 608 1078 705 1078 z "},"×":{"ha":597,"x_min":34,"x_max":563,"o":"m 151 245 q 85 277 121 245 q 50 344 50 309 q 86 427 50 377 q 133 487 106 455 q 141 506 141 496 q 125 536 141 520 l 81 578 q 34 661 34 624 q 66 725 34 690 q 133 760 98 760 q 269 684 180 760 q 300 669 287 669 q 322 680 310 669 l 360 712 q 462 764 420 764 q 528 732 496 764 q 563 665 563 695 q 519 584 563 627 l 466 532 q 456 513 456 523 q 465 492 456 503 q 534 409 513 440 q 553 349 553 381 q 522 283 553 315 q 453 248 484 248 q 373 292 417 248 q 324 340 340 326 q 302 353 311 353 q 282 342 292 353 l 231 292 q 151 245 184 245 z "},"Ø":{"ha":924,"x_min":14,"x_max":892,"o":"m 421 406 q 472 437 452 406 q 492 517 492 469 q 468 597 492 566 q 421 619 451 619 q 368 585 388 619 q 351 513 351 557 q 376 428 351 460 q 421 406 393 406 m 354 -128 q 278 -117 319 -128 q 154 82 158 -86 q 138 115 153 100 q 14 500 14 238 q 99 834 14 706 q 355 993 183 962 q 378 1010 374 996 q 387 1037 383 1025 q 531 1128 420 1128 q 599 1120 562 1128 q 724 1052 681 1102 q 753 976 753 1019 q 746 931 753 953 q 743 916 743 921 q 750 901 743 908 q 892 501 892 769 q 800 159 892 291 q 516 3 707 26 q 490 -22 496 1 q 413 -118 468 -98 q 354 -128 387 -128 z "},"Ù":{"ha":947,"x_min":26,"x_max":915,"o":"m 463 -1 q 115 160 222 -1 q 26 519 26 293 q 51 865 26 671 q 113 968 60 935 q 247 1001 165 1001 q 397 960 342 1001 q 452 850 452 920 q 447 789 452 833 q 429 570 429 643 q 448 443 429 486 q 494 406 465 406 q 557 595 557 406 q 535 840 557 682 q 533 871 533 857 q 711 1001 533 1001 q 809 985 770 1001 q 868 928 847 968 q 899 819 890 888 q 915 581 915 701 q 463 -1 915 -1 m 496 1062 q 436 1088 463 1062 q 296 1265 296 1228 q 324 1312 296 1287 q 368 1332 345 1332 q 439 1291 395 1332 q 536 1181 493 1242 q 558 1126 558 1152 q 537 1078 558 1100 q 496 1062 521 1062 z "},"Ú":{"ha":947,"x_min":26,"x_max":915,"o":"m 463 -1 q 115 160 222 -1 q 26 519 26 293 q 51 865 26 671 q 113 968 60 935 q 247 1001 165 1001 q 397 960 342 1001 q 452 850 452 920 q 447 789 452 833 q 429 570 429 643 q 448 443 429 486 q 494 406 465 406 q 557 595 557 406 q 535 840 557 682 q 533 871 533 857 q 711 1001 533 1001 q 809 985 770 1001 q 868 928 847 968 q 899 819 890 888 q 915 581 915 701 q 463 -1 915 -1 m 446 1062 q 404 1078 420 1062 q 384 1126 384 1100 q 405 1181 384 1152 q 502 1291 448 1242 q 574 1332 546 1332 q 617 1312 596 1332 q 646 1265 646 1287 q 505 1088 646 1228 q 446 1062 478 1062 z "},"Û":{"ha":947,"x_min":26,"x_max":915,"o":"m 463 -1 q 115 160 222 -1 q 26 519 26 293 q 51 865 26 671 q 113 968 60 935 q 247 1001 165 1001 q 397 960 342 1001 q 452 850 452 920 q 447 789 452 833 q 429 570 429 643 q 448 443 429 486 q 494 406 465 406 q 557 595 557 406 q 535 840 557 682 q 533 871 533 857 q 711 1001 533 1001 q 809 985 770 1001 q 868 928 847 968 q 899 819 890 888 q 915 581 915 701 q 463 -1 915 -1 m 614 1062 q 555 1088 582 1062 q 484 1163 523 1121 q 469 1171 477 1171 q 454 1162 462 1171 q 385 1088 427 1128 q 326 1062 358 1062 q 284 1078 300 1062 q 264 1125 264 1100 q 286 1181 264 1152 q 383 1291 329 1242 q 426 1322 407 1313 q 470 1332 446 1332 q 515 1322 497 1332 q 558 1291 534 1313 q 655 1181 612 1242 q 677 1126 677 1152 q 656 1078 677 1100 q 614 1062 640 1062 z "},"Ü":{"ha":947,"x_min":26,"x_max":915,"o":"m 463 -1 q 115 160 222 -1 q 26 519 26 293 q 51 865 26 671 q 113 968 60 935 q 247 1001 165 1001 q 397 960 342 1001 q 452 850 452 920 q 447 789 452 833 q 429 570 429 643 q 448 443 429 486 q 494 406 465 406 q 557 595 557 406 q 535 840 557 682 q 533 871 533 857 q 711 1001 533 1001 q 809 985 770 1001 q 868 928 847 968 q 899 819 890 888 q 915 581 915 701 q 463 -1 915 -1 m 311 1078 q 218 1156 218 1078 q 314 1235 218 1235 q 382 1217 358 1235 q 407 1166 407 1198 q 311 1078 407 1078 m 626 1078 q 534 1156 534 1078 q 629 1235 534 1235 q 698 1217 673 1235 q 722 1166 722 1198 q 626 1078 722 1078 z "},"Ý":{"ha":873,"x_min":4,"x_max":859,"o":"m 450 -1 q 293 42 352 -1 q 237 149 241 79 q 230 340 231 239 q 219 398 230 373 q 176 445 208 422 q 44 606 85 511 q 4 798 4 701 q 8 865 4 831 q 70 968 17 935 q 205 1001 123 1001 q 355 960 300 1001 q 410 850 410 920 q 407 805 410 830 q 404 751 404 781 q 416 663 404 699 q 452 631 427 631 q 485 662 474 631 q 497 728 496 696 l 498 766 q 492 840 498 804 q 490 871 490 857 q 668 1001 490 1001 q 766 985 728 1001 q 825 928 804 968 q 856 819 847 888 q 859 764 859 791 q 821 601 859 673 q 686 450 773 508 q 645 409 657 432 q 632 349 632 385 q 636 233 633 286 q 639 153 639 180 q 581 35 639 73 q 450 -1 528 -1 m 406 1062 q 365 1078 381 1062 q 345 1126 345 1100 q 366 1181 345 1152 q 463 1291 409 1242 q 534 1332 507 1332 q 578 1312 557 1332 q 606 1265 606 1287 q 466 1088 606 1228 q 406 1062 439 1062 z "},"Þ":{"ha":962,"x_min":35,"x_max":943,"o":"m 264 -1 q 126 33 178 -1 q 64 134 73 66 q 35 570 35 349 q 52 834 35 741 q 117 964 69 928 q 256 1001 164 1001 q 379 981 334 1001 q 440 927 425 960 q 455 857 455 895 l 455 836 q 461 829 455 829 q 470 831 465 829 q 484 836 475 833 q 615 857 546 857 q 793 818 720 857 q 905 705 866 778 q 943 535 943 633 q 809 250 943 347 q 480 146 686 161 q 465 132 467 145 q 401 33 456 66 q 264 -1 346 0 m 484 393 q 526 409 513 393 q 540 444 540 425 q 528 474 540 460 q 488 488 515 488 q 448 441 448 488 q 484 393 448 393 z "},"ß":{"ha":1236,"x_min":30,"x_max":1238,"o":"m 258 -1 q 121 33 174 -1 q 58 134 68 66 q 30 570 30 349 q 51 782 30 698 q 114 913 73 865 q 215 981 155 962 q 353 1001 275 1001 q 694 981 568 1001 q 876 910 821 961 q 931 768 931 860 q 921 696 931 729 q 899 635 910 663 q 880 570 880 589 q 911 530 880 547 q 989 495 942 513 q 1154 408 1093 455 q 1238 231 1238 340 q 899 0 1238 0 q 723 28 811 0 q 582 104 635 56 q 534 202 534 149 q 578 317 534 262 q 720 408 652 408 q 774 391 748 408 q 822 374 800 374 q 850 396 850 374 q 821 430 850 419 q 746 451 791 441 q 651 479 701 461 q 494 622 532 519 q 460 652 483 652 q 441 641 449 652 q 433 610 433 629 q 441 394 433 534 q 454 229 447 292 q 460 151 460 176 q 410 43 460 81 q 258 -1 352 0 z "},"à":{"ha":984,"x_min":-7,"x_max":945,"o":"m 475 477 q 537 524 537 477 q 519 574 537 553 q 477 595 502 595 q 438 576 454 595 q 422 531 422 557 q 475 477 422 477 m 724 -1 q 574 40 628 -1 q 520 150 520 81 l 520 177 q 476 211 520 211 q 435 174 435 211 q 437 159 435 168 q 439 130 439 144 q 375 20 439 51 q 261 -1 334 -1 q 135 33 178 -1 q 78 153 93 66 q 43 203 73 180 q -7 337 -7 241 q 33 452 -7 416 q 53 477 47 465 q 60 510 59 489 q 172 857 75 731 q 509 1001 283 1001 q 857 841 750 1001 q 945 481 945 707 q 920 134 945 324 q 859 33 911 66 q 724 -1 806 -1 m 534 1062 q 475 1088 502 1062 q 335 1265 335 1228 q 363 1312 335 1287 q 406 1332 384 1332 q 478 1291 434 1332 q 575 1181 532 1242 q 597 1126 597 1152 q 576 1078 597 1100 q 534 1062 559 1062 z "},"á":{"ha":984,"x_min":-7,"x_max":945,"o":"m 475 477 q 537 524 537 477 q 519 574 537 553 q 477 595 502 595 q 438 576 454 595 q 422 531 422 557 q 475 477 422 477 m 724 -1 q 574 40 628 -1 q 520 150 520 81 l 520 177 q 476 211 520 211 q 435 174 435 211 q 437 159 435 168 q 439 130 439 144 q 375 20 439 51 q 261 -1 334 -1 q 135 33 178 -1 q 78 153 93 66 q 43 203 73 180 q -7 337 -7 241 q 33 452 -7 416 q 53 477 47 465 q 60 510 59 489 q 172 857 75 731 q 509 1001 283 1001 q 857 841 750 1001 q 945 481 945 707 q 920 134 945 324 q 859 33 911 66 q 724 -1 806 -1 m 484 1062 q 443 1078 459 1062 q 422 1126 422 1100 q 444 1181 422 1152 q 541 1291 487 1242 q 612 1332 585 1332 q 656 1312 635 1332 q 684 1265 684 1287 q 544 1088 684 1228 q 484 1062 517 1062 z "},"â":{"ha":984,"x_min":-7,"x_max":945,"o":"m 475 477 q 537 524 537 477 q 519 574 537 553 q 477 595 502 595 q 438 576 454 595 q 422 531 422 557 q 475 477 422 477 m 724 -1 q 574 40 628 -1 q 520 150 520 81 l 520 177 q 476 211 520 211 q 435 174 435 211 q 437 159 435 168 q 439 130 439 144 q 375 20 439 51 q 261 -1 334 -1 q 135 33 178 -1 q 78 153 93 66 q 43 203 73 180 q -7 337 -7 241 q 33 452 -7 416 q 53 477 47 465 q 60 510 59 489 q 172 857 75 731 q 509 1001 283 1001 q 857 841 750 1001 q 945 481 945 707 q 920 134 945 324 q 859 33 911 66 q 724 -1 806 -1 m 653 1062 q 593 1088 621 1062 q 522 1163 562 1121 q 508 1171 515 1171 q 493 1162 500 1171 q 424 1088 465 1128 q 364 1062 397 1062 q 323 1078 339 1062 q 302 1125 302 1100 q 324 1181 302 1152 q 422 1291 368 1242 q 465 1322 446 1313 q 509 1332 484 1332 q 554 1322 536 1332 q 597 1291 572 1313 q 694 1181 650 1242 q 715 1126 715 1152 q 694 1078 715 1100 q 653 1062 678 1062 z "},"ã":{"ha":984,"x_min":-7,"x_max":945,"o":"m 475 477 q 537 524 537 477 q 519 574 537 553 q 477 595 502 595 q 438 576 454 595 q 422 531 422 557 q 475 477 422 477 m 724 -1 q 574 40 628 -1 q 520 150 520 81 l 520 177 q 476 211 520 211 q 435 174 435 211 q 437 159 435 168 q 439 130 439 144 q 375 20 439 51 q 261 -1 334 -1 q 135 33 178 -1 q 78 153 93 66 q 43 203 73 180 q -7 337 -7 241 q 33 452 -7 416 q 53 477 47 465 q 60 510 59 489 q 172 857 75 731 q 509 1001 283 1001 q 857 841 750 1001 q 945 481 945 707 q 920 134 945 324 q 859 33 911 66 q 724 -1 806 -1 m 588 1062 q 504 1093 540 1062 q 476 1120 489 1106 q 452 1143 464 1133 q 428 1152 439 1152 q 414 1137 414 1152 q 400 1080 412 1098 q 359 1062 387 1062 q 315 1077 326 1062 q 303 1121 303 1093 q 320 1208 303 1173 q 364 1262 336 1243 q 427 1280 392 1280 q 497 1262 470 1280 q 542 1223 524 1244 q 591 1190 572 1190 q 605 1205 604 1190 q 619 1262 606 1244 q 659 1280 631 1280 q 704 1265 692 1280 q 715 1221 715 1250 q 699 1133 715 1168 q 652 1080 682 1097 q 588 1062 623 1062 z "},"ä":{"ha":984,"x_min":-7,"x_max":945,"o":"m 475 477 q 537 524 537 477 q 519 574 537 553 q 477 595 502 595 q 438 576 454 595 q 422 531 422 557 q 475 477 422 477 m 724 -1 q 574 40 628 -1 q 520 150 520 81 l 520 177 q 476 211 520 211 q 435 174 435 211 q 437 159 435 168 q 439 130 439 144 q 375 20 439 51 q 261 -1 334 -1 q 135 33 178 -1 q 78 153 93 66 q 43 203 73 180 q -7 337 -7 241 q 33 452 -7 416 q 53 477 47 465 q 60 510 59 489 q 172 857 75 731 q 509 1001 283 1001 q 857 841 750 1001 q 945 481 945 707 q 920 134 945 324 q 859 33 911 66 q 724 -1 806 -1 m 349 1078 q 257 1156 257 1078 q 353 1235 257 1235 q 421 1217 397 1235 q 446 1166 446 1198 q 349 1078 446 1078 m 665 1078 q 572 1156 572 1078 q 668 1235 572 1235 q 736 1217 712 1235 q 761 1166 761 1198 q 665 1078 761 1078 z "},"å":{"ha":984,"x_min":-7,"x_max":945,"o":"m 475 477 q 537 524 537 477 q 519 574 537 553 q 477 595 502 595 q 438 576 454 595 q 422 531 422 557 q 475 477 422 477 m 724 -1 q 574 40 628 -1 q 520 150 520 81 l 520 177 q 476 211 520 211 q 435 174 435 211 q 437 159 435 168 q 439 130 439 144 q 375 20 439 51 q 261 -1 334 -1 q 135 33 178 -1 q 78 153 93 66 q 43 203 73 180 q -7 337 -7 241 q 33 452 -7 416 q 53 477 47 465 q 60 510 59 489 q 172 857 75 731 q 509 1001 283 1001 q 857 841 750 1001 q 945 481 945 707 q 920 134 945 324 q 859 33 911 66 q 724 -1 806 -1 m 509 1029 q 428 1051 460 1029 q 378 1107 395 1073 q 362 1178 362 1141 q 378 1252 362 1217 q 427 1310 394 1287 q 509 1332 460 1332 q 615 1290 574 1332 q 656 1181 656 1248 q 604 1061 656 1107 q 509 1029 568 1029 m 509 1101 q 560 1126 542 1101 q 578 1185 578 1151 q 562 1237 578 1214 q 509 1260 545 1260 q 457 1236 474 1260 q 439 1181 439 1212 q 457 1125 439 1149 q 509 1101 474 1101 z "},"æ":{"ha":1255,"x_min":-7,"x_max":1243,"o":"m 727 -1 q 585 33 642 -1 q 527 134 527 66 q 475 211 527 211 q 435 173 435 211 l 435 124 q 260 -1 435 -1 q 135 33 177 -1 q 77 153 92 66 q 42 203 73 180 q -7 337 -7 241 q 33 452 -7 416 q 53 477 47 466 q 60 510 58 489 q 174 867 77 757 q 393 981 250 953 q 644 1001 499 1001 q 965 986 834 1001 q 1164 931 1097 970 q 1232 817 1232 891 q 1210 714 1232 751 q 1154 667 1187 677 q 1086 656 1120 656 q 1025 663 1060 656 q 955 671 980 671 q 898 635 898 671 q 915 607 898 612 q 953 601 932 601 q 1010 606 976 601 q 1056 612 1042 612 q 1156 500 1156 612 q 1131 423 1156 447 q 1112 409 1122 415 q 992 386 1075 387 q 948 384 968 386 q 905 353 905 379 q 923 327 905 332 q 959 323 941 323 q 1035 331 987 323 q 1098 337 1072 337 q 1158 328 1131 337 q 1243 177 1243 302 q 1198 65 1243 104 q 1041 13 1153 27 q 727 -1 930 -1 m 465 477 q 500 536 500 477 q 471 595 500 595 q 435 576 449 595 q 421 531 421 557 q 465 477 421 477 z "},"ç":{"ha":878,"x_min":15,"x_max":865,"o":"m 363 -322 q 323 -312 337 -322 q 309 -270 309 -301 q 375 -220 309 -220 q 435 -199 420 -220 q 442 -178 442 -189 q 364 -111 442 -135 q 316 -61 316 -95 q 322 -34 316 -46 q 336 -4 336 -7 q 324 8 336 6 q 144 96 212 30 q 15 488 15 222 q 123 854 15 716 q 454 1001 238 1001 q 621 977 549 1001 q 823 820 759 928 q 865 664 865 745 q 757 511 865 565 q 651 483 699 483 q 565 530 596 483 q 525 581 541 566 q 486 595 510 595 q 442 573 459 595 q 415 484 415 538 q 439 404 415 435 q 486 382 456 382 q 519 391 505 382 q 572 408 545 408 q 715 317 643 408 q 759 202 759 262 q 710 104 759 147 q 480 3 618 25 q 459 -12 459 0 q 460 -20 459 -13 q 479 -39 461 -28 q 548 -100 524 -64 q 572 -176 572 -136 q 550 -246 572 -213 q 481 -301 528 -279 q 363 -322 435 -322 z "},"è":{"ha":786,"x_min":30,"x_max":774,"o":"m 258 -1 q 122 32 174 -1 q 58 134 68 66 q 30 570 30 349 q 47 834 30 741 q 112 964 64 928 q 251 1001 159 1001 q 531 986 416 1001 q 704 931 645 970 q 764 817 764 891 q 741 714 764 751 q 685 667 719 677 q 617 656 651 656 q 557 663 591 656 q 486 671 511 671 q 429 635 429 671 q 446 607 429 612 q 484 601 464 601 q 542 607 506 601 q 587 612 571 612 q 654 593 628 612 q 687 500 687 568 q 661 423 687 447 q 598 393 635 399 q 524 387 561 387 q 479 384 499 386 q 448 375 460 382 q 436 353 436 368 q 454 327 436 332 q 490 323 472 323 q 566 331 519 323 q 629 337 602 337 q 774 177 774 337 q 729 65 774 104 q 573 13 684 27 q 258 -1 461 -1 m 429 1062 q 369 1088 396 1062 q 229 1265 229 1228 q 257 1312 229 1287 q 300 1332 278 1332 q 372 1291 328 1332 q 469 1181 426 1242 q 491 1126 491 1152 q 470 1078 491 1100 q 429 1062 454 1062 z "},"é":{"ha":786,"x_min":30,"x_max":774,"o":"m 258 -1 q 122 32 174 -1 q 58 134 68 66 q 30 570 30 349 q 47 834 30 741 q 112 964 64 928 q 251 1001 159 1001 q 531 986 416 1001 q 704 931 645 970 q 764 817 764 891 q 741 714 764 751 q 685 667 719 677 q 617 656 651 656 q 557 663 591 656 q 486 671 511 671 q 429 635 429 671 q 446 607 429 612 q 484 601 464 601 q 542 607 506 601 q 587 612 571 612 q 654 593 628 612 q 687 500 687 568 q 661 423 687 447 q 598 393 635 399 q 524 387 561 387 q 479 384 499 386 q 448 375 460 382 q 436 353 436 368 q 454 327 436 332 q 490 323 472 323 q 566 331 519 323 q 629 337 602 337 q 774 177 774 337 q 729 65 774 104 q 573 13 684 27 q 258 -1 461 -1 m 378 1062 q 337 1078 353 1062 q 317 1126 317 1100 q 338 1181 317 1152 q 435 1291 381 1242 q 507 1332 479 1332 q 550 1312 529 1332 q 578 1265 578 1287 q 438 1088 578 1228 q 378 1062 411 1062 z "},"ê":{"ha":786,"x_min":30,"x_max":774,"o":"m 258 -1 q 122 32 174 -1 q 58 134 68 66 q 30 570 30 349 q 47 834 30 741 q 112 964 64 928 q 251 1001 159 1001 q 531 986 416 1001 q 704 931 645 970 q 764 817 764 891 q 741 714 764 751 q 685 667 719 677 q 617 656 651 656 q 557 663 591 656 q 486 671 511 671 q 429 635 429 671 q 446 607 429 612 q 484 601 464 601 q 542 607 506 601 q 587 612 571 612 q 654 593 628 612 q 687 500 687 568 q 661 423 687 447 q 598 393 635 399 q 524 387 561 387 q 479 384 499 386 q 448 375 460 382 q 436 353 436 368 q 454 327 436 332 q 490 323 472 323 q 566 331 519 323 q 629 337 602 337 q 774 177 774 337 q 729 65 774 104 q 573 13 684 27 q 258 -1 461 -1 m 547 1062 q 488 1088 515 1062 q 416 1163 456 1121 q 402 1171 410 1171 q 387 1162 395 1171 q 318 1088 359 1128 q 258 1062 291 1062 q 217 1078 233 1062 q 197 1125 197 1100 q 218 1181 197 1152 q 316 1291 262 1242 q 359 1322 340 1313 q 403 1332 378 1332 q 448 1322 430 1332 q 491 1291 467 1313 q 588 1181 545 1242 q 610 1126 610 1152 q 589 1078 610 1100 q 547 1062 572 1062 z "},"ë":{"ha":786,"x_min":30,"x_max":774,"o":"m 258 -1 q 122 32 174 -1 q 58 134 68 66 q 30 570 30 349 q 47 834 30 741 q 112 964 64 928 q 251 1001 159 1001 q 531 986 416 1001 q 704 931 645 970 q 764 817 764 891 q 741 714 764 751 q 685 667 719 677 q 617 656 651 656 q 557 663 591 656 q 486 671 511 671 q 429 635 429 671 q 446 607 429 612 q 484 601 464 601 q 542 607 506 601 q 587 612 571 612 q 654 593 628 612 q 687 500 687 568 q 661 423 687 447 q 598 393 635 399 q 524 387 561 387 q 479 384 499 386 q 448 375 460 382 q 436 353 436 368 q 454 327 436 332 q 490 323 472 323 q 566 331 519 323 q 629 337 602 337 q 774 177 774 337 q 729 65 774 104 q 573 13 684 27 q 258 -1 461 -1 m 243 1078 q 151 1156 151 1078 q 247 1235 151 1235 q 315 1217 291 1235 q 340 1166 340 1198 q 243 1078 340 1078 m 559 1078 q 467 1156 467 1078 q 562 1235 467 1235 q 631 1217 606 1235 q 655 1166 655 1198 q 559 1078 655 1078 z "},"ì":{"ha":498,"x_min":30,"x_max":460,"o":"m 262 -1 l 255 -1 q 122 32 174 -1 q 58 134 68 66 q 30 570 30 349 q 47 834 30 741 q 112 964 64 928 q 251 1001 159 1001 q 379 979 334 1001 q 437 923 424 956 q 451 857 451 890 q 448 821 451 840 q 433 584 433 703 q 458 176 433 364 q 460 150 460 163 q 410 43 460 81 q 262 -1 353 0 m 281 1062 q 222 1088 249 1062 q 82 1265 82 1228 q 110 1312 82 1287 q 153 1332 131 1332 q 225 1291 181 1332 q 322 1181 279 1242 q 344 1126 344 1152 q 323 1078 344 1100 q 281 1062 307 1062 z "},"í":{"ha":498,"x_min":30,"x_max":460,"o":"m 262 -1 l 255 -1 q 122 32 174 -1 q 58 134 68 66 q 30 570 30 349 q 47 834 30 741 q 112 964 64 928 q 251 1001 159 1001 q 379 979 334 1001 q 437 923 424 956 q 451 857 451 890 q 448 821 451 840 q 433 584 433 703 q 458 176 433 364 q 460 150 460 163 q 410 43 460 81 q 262 -1 353 0 m 231 1062 q 190 1078 206 1062 q 170 1126 170 1100 q 191 1181 170 1152 q 288 1291 234 1242 q 359 1332 332 1332 q 403 1312 382 1332 q 431 1265 431 1287 q 291 1088 431 1228 q 231 1062 264 1062 z "},"î":{"ha":501,"x_min":30,"x_max":463,"o":"m 262 -1 l 255 -1 q 122 32 174 -1 q 58 134 68 66 q 30 570 30 349 q 47 834 30 741 q 112 964 64 928 q 251 1001 159 1001 q 379 979 334 1001 q 437 923 424 956 q 451 857 451 890 q 448 821 451 840 q 433 584 433 703 q 458 176 433 364 q 460 150 460 163 q 410 43 460 81 q 262 -1 353 0 m 400 1062 q 340 1088 368 1062 q 269 1163 309 1121 q 255 1171 262 1171 q 240 1162 248 1171 q 171 1088 212 1128 q 111 1062 144 1062 q 70 1078 86 1062 q 50 1125 50 1100 q 71 1181 50 1152 q 169 1291 115 1242 q 212 1322 193 1313 q 256 1332 231 1332 q 301 1322 283 1332 q 344 1291 319 1313 q 441 1181 397 1242 q 463 1126 463 1152 q 441 1078 463 1100 q 400 1062 425 1062 z "},"ï":{"ha":528,"x_min":30,"x_max":534,"o":"m 288 -1 l 281 -1 q 148 32 199 -1 q 84 134 94 66 q 56 570 56 349 q 73 834 56 741 q 137 964 90 928 q 277 1001 185 1001 q 405 979 359 1001 q 463 923 450 956 q 477 857 477 890 q 474 821 477 840 q 458 584 458 703 q 484 176 458 364 q 486 150 486 163 q 435 43 486 81 q 288 -1 378 0 m 122 1078 q 30 1156 30 1078 q 125 1235 30 1235 q 194 1217 170 1235 q 218 1166 218 1198 q 122 1078 218 1078 m 437 1078 q 345 1156 345 1078 q 441 1235 345 1235 q 509 1217 485 1235 q 534 1166 534 1198 q 437 1078 534 1078 z "},"ð":{"ha":1010,"x_min":-14,"x_max":980,"o":"m 509 406 q 559 435 539 406 q 580 508 580 464 q 555 583 580 553 q 509 603 538 603 q 465 579 475 603 q 463 570 463 574 q 473 558 463 561 q 511 536 500 551 q 522 496 522 522 q 511 452 522 466 q 480 435 500 439 q 471 425 471 433 q 475 416 471 420 q 509 406 485 406 m 284 -1 l 278 -1 q 143 33 196 -1 q 81 134 90 66 q 56 418 63 270 q 42 430 55 429 q 2 445 17 431 q -14 498 -14 458 q 41 556 -14 544 q 52 570 52 559 q 69 834 52 741 q 134 964 86 928 q 273 1001 181 1001 q 419 968 373 1001 q 446 960 433 960 q 462 963 453 960 q 578 985 517 985 q 806 927 717 985 q 937 763 895 870 q 980 501 980 655 q 767 37 980 140 q 585 0 692 0 q 465 24 522 0 q 431 32 446 32 q 399 23 417 32 q 284 -1 349 0 z "},"ñ":{"ha":987,"x_min":30,"x_max":949,"o":"m 724 -1 q 579 36 626 -1 q 506 145 532 72 q 405 427 413 398 q 391 442 400 442 q 385 425 385 442 q 405 167 386 313 q 408 134 408 149 q 395 72 408 103 q 341 20 383 41 q 235 -1 298 -1 q 105 41 150 -1 q 45 179 61 82 q 30 444 30 276 q 55 876 30 670 q 231 1001 71 1001 q 369 956 322 1001 q 448 828 416 911 q 558 607 479 744 q 567 600 562 600 q 571 611 571 600 q 558 821 571 743 q 555 857 555 840 q 568 923 555 889 q 627 979 581 956 q 728 1001 672 1001 q 867 964 819 1001 q 932 834 915 928 q 949 570 949 741 q 920 134 949 349 q 858 33 911 66 q 724 -1 806 -1 m 568 1062 q 484 1093 520 1062 q 457 1120 469 1106 q 432 1143 444 1133 q 408 1152 420 1152 q 394 1137 395 1152 q 380 1080 393 1098 q 340 1062 368 1062 q 295 1077 307 1062 q 283 1121 283 1093 q 300 1208 283 1173 q 345 1262 317 1243 q 407 1280 372 1280 q 477 1262 450 1280 q 522 1223 504 1244 q 571 1190 553 1190 q 585 1205 585 1190 q 599 1262 587 1244 q 640 1280 612 1280 q 684 1265 673 1280 q 696 1221 696 1250 q 679 1133 696 1168 q 633 1080 662 1097 q 568 1062 604 1062 z "},"ò":{"ha":923,"x_min":15,"x_max":893,"o":"m 422 406 q 477 444 456 406 q 493 517 493 473 q 469 597 493 566 q 422 619 452 619 q 371 589 391 619 q 351 513 351 559 q 376 428 351 460 q 422 406 393 406 m 454 0 q 125 127 235 0 q 15 500 15 254 q 63 767 15 654 q 208 940 111 879 q 454 1001 306 1001 q 699 940 602 1001 q 845 767 797 879 q 893 500 893 654 q 845 238 893 350 q 700 63 798 127 q 454 0 603 0 m 479 1062 q 420 1088 447 1062 q 280 1265 280 1228 q 308 1312 280 1287 q 351 1332 329 1332 q 423 1291 379 1332 q 520 1181 477 1242 q 542 1126 542 1152 q 521 1078 542 1100 q 479 1062 505 1062 z "},"ó":{"ha":923,"x_min":15,"x_max":893,"o":"m 422 406 q 477 444 456 406 q 493 517 493 473 q 469 597 493 566 q 422 619 452 619 q 371 589 391 619 q 351 513 351 559 q 376 428 351 460 q 422 406 393 406 m 454 0 q 125 127 235 0 q 15 500 15 254 q 63 767 15 654 q 208 940 111 879 q 454 1001 306 1001 q 699 940 602 1001 q 845 767 797 879 q 893 500 893 654 q 845 238 893 350 q 700 63 798 127 q 454 0 603 0 m 429 1062 q 388 1078 404 1062 q 368 1126 368 1100 q 389 1181 368 1152 q 486 1291 432 1242 q 557 1332 530 1332 q 601 1312 580 1332 q 629 1265 629 1287 q 489 1088 629 1228 q 429 1062 462 1062 z "},"ô":{"ha":923,"x_min":15,"x_max":893,"o":"m 422 406 q 477 444 456 406 q 493 517 493 473 q 469 597 493 566 q 422 619 452 619 q 371 589 391 619 q 351 513 351 559 q 376 428 351 460 q 422 406 393 406 m 454 0 q 125 127 235 0 q 15 500 15 254 q 63 767 15 654 q 208 940 111 879 q 454 1001 306 1001 q 699 940 602 1001 q 845 767 797 879 q 893 500 893 654 q 845 238 893 350 q 700 63 798 127 q 454 0 603 0 m 598 1062 q 538 1088 566 1062 q 467 1163 507 1121 q 453 1171 460 1171 q 438 1162 446 1171 q 369 1088 410 1128 q 309 1062 342 1062 q 268 1078 284 1062 q 248 1125 248 1100 q 269 1181 248 1152 q 367 1291 313 1242 q 410 1322 391 1313 q 454 1332 429 1332 q 499 1322 481 1332 q 542 1291 517 1313 q 639 1181 595 1242 q 661 1126 661 1152 q 640 1078 661 1100 q 598 1062 623 1062 z "},"õ":{"ha":923,"x_min":15,"x_max":893,"o":"m 422 406 q 477 444 456 406 q 493 517 493 473 q 469 597 493 566 q 422 619 452 619 q 371 589 391 619 q 351 513 351 559 q 376 428 351 460 q 422 406 393 406 m 454 0 q 125 127 235 0 q 15 500 15 254 q 63 767 15 654 q 208 940 111 879 q 454 1001 306 1001 q 699 940 602 1001 q 845 767 797 879 q 893 500 893 654 q 845 238 893 350 q 700 63 798 127 q 454 0 603 0 m 533 1062 q 449 1093 485 1062 q 421 1120 434 1106 q 397 1143 409 1133 q 373 1152 385 1152 q 359 1137 359 1152 q 345 1080 357 1098 q 304 1062 332 1062 q 260 1077 271 1062 q 248 1121 248 1093 q 265 1208 248 1173 q 309 1262 281 1243 q 372 1280 337 1280 q 442 1262 415 1280 q 487 1223 469 1244 q 536 1190 517 1190 q 550 1205 549 1190 q 564 1262 551 1244 q 604 1280 576 1280 q 649 1265 637 1280 q 661 1221 661 1250 q 644 1133 661 1168 q 597 1080 627 1097 q 533 1062 568 1062 z "},"ö":{"ha":923,"x_min":15,"x_max":893,"o":"m 422 406 q 477 444 456 406 q 493 517 493 473 q 469 597 493 566 q 422 619 452 619 q 371 589 391 619 q 351 513 351 559 q 376 428 351 460 q 422 406 393 406 m 454 0 q 125 127 235 0 q 15 500 15 254 q 63 767 15 654 q 208 940 111 879 q 454 1001 306 1001 q 699 940 602 1001 q 845 767 797 879 q 893 500 893 654 q 845 238 893 350 q 700 63 798 127 q 454 0 603 0 m 294 1078 q 202 1156 202 1078 q 298 1235 202 1235 q 366 1217 342 1235 q 391 1166 391 1198 q 294 1078 391 1078 m 610 1078 q 517 1156 517 1078 q 613 1235 517 1235 q 682 1217 657 1235 q 706 1166 706 1198 q 610 1078 706 1078 z "},"÷":{"ha":701,"x_min":34,"x_max":667,"o":"m 343 400 q 140 412 212 400 q 55 447 79 422 q 34 509 34 469 q 89 605 34 591 q 148 611 114 611 q 353 609 248 611 q 556 606 492 606 q 616 600 591 606 q 667 509 667 584 q 639 435 667 458 q 343 400 595 400 m 353 62 q 226 97 266 62 q 186 201 186 132 q 203 269 186 239 q 338 334 238 334 q 472 297 431 334 q 514 182 514 260 q 472 94 514 126 q 353 62 429 62 m 362 677 q 228 714 270 677 q 186 829 186 751 q 229 917 186 885 q 347 949 271 949 q 474 915 435 949 q 514 810 514 880 q 498 743 514 772 q 362 677 463 677 z "},"ø":{"ha":923,"x_min":15,"x_max":893,"o":"m 422 406 q 473 437 452 406 q 493 517 493 469 q 469 597 493 566 q 422 619 452 619 q 368 585 389 619 q 351 513 351 557 q 376 428 351 460 q 422 406 393 406 m 355 -128 q 279 -117 320 -128 q 155 82 159 -86 q 139 115 154 100 q 15 500 15 238 q 99 834 15 706 q 356 993 184 962 q 379 1010 374 996 q 388 1037 384 1025 q 532 1128 421 1128 q 600 1120 563 1128 q 725 1052 682 1102 q 753 976 753 1019 q 747 931 753 953 q 743 916 743 921 q 751 901 743 908 q 893 501 893 769 q 800 159 893 291 q 517 3 707 26 q 491 -22 497 1 q 414 -118 469 -98 q 355 -128 387 -128 z "},"ù":{"ha":945,"x_min":26,"x_max":916,"o":"m 463 -1 q 116 160 223 -1 q 26 519 26 293 q 52 865 26 671 q 113 968 60 935 q 248 1001 166 1001 q 398 960 343 1001 q 452 850 452 920 q 448 789 452 833 q 429 570 429 643 q 448 443 429 486 q 495 406 465 406 q 558 595 558 406 q 536 840 558 682 q 534 871 534 857 q 711 1001 534 1001 q 809 985 771 1001 q 869 928 848 968 q 900 819 890 888 q 916 581 916 701 q 463 -1 916 -1 m 496 1062 q 437 1088 464 1062 q 297 1265 297 1228 q 325 1312 297 1287 q 368 1332 346 1332 q 440 1291 396 1332 q 537 1181 494 1242 q 559 1126 559 1152 q 538 1078 559 1100 q 496 1062 522 1062 z "},"ú":{"ha":945,"x_min":26,"x_max":916,"o":"m 463 -1 q 116 160 223 -1 q 26 519 26 293 q 52 865 26 671 q 113 968 60 935 q 248 1001 166 1001 q 398 960 343 1001 q 452 850 452 920 q 448 789 452 833 q 429 570 429 643 q 448 443 429 486 q 495 406 465 406 q 558 595 558 406 q 536 840 558 682 q 534 871 534 857 q 711 1001 534 1001 q 809 985 771 1001 q 869 928 848 968 q 900 819 890 888 q 916 581 916 701 q 463 -1 916 -1 m 446 1062 q 405 1078 421 1062 q 385 1126 385 1100 q 406 1181 385 1152 q 503 1291 449 1242 q 574 1332 547 1332 q 618 1312 597 1332 q 646 1265 646 1287 q 506 1088 646 1228 q 446 1062 479 1062 z "},"û":{"ha":945,"x_min":26,"x_max":916,"o":"m 463 -1 q 116 160 223 -1 q 26 519 26 293 q 52 865 26 671 q 113 968 60 935 q 248 1001 166 1001 q 398 960 343 1001 q 452 850 452 920 q 448 789 452 833 q 429 570 429 643 q 448 443 429 486 q 495 406 465 406 q 558 595 558 406 q 536 840 558 682 q 534 871 534 857 q 711 1001 534 1001 q 809 985 771 1001 q 869 928 848 968 q 900 819 890 888 q 916 581 916 701 q 463 -1 916 -1 m 615 1062 q 555 1088 583 1062 q 484 1163 524 1121 q 470 1171 477 1171 q 455 1162 463 1171 q 386 1088 427 1128 q 326 1062 359 1062 q 285 1078 301 1062 q 264 1125 264 1100 q 286 1181 264 1152 q 384 1291 330 1242 q 427 1322 408 1313 q 471 1332 446 1332 q 516 1322 498 1332 q 559 1291 534 1313 q 656 1181 612 1242 q 677 1126 677 1152 q 656 1078 677 1100 q 615 1062 640 1062 z "},"ü":{"ha":945,"x_min":26,"x_max":916,"o":"m 463 -1 q 116 160 223 -1 q 26 519 26 293 q 52 865 26 671 q 113 968 60 935 q 248 1001 166 1001 q 398 960 343 1001 q 452 850 452 920 q 448 789 452 833 q 429 570 429 643 q 448 443 429 486 q 495 406 465 406 q 558 595 558 406 q 536 840 558 682 q 534 871 534 857 q 711 1001 534 1001 q 809 985 771 1001 q 869 928 848 968 q 900 819 890 888 q 916 581 916 701 q 463 -1 916 -1 m 311 1078 q 219 1156 219 1078 q 315 1235 219 1235 q 383 1217 359 1235 q 408 1166 408 1198 q 311 1078 408 1078 m 627 1078 q 534 1156 534 1078 q 630 1235 534 1235 q 699 1217 674 1235 q 723 1166 723 1198 q 627 1078 723 1078 z "},"ý":{"ha":872,"x_min":5,"x_max":860,"o":"m 451 -1 q 294 42 353 -1 q 237 149 242 79 q 231 340 231 239 q 220 398 231 373 q 177 445 209 422 q 45 606 85 511 q 5 798 5 701 q 9 865 5 831 q 71 968 18 935 q 205 1001 123 1001 q 356 960 301 1001 q 410 850 410 920 q 407 805 410 830 q 404 751 404 781 q 416 663 404 699 q 452 631 427 631 q 486 662 475 631 q 498 728 497 696 l 498 766 q 493 840 498 804 q 491 871 491 857 q 669 1001 491 1001 q 766 985 728 1001 q 826 928 804 968 q 857 819 848 888 q 860 764 860 791 q 822 601 860 673 q 686 450 774 508 q 645 409 658 432 q 633 349 633 385 q 637 233 634 286 q 640 153 640 180 q 582 35 640 73 q 451 -1 529 -1 m 407 1062 q 366 1078 382 1062 q 345 1126 345 1100 q 366 1181 345 1152 q 463 1291 410 1242 q 535 1332 507 1332 q 578 1312 557 1332 q 607 1265 607 1287 q 467 1088 607 1228 q 407 1062 439 1062 z "},"þ":{"ha":955,"x_min":30,"x_max":938,"o":"m 258 -1 q 120 33 173 -1 q 59 134 68 66 q 30 570 30 349 q 47 834 30 741 q 111 964 64 928 q 251 1001 159 1001 q 374 981 329 1001 q 434 927 419 960 q 450 857 450 895 l 450 836 q 456 829 450 829 q 465 831 460 829 q 478 836 469 833 q 610 857 541 857 q 787 818 714 857 q 899 705 861 778 q 938 535 938 633 q 804 250 938 347 q 475 146 681 161 q 459 132 461 145 q 395 33 450 66 q 258 -1 340 0 m 479 393 q 521 409 507 393 q 534 444 534 425 q 522 474 534 460 q 483 488 510 488 q 443 441 443 488 q 479 393 443 393 z "},"ÿ":{"ha":872,"x_min":5,"x_max":860,"o":"m 451 -1 q 294 42 353 -1 q 237 149 242 79 q 231 340 231 239 q 220 398 231 373 q 177 445 209 422 q 45 606 85 511 q 5 798 5 701 q 9 865 5 831 q 71 968 18 935 q 205 1001 123 1001 q 356 960 301 1001 q 410 850 410 920 q 407 805 410 830 q 404 751 404 781 q 416 663 404 699 q 452 631 427 631 q 486 662 475 631 q 498 728 497 696 l 498 766 q 493 840 498 804 q 491 871 491 857 q 669 1001 491 1001 q 766 985 728 1001 q 826 928 804 968 q 857 819 848 888 q 860 764 860 791 q 822 601 860 673 q 686 450 774 508 q 645 409 658 432 q 633 349 633 385 q 637 233 634 286 q 640 153 640 180 q 582 35 640 73 q 451 -1 529 -1 m 272 1078 q 180 1156 180 1078 q 275 1235 180 1235 q 344 1217 319 1235 q 368 1166 368 1198 q 272 1078 368 1078 m 587 1078 q 495 1156 495 1078 q 591 1235 495 1235 q 659 1217 635 1235 q 684 1166 684 1198 q 587 1078 684 1078 z "},"ı":{"ha":498,"x_min":30,"x_max":460,"o":"m 262 -1 l 255 -1 q 122 32 174 -1 q 58 134 68 66 q 30 570 30 349 q 47 834 30 741 q 112 964 64 928 q 251 1001 159 1001 q 379 979 334 1001 q 437 923 424 956 q 451 857 451 890 q 448 821 451 840 q 433 584 433 703 q 458 176 433 364 q 460 150 460 163 q 410 43 460 81 q 262 -1 353 0 z "},"̀":{"ha":330,"x_min":34,"x_max":296,"o":"m 233 1062 q 174 1088 201 1062 q 34 1265 34 1228 q 62 1312 34 1287 q 105 1332 83 1332 q 177 1291 133 1332 q 274 1181 231 1242 q 296 1126 296 1152 q 275 1078 296 1100 q 233 1062 258 1062 z "},"́":{"ha":330,"x_min":34,"x_max":296,"o":"m 96 1062 q 54 1078 71 1062 q 34 1126 34 1100 q 55 1181 34 1152 q 152 1291 98 1242 q 224 1332 196 1332 q 267 1312 246 1332 q 296 1265 296 1287 q 155 1088 296 1228 q 96 1062 128 1062 z "},"̂":{"ha":481,"x_min":34,"x_max":447,"o":"m 385 1062 q 325 1088 352 1062 q 254 1163 293 1121 q 239 1171 247 1171 q 224 1162 232 1171 q 155 1088 197 1128 q 96 1062 128 1062 q 54 1078 71 1062 q 34 1125 34 1100 q 56 1181 34 1152 q 153 1291 99 1242 q 196 1322 177 1313 q 240 1332 216 1332 q 286 1322 267 1332 q 328 1291 304 1313 q 425 1181 382 1242 q 447 1126 447 1152 q 426 1078 447 1100 q 385 1062 410 1062 z "},"̃":{"ha":480,"x_min":34,"x_max":446,"o":"m 319 1062 q 235 1093 271 1062 q 207 1120 220 1106 q 182 1143 195 1133 q 159 1152 170 1152 q 144 1137 145 1152 q 131 1080 143 1098 q 90 1062 118 1062 q 45 1077 57 1062 q 34 1121 34 1093 q 51 1208 34 1173 q 95 1262 67 1243 q 157 1280 123 1280 q 228 1262 201 1280 q 273 1223 254 1244 q 321 1190 303 1190 q 336 1205 335 1190 q 350 1262 337 1244 q 390 1280 362 1280 q 435 1265 423 1280 q 446 1221 446 1250 q 429 1133 446 1168 q 383 1080 412 1097 q 319 1062 354 1062 z "},"̄":{"ha":480,"x_min":34,"x_max":446,"o":"m 192 1078 l 111 1079 q 55 1092 76 1079 q 34 1148 34 1105 q 50 1194 34 1178 q 230 1224 79 1223 q 352 1221 296 1224 q 425 1203 404 1219 q 446 1145 446 1187 q 428 1097 446 1111 q 373 1082 409 1083 q 192 1078 283 1078 z "},"̇":{"ha":256,"x_min":34,"x_max":222,"o":"m 126 1078 q 34 1156 34 1078 q 130 1235 34 1235 q 198 1217 174 1235 q 222 1166 222 1198 q 126 1078 222 1078 z "},"̈":{"ha":572,"x_min":34,"x_max":538,"o":"m 126 1078 q 34 1156 34 1078 q 130 1235 34 1235 q 198 1217 174 1235 q 222 1166 222 1198 q 126 1078 222 1078 m 441 1078 q 349 1156 349 1078 q 445 1235 349 1235 q 513 1217 489 1235 q 538 1166 538 1198 q 441 1078 538 1078 z "},"̊":{"ha":362,"x_min":34,"x_max":328,"o":"m 181 1029 q 99 1051 132 1029 q 50 1107 66 1073 q 34 1178 34 1141 q 50 1252 34 1217 q 99 1310 66 1287 q 181 1332 132 1332 q 287 1290 246 1332 q 328 1181 328 1248 q 275 1061 328 1107 q 181 1029 240 1029 m 180 1101 q 232 1126 214 1101 q 250 1185 250 1151 q 234 1237 250 1214 q 180 1260 217 1260 q 129 1236 146 1260 q 111 1181 111 1212 q 129 1125 111 1149 q 180 1101 146 1101 z "},"̌":{"ha":481,"x_min":34,"x_max":447,"o":"m 240 1062 q 196 1072 216 1062 q 153 1103 177 1081 q 56 1213 99 1152 q 34 1269 34 1242 q 54 1316 34 1294 q 96 1332 71 1332 q 155 1305 128 1332 q 224 1232 197 1265 q 239 1223 232 1223 q 254 1231 247 1223 q 325 1305 293 1274 q 385 1332 352 1332 q 426 1316 410 1332 q 447 1268 447 1294 q 425 1213 447 1242 q 328 1103 382 1152 q 286 1072 304 1081 q 240 1062 267 1062 z "},"̧":{"ha":330,"x_min":34,"x_max":296,"o":"m 88 -322 q 48 -312 62 -322 q 34 -270 34 -301 q 100 -220 34 -220 q 160 -199 145 -220 q 167 -178 167 -189 q 89 -110 167 -134 q 41 -62 41 -95 q 127 88 41 -27 q 165 109 142 109 q 197 99 184 109 q 209 77 209 90 q 190 13 209 64 q 184 -12 184 -3 q 205 -39 184 -26 q 273 -100 249 -64 q 296 -176 296 -136 q 274 -246 296 -213 q 206 -301 252 -279 q 88 -322 159 -322 z "},"–":{"ha":830,"x_min":34,"x_max":796,"o":"m 362 400 q 58 441 98 400 q 34 507 34 465 q 64 589 34 570 q 142 608 94 608 q 395 609 206 609 q 690 604 562 609 q 769 582 742 602 q 796 509 796 562 q 766 429 796 452 q 659 402 735 406 q 362 400 622 400 z "},"—":{"ha":1156,"x_min":34,"x_max":1122,"o":"m 432 400 q 58 441 98 400 q 34 507 34 465 q 64 589 34 570 q 142 608 94 608 q 583 609 281 609 q 1015 604 887 609 q 1095 582 1067 602 q 1122 509 1122 562 q 1091 429 1122 452 q 985 402 1061 406 q 432 400 947 400 z "},"‘":{"ha":393,"x_min":34,"x_max":359,"o":"m 208 536 q 111 562 149 536 q 53 632 73 588 q 34 732 34 677 q 90 914 34 836 q 252 1001 151 1001 q 328 981 296 1001 q 359 927 359 961 q 339 860 359 895 q 283 821 317 821 q 248 831 263 821 q 211 843 228 843 q 182 833 195 843 q 174 819 174 825 q 193 808 174 808 q 320 773 280 808 q 359 668 359 738 q 344 602 359 631 q 208 536 308 536 z "},"’":{"ha":393,"x_min":34,"x_max":359,"o":"m 142 536 q 65 556 97 536 q 34 610 34 576 q 54 677 34 642 q 110 715 77 715 q 146 706 130 715 q 182 694 165 694 q 211 704 198 694 q 220 718 220 711 q 201 729 220 729 q 74 764 113 729 q 34 869 34 799 q 50 936 34 906 q 186 1001 85 1001 q 282 975 244 1001 q 340 904 321 949 q 359 805 359 860 q 304 623 359 701 q 142 536 243 536 z "},"‚":{"ha":393,"x_min":34,"x_max":359,"o":"m 142 -233 q 65 -213 97 -233 q 34 -159 34 -193 q 54 -91 34 -126 q 110 -53 77 -53 q 146 -62 130 -53 q 182 -75 165 -75 q 211 -64 198 -75 q 220 -50 220 -57 q 201 -39 220 -39 q 74 -4 113 -39 q 34 100 34 31 q 50 168 34 138 q 186 233 85 233 q 282 207 244 233 q 340 136 321 180 q 359 37 359 92 q 304 -145 359 -67 q 142 -233 243 -233 z "},"“":{"ha":849,"x_min":34,"x_max":815,"o":"m 208 536 q 111 562 149 536 q 53 632 73 588 q 34 732 34 677 q 90 914 34 836 q 252 1001 151 1001 q 328 981 296 1001 q 359 927 359 961 q 339 860 359 895 q 283 821 317 821 q 248 831 263 821 q 211 843 228 843 q 182 833 195 843 q 174 819 174 825 q 193 808 174 808 q 320 773 280 808 q 359 668 359 738 q 344 602 359 631 q 208 536 308 536 m 663 536 q 567 562 605 536 q 509 632 528 588 q 490 732 490 677 q 545 914 490 836 q 707 1001 606 1001 q 784 981 752 1001 q 815 927 815 961 q 795 860 815 895 q 739 821 772 821 q 703 831 719 821 q 667 843 684 843 q 638 833 651 843 q 629 819 629 825 q 648 808 629 808 q 775 773 736 808 q 815 668 815 738 q 800 602 815 631 q 663 536 764 536 z "},"”":{"ha":849,"x_min":34,"x_max":815,"o":"m 142 536 q 65 556 97 536 q 34 610 34 576 q 54 677 34 642 q 110 715 77 715 q 146 706 130 715 q 182 694 165 694 q 211 704 198 694 q 220 718 220 711 q 201 729 220 729 q 74 764 113 729 q 34 869 34 799 q 50 936 34 906 q 186 1001 85 1001 q 282 975 244 1001 q 340 904 321 949 q 359 805 359 860 q 304 623 359 701 q 142 536 243 536 m 597 536 q 521 556 553 536 q 490 610 490 576 q 510 677 490 642 q 566 715 532 715 q 602 706 586 715 q 638 694 621 694 q 667 704 654 694 q 676 718 676 711 q 656 729 676 729 q 529 764 569 729 q 490 869 490 799 q 506 936 490 906 q 642 1001 541 1001 q 738 975 700 1001 q 796 904 777 949 q 815 805 815 860 q 760 623 815 701 q 597 536 699 536 z "},"„":{"ha":849,"x_min":34,"x_max":815,"o":"m 142 -233 q 65 -213 97 -233 q 34 -159 34 -193 q 54 -91 34 -126 q 110 -53 77 -53 q 146 -62 130 -53 q 182 -75 165 -75 q 211 -64 198 -75 q 220 -50 220 -57 q 201 -39 220 -39 q 74 -4 113 -39 q 34 100 34 31 q 50 168 34 138 q 186 233 85 233 q 282 207 244 233 q 340 136 321 180 q 359 37 359 92 q 304 -145 359 -67 q 142 -233 243 -233 m 597 -233 q 521 -213 553 -233 q 490 -159 490 -193 q 510 -91 490 -126 q 566 -53 532 -53 q 602 -62 586 -53 q 638 -75 621 -75 q 667 -64 654 -75 q 676 -50 676 -57 q 656 -39 676 -39 q 529 -4 569 -39 q 490 100 490 31 q 506 168 490 138 q 642 233 541 233 q 738 207 700 233 q 796 136 777 180 q 815 37 815 92 q 760 -145 815 -67 q 597 -233 699 -233 z "},"†":{"ha":702,"x_min":34,"x_max":668,"o":"m 355 -134 q 281 -106 305 -134 q 251 -2 258 -77 q 246 254 246 60 q 247 413 246 333 q 248 549 248 492 q 237 575 248 568 q 207 584 227 583 q 140 592 170 587 q 55 627 79 602 q 34 690 34 649 q 89 785 34 770 q 148 791 114 791 l 213 791 q 250 819 248 791 q 258 895 253 861 q 294 980 269 956 q 355 1001 316 1001 q 452 946 437 1001 q 458 887 458 921 l 457 816 q 488 787 457 787 q 557 786 523 786 q 616 779 591 786 q 668 689 668 763 q 640 614 668 638 q 536 584 611 591 q 481 580 510 582 q 453 553 453 578 l 453 -23 q 446 -82 453 -58 q 355 -134 430 -134 z "},"‡":{"ha":701,"x_min":34,"x_max":667,"o":"m 355 -134 q 281 -106 304 -134 q 251 -2 257 -77 l 247 47 q 236 73 245 66 q 206 82 227 80 q 140 90 170 85 q 55 125 79 100 q 34 186 34 147 q 89 283 34 269 q 148 290 114 290 l 212 289 q 250 317 250 289 l 250 426 q 247 549 250 486 q 236 575 246 568 q 206 585 227 583 q 140 592 170 587 q 55 627 79 602 q 34 688 34 648 q 89 785 34 770 q 148 791 114 791 l 212 791 q 250 819 248 791 q 258 895 253 861 q 293 980 269 956 q 355 1001 315 1001 q 451 946 437 1001 q 457 887 457 921 l 457 816 q 488 787 457 787 q 557 786 524 786 q 616 779 591 786 q 667 689 667 763 q 639 614 667 638 q 538 585 610 591 q 481 580 510 582 q 453 553 453 578 q 455 442 453 509 q 457 314 457 372 q 466 291 457 297 q 491 285 474 285 l 557 285 q 616 277 591 285 q 667 187 667 262 q 639 113 667 137 q 535 83 610 90 q 481 79 510 81 q 453 52 453 77 q 453 -22 453 14 q 445 -82 452 -58 q 355 -134 429 -134 z "},"•":{"ha":720,"x_min":34,"x_max":686,"o":"m 366 230 q 113 299 192 230 q 34 507 34 369 q 66 641 34 582 q 336 771 136 771 q 603 697 519 771 q 686 470 686 624 q 601 294 686 358 q 366 230 517 230 z "},"…":{"ha":1322,"x_min":34,"x_max":1288,"o":"m 201 0 q 74 35 113 0 q 34 140 34 70 q 50 207 34 177 q 186 272 85 272 q 320 235 278 272 q 361 121 361 198 q 319 32 361 64 q 201 0 277 0 m 664 0 q 537 35 576 0 q 497 140 497 70 q 513 207 497 177 q 649 272 549 272 q 783 235 741 272 q 825 121 825 198 q 782 32 825 64 q 664 0 740 0 m 1127 0 q 1000 35 1040 0 q 960 140 960 70 q 977 207 960 177 q 1112 272 1012 272 q 1246 235 1204 272 q 1288 121 1288 198 q 1245 32 1288 64 q 1127 0 1203 0 z "},"‹":{"ha":380,"x_min":34,"x_max":346,"o":"m 236 246 q 155 291 200 246 l 110 338 q 34 515 34 416 q 142 711 34 621 q 245 763 203 763 q 310 730 278 763 q 346 663 346 694 q 300 582 346 626 l 248 530 q 238 511 238 521 q 247 491 238 500 q 304 425 283 452 q 336 347 336 382 q 304 281 336 313 q 236 246 267 246 z "},"›":{"ha":380,"x_min":34,"x_max":346,"o":"m 134 246 q 70 279 102 246 q 34 346 34 315 q 79 427 34 382 l 132 478 q 142 498 142 488 q 133 517 142 508 q 76 584 97 557 q 43 661 43 627 q 76 727 43 696 q 144 763 113 763 q 224 718 180 763 l 270 671 q 346 494 346 592 q 238 297 346 387 q 134 246 177 246 z "},"⁄":{"ha":581,"x_min":34,"x_max":547,"o":"m 146 0 q 97 9 125 0 q 34 94 34 31 q 90 297 34 155 q 142 435 117 366 q 361 951 303 863 q 440 1002 395 1002 q 485 990 461 1002 q 547 915 547 961 q 532 850 547 888 q 379 465 456 656 q 228 79 302 273 q 190 15 210 30 q 146 0 170 0 z "},"∕":{"ha":581,"x_min":34,"x_max":547,"o":"m 146 0 q 97 9 125 0 q 34 94 34 31 q 90 297 34 155 q 142 435 117 366 q 361 951 303 863 q 440 1002 395 1002 q 485 990 461 1002 q 547 915 547 961 q 532 850 547 888 q 379 465 456 656 q 228 79 302 273 q 190 15 210 30 q 146 0 170 0 z "},"₣":{"ha":883,"x_min":34,"x_max":849,"o":"m 344 -1 q 221 24 269 -1 q 153 102 170 50 q 120 128 144 126 q 53 149 71 133 q 34 197 34 164 q 53 249 34 237 q 106 260 73 260 q 129 276 129 260 q 127 303 129 286 q 115 570 115 436 q 132 834 115 741 q 197 964 149 928 q 336 1001 245 1001 q 616 986 502 1001 q 790 931 730 970 q 849 817 849 891 q 827 714 849 751 q 770 667 804 677 q 703 656 736 656 q 669 659 686 656 q 602 663 630 663 q 555 659 573 663 q 519 610 519 649 q 541 574 519 582 q 587 567 562 567 q 627 570 605 567 q 656 572 642 572 q 733 549 703 572 q 772 435 772 520 q 728 339 772 370 q 566 301 684 308 q 536 277 536 299 q 553 264 536 265 l 600 264 q 665 242 650 263 q 675 195 675 227 q 661 156 675 170 q 563 129 640 135 q 539 105 547 127 q 469 26 521 53 q 344 -1 417 0 z "},"₤":{"ha":919,"x_min":34,"x_max":885,"o":"m 233 0 q 157 22 190 0 q 106 90 124 45 q 89 185 89 134 q 105 264 89 233 q 146 317 122 296 q 193 354 170 339 q 199 360 199 357 q 189 365 199 365 q 141 357 172 365 q 122 354 128 354 q 94 390 94 354 q 111 415 94 406 q 213 433 128 424 q 233 448 233 435 q 213 460 233 460 q 134 449 180 460 q 116 446 122 446 q 89 483 89 446 q 106 509 89 500 q 113 516 113 511 q 105 527 113 521 q 34 716 34 590 q 76 867 34 800 q 209 971 119 933 q 442 1009 299 1009 q 625 983 547 1009 q 840 821 773 935 q 885 664 885 745 q 777 511 885 566 q 670 483 718 483 q 584 530 621 483 q 470 597 532 597 q 435 570 435 597 q 462 541 435 541 l 484 542 q 531 536 516 542 q 549 509 549 530 q 522 475 549 475 q 500 476 513 475 q 484 477 492 477 q 473 463 473 477 q 484 450 473 450 q 541 443 526 450 q 555 416 555 435 q 528 382 555 382 q 491 384 506 382 q 457 385 475 385 q 404 346 404 384 q 416 327 404 332 q 427 324 421 324 q 447 329 436 324 q 706 395 589 395 q 885 185 885 395 q 749 17 885 17 q 705 19 735 17 q 578 23 652 23 q 290 5 434 23 q 233 0 252 0 z "},"€":{"ha":904,"x_min":-22,"x_max":890,"o":"m 444 0 q 231 50 315 0 q 44 388 68 145 q 35 406 43 402 q 15 410 28 410 q -12 416 -1 410 q -22 445 -22 422 q 13 474 -22 469 q 35 491 35 477 q 13 505 35 501 q -22 534 -22 509 q -12 563 -22 557 q 15 569 -1 569 l 30 569 q 44 584 42 569 q 111 800 58 706 q 254 947 163 894 q 478 1001 346 1001 q 645 977 573 1001 q 846 820 782 929 q 890 665 890 745 q 781 512 890 566 q 675 483 723 483 q 580 543 616 483 q 550 581 568 564 q 511 595 534 595 q 478 584 492 595 q 472 575 472 579 q 486 567 472 567 q 512 561 502 567 q 522 536 522 555 q 513 512 522 522 q 450 499 500 499 q 437 489 437 499 q 451 479 437 479 q 479 477 465 478 q 512 467 503 475 q 522 443 522 459 q 512 417 522 423 q 474 412 502 412 q 467 405 467 412 q 473 395 467 400 q 511 382 487 382 q 543 391 529 382 q 596 408 568 408 q 739 317 670 408 q 783 201 783 262 q 734 104 783 148 q 602 28 681 56 q 444 0 524 0 z "},"™":{"ha":1400,"x_min":34,"x_max":1367,"o":"m 276 473 q 195 493 226 473 q 158 553 163 513 q 141 798 142 670 q 126 818 141 815 q 57 854 78 827 q 34 947 34 884 q 118 1053 34 1053 l 243 1053 q 361 1061 299 1053 q 413 1065 396 1065 q 476 1036 454 1065 q 503 944 503 1000 q 483 865 503 896 q 422 828 463 833 q 389 817 399 825 q 379 791 379 809 q 391 602 379 702 q 395 564 395 574 q 366 500 395 522 q 276 473 332 474 m 1219 473 q 1134 498 1166 473 q 1101 564 1101 522 q 1107 611 1101 572 q 1118 727 1118 686 q 1083 788 1118 788 q 1042 742 1055 788 q 1015 624 1029 696 q 948 541 999 541 q 918 552 932 541 q 882 625 890 573 q 876 663 878 644 q 826 777 863 777 q 804 761 812 777 q 795 713 795 745 q 808 568 795 662 q 810 549 810 559 q 705 473 810 473 q 629 497 652 473 q 593 581 606 521 q 572 764 572 677 q 700 1044 572 981 q 807 1065 743 1065 q 977 1004 905 1065 q 996 996 987 996 q 1013 1004 1005 996 q 1163 1065 1074 1065 q 1328 974 1278 1065 q 1367 786 1367 902 q 1339 553 1367 677 q 1301 493 1330 513 q 1219 473 1273 473 z "},"−":{"ha":701,"x_min":34,"x_max":667,"o":"m 343 400 q 140 412 212 400 q 55 447 79 422 q 34 509 34 469 q 89 605 34 591 q 148 611 114 611 q 353 609 248 611 q 556 606 492 606 q 616 600 591 606 q 667 509 667 584 q 639 435 667 458 q 343 400 595 400 z "},"≈":{"ha":702,"x_min":34,"x_max":668,"o":"m 433 500 q 314 536 382 500 q 230 564 261 564 q 178 539 203 564 q 113 503 143 503 q 60 531 90 503 q 34 584 34 556 q 35 602 34 586 q 75 664 37 618 q 198 768 142 746 q 269 783 236 783 q 388 747 318 783 q 471 720 439 720 q 524 745 498 720 q 589 781 558 781 q 641 753 612 781 q 668 701 668 728 q 666 683 668 699 q 627 621 665 667 q 503 516 559 538 q 433 500 467 500 m 433 218 q 314 254 384 218 q 230 281 262 281 q 178 256 203 281 q 113 220 144 220 q 60 248 89 220 q 34 300 34 273 q 35 318 34 302 q 75 380 37 334 q 198 485 142 463 q 269 500 235 500 q 388 465 319 500 q 472 437 441 437 q 523 462 499 437 q 588 498 558 498 q 641 470 612 498 q 668 417 668 445 q 666 399 668 415 q 627 337 665 383 q 503 233 559 255 q 433 218 466 218 z "},"≤":{"ha":701,"x_min":34,"x_max":667,"o":"m 584 316 q 332 378 522 316 q 136 454 219 414 q 34 588 34 503 q 58 661 34 625 q 136 723 83 696 q 332 799 219 762 q 584 861 522 861 q 664 777 664 861 q 634 695 664 724 q 553 652 604 667 q 372 589 372 596 q 553 525 372 580 q 634 480 604 509 q 664 399 664 452 q 639 332 664 349 q 584 316 614 316 m 343 0 q 140 12 212 0 q 55 47 79 22 q 34 109 34 69 q 89 204 34 190 q 148 211 114 211 q 353 209 248 211 q 556 206 492 206 q 616 199 591 206 q 667 109 667 184 q 639 35 667 58 q 343 0 595 0 z "},"≥":{"ha":701,"x_min":34,"x_max":667,"o":"m 114 316 q 34 399 34 316 q 64 480 34 452 q 145 525 94 509 q 326 587 326 581 q 145 652 326 597 q 64 695 94 667 q 34 777 34 724 q 59 844 34 827 q 114 861 83 861 q 367 799 176 861 q 562 723 479 762 q 664 588 664 673 q 640 515 664 551 q 562 454 615 479 q 367 378 479 414 q 114 316 176 316 m 343 0 q 140 12 212 0 q 55 47 79 22 q 34 109 34 69 q 89 204 34 190 q 148 211 114 211 q 353 209 248 211 q 556 206 492 206 q 616 199 591 206 q 667 109 667 184 q 639 35 667 58 q 343 0 595 0 z "},"¹":{"ha":394,"x_min":34,"x_max":360,"o":"m 237 454 q 153 478 185 454 q 125 537 125 498 q 127 563 125 553 q 132 599 129 573 q 140 779 140 687 q 135 809 140 802 q 115 817 131 817 q 56 836 78 817 q 34 904 34 855 q 89 976 34 951 q 239 1001 144 1001 q 315 981 290 1001 q 351 910 341 961 q 360 766 360 859 q 344 528 360 644 q 237 454 334 454 z "},"²":{"ha":532,"x_min":34,"x_max":498,"o":"m 127 450 q 71 477 90 450 q 48 551 48 509 q 102 660 48 618 q 207 712 136 686 q 259 734 238 724 q 280 762 280 745 q 262 776 280 776 q 199 739 227 776 q 152 713 179 713 q 94 728 125 713 q 48 764 62 743 q 34 814 34 786 q 71 916 34 867 q 275 1001 135 1001 q 403 980 354 1001 q 475 923 452 960 q 498 841 498 887 q 446 731 498 766 q 347 693 411 708 q 319 677 319 687 q 332 669 319 669 q 462 634 433 669 q 484 551 484 608 q 410 459 484 459 q 370 460 393 459 q 315 463 337 463 q 182 454 245 463 q 127 450 147 450 z "},"³":{"ha":532,"x_min":34,"x_max":498,"o":"m 275 450 q 71 534 134 450 q 34 639 34 583 q 93 722 34 694 q 152 737 125 737 q 199 711 179 737 q 262 675 227 675 q 280 689 280 675 q 242 724 280 707 q 228 745 228 730 q 239 759 228 754 q 278 792 278 775 q 260 805 278 805 q 207 773 232 805 q 165 751 190 751 q 115 764 142 751 q 64 838 64 789 q 96 927 64 884 q 275 1001 151 1001 q 386 983 342 1001 q 449 933 429 964 q 469 861 469 901 q 404 755 469 783 q 396 747 396 751 q 401 741 396 743 q 498 610 498 707 q 475 527 498 564 q 403 470 452 491 q 275 450 354 450 z "},"⁴":{"ha":557,"x_min":34,"x_max":523,"o":"m 399 454 q 315 478 348 454 q 288 537 288 498 q 291 573 288 553 q 294 598 294 592 q 281 614 294 614 q 270 613 276 614 q 221 608 244 608 q 96 654 140 608 q 34 854 34 720 q 39 927 34 889 q 73 983 43 965 q 146 1001 102 1001 q 231 977 199 1001 q 258 919 258 957 q 256 879 258 905 q 254 838 254 856 q 281 751 254 783 q 293 744 286 744 q 303 758 303 744 q 294 903 303 833 q 293 922 293 913 q 314 977 293 954 q 402 1001 334 1001 q 478 981 452 1001 q 514 910 505 961 q 523 766 523 859 q 507 528 523 644 q 399 454 496 454 z "},"ȷ":{"ha":536,"x_min":-32,"x_max":497,"o":"m 96 -1 q 26 9 55 -1 q -17 42 -2 18 q -32 110 -32 66 q 68 200 -32 200 q 101 208 90 200 q 117 240 113 216 q 122 312 122 264 q 81 730 122 431 q 67 849 67 837 q 117 957 67 919 q 272 1001 176 1001 q 406 968 353 1001 q 468 865 459 935 q 497 408 497 631 q 459 175 497 265 q 333 42 420 84 q 96 -1 245 -1 z "},"ʻ":{"ha":275,"x_min":34,"x_max":241,"o":"m 144 1062 q 83 1079 107 1062 q 46 1123 58 1095 q 34 1187 34 1152 q 69 1302 34 1253 q 172 1358 108 1358 q 221 1345 201 1358 q 241 1311 241 1333 q 227 1267 241 1290 q 193 1244 214 1244 q 170 1250 180 1244 q 146 1257 157 1257 q 128 1251 136 1257 q 123 1242 123 1246 q 135 1235 123 1235 q 216 1213 191 1235 q 241 1146 241 1190 q 231 1103 241 1122 q 144 1062 208 1062 z "},"ʼ":{"ha":275,"x_min":34,"x_max":241,"o":"m 102 1062 q 54 1075 74 1062 q 34 1109 34 1087 q 47 1153 34 1130 q 82 1176 61 1176 q 105 1170 95 1176 q 128 1162 118 1162 q 146 1169 138 1162 q 153 1178 153 1174 q 140 1185 153 1185 q 59 1207 84 1185 q 34 1274 34 1230 q 44 1316 34 1297 q 130 1358 66 1358 q 192 1341 168 1358 q 229 1296 216 1324 q 241 1233 241 1268 q 205 1118 241 1167 q 102 1062 167 1062 z "},"ˆ":{"ha":481,"x_min":34,"x_max":447,"o":"m 385 1062 q 325 1088 352 1062 q 254 1163 293 1121 q 239 1171 247 1171 q 224 1162 232 1171 q 155 1088 197 1128 q 96 1062 128 1062 q 54 1078 71 1062 q 34 1125 34 1100 q 56 1181 34 1152 q 153 1291 99 1242 q 196 1322 177 1313 q 240 1332 216 1332 q 286 1322 267 1332 q 328 1291 304 1313 q 425 1181 382 1242 q 447 1126 447 1152 q 426 1078 447 1100 q 385 1062 410 1062 z "},"ˇ":{"ha":481,"x_min":34,"x_max":447,"o":"m 240 1062 q 196 1072 216 1062 q 153 1103 177 1081 q 56 1213 99 1152 q 34 1269 34 1242 q 54 1316 34 1294 q 96 1332 71 1332 q 155 1305 128 1332 q 224 1232 197 1265 q 239 1223 232 1223 q 254 1231 247 1223 q 325 1305 293 1274 q 385 1332 352 1332 q 426 1316 410 1332 q 447 1268 447 1294 q 425 1213 447 1242 q 328 1103 382 1152 q 286 1072 304 1081 q 240 1062 267 1062 z "},"ˉ":{"ha":480,"x_min":34,"x_max":446,"o":"m 192 1078 l 111 1079 q 55 1092 76 1079 q 34 1148 34 1105 q 50 1194 34 1178 q 230 1224 79 1223 q 352 1221 296 1224 q 425 1203 404 1219 q 446 1145 446 1187 q 428 1097 446 1111 q 373 1082 409 1083 q 192 1078 283 1078 z "},"ˊ":{"ha":330,"x_min":34,"x_max":296,"o":"m 96 1062 q 54 1078 71 1062 q 34 1126 34 1100 q 55 1181 34 1152 q 152 1291 98 1242 q 224 1332 196 1332 q 267 1312 246 1332 q 296 1265 296 1287 q 155 1088 296 1228 q 96 1062 128 1062 z "},"ˋ":{"ha":330,"x_min":34,"x_max":296,"o":"m 233 1062 q 174 1088 201 1062 q 34 1265 34 1228 q 62 1312 34 1287 q 105 1332 83 1332 q 177 1291 133 1332 q 274 1181 231 1242 q 296 1126 296 1152 q 275 1078 296 1100 q 233 1062 258 1062 z "},"ˍ":{"ha":526,"x_min":34,"x_max":492,"o":"m 280 -277 q 58 -235 98 -277 q 34 -170 34 -212 q 64 -87 34 -106 q 142 -68 94 -68 l 206 -68 q 386 -73 258 -68 q 465 -95 438 -75 q 492 -168 492 -115 q 462 -248 492 -225 q 355 -275 431 -271 q 280 -277 318 -277 z "},"˘":{"ha":481,"x_min":34,"x_max":447,"o":"m 240 1062 q 112 1103 165 1063 q 39 1218 58 1143 q 34 1251 34 1236 q 67 1301 34 1291 q 83 1304 76 1304 q 138 1241 121 1304 q 243 1192 157 1192 q 309 1204 282 1192 q 342 1241 335 1217 q 398 1304 359 1304 q 414 1301 406 1304 q 443 1277 439 1293 q 447 1249 447 1260 q 442 1218 447 1234 q 240 1062 401 1065 z "},"˷":{"ha":480,"x_min":34,"x_max":446,"o":"m 319 -286 q 235 -255 271 -286 q 207 -229 220 -242 q 182 -205 195 -215 q 159 -196 170 -196 q 144 -210 145 -196 q 131 -268 143 -250 q 90 -286 118 -286 q 45 -271 57 -286 q 34 -227 34 -256 q 51 -140 34 -175 q 95 -86 67 -105 q 157 -68 123 -68 q 228 -86 201 -68 q 273 -125 254 -104 q 321 -158 303 -158 q 336 -143 336 -158 q 350 -86 338 -104 q 390 -68 362 -68 q 435 -83 424 -68 q 446 -126 446 -98 q 429 -215 446 -180 q 383 -269 412 -251 q 319 -286 354 -286 z "},"̅":{"ha":702,"x_min":34,"x_max":668,"o":"m 368 1070 q 55 1119 103 1070 q 34 1181 34 1141 q 89 1277 34 1263 q 148 1284 114 1284 q 361 1281 254 1284 q 557 1278 464 1278 q 645 1255 621 1278 q 668 1181 668 1232 q 640 1107 668 1131 q 589 1085 623 1093 q 368 1070 526 1070 z "},"̆":{"ha":481,"x_min":34,"x_max":447,"o":"m 240 1062 q 112 1103 165 1063 q 39 1218 58 1143 q 34 1251 34 1236 q 67 1301 34 1291 q 83 1304 76 1304 q 138 1241 121 1304 q 243 1192 157 1192 q 309 1204 282 1192 q 342 1241 335 1217 q 398 1304 359 1304 q 414 1301 406 1304 q 443 1277 439 1293 q 447 1249 447 1260 q 442 1218 447 1234 q 240 1062 401 1065 z "},"̕":{"ha":275,"x_min":34,"x_max":241,"o":"m 102 1062 q 54 1075 74 1062 q 34 1109 34 1087 q 47 1153 34 1130 q 82 1176 61 1176 q 105 1170 95 1176 q 128 1162 118 1162 q 146 1169 138 1162 q 153 1178 153 1174 q 140 1185 153 1185 q 59 1207 84 1185 q 34 1274 34 1230 q 44 1316 34 1297 q 130 1358 66 1358 q 192 1341 168 1358 q 229 1296 216 1324 q 241 1233 241 1268 q 205 1118 241 1167 q 102 1062 167 1062 z "},"̣":{"ha":256,"x_min":34,"x_max":222,"o":"m 126 -224 q 34 -147 34 -224 q 130 -68 34 -68 q 198 -86 174 -68 q 222 -137 222 -104 q 126 -224 222 -224 z "},"̤":{"ha":572,"x_min":34,"x_max":538,"o":"m 126 -224 q 34 -147 34 -224 q 130 -68 34 -68 q 198 -86 174 -68 q 222 -137 222 -104 q 126 -224 222 -224 m 441 -224 q 349 -147 349 -224 q 445 -68 349 -68 q 513 -86 489 -68 q 538 -137 538 -104 q 441 -224 538 -224 z "},"̥":{"ha":362,"x_min":34,"x_max":328,"o":"m 181 -370 q 99 -349 132 -370 q 50 -293 66 -327 q 34 -222 34 -259 q 50 -148 34 -183 q 99 -90 66 -113 q 181 -68 132 -68 q 287 -110 246 -68 q 328 -219 328 -152 q 275 -339 328 -293 q 181 -370 240 -370 m 180 -299 q 232 -274 214 -299 q 250 -214 250 -249 q 234 -163 250 -186 q 180 -140 217 -140 q 129 -164 146 -140 q 111 -219 111 -188 q 129 -275 111 -250 q 180 -299 146 -299 z "},"̦":{"ha":275,"x_min":34,"x_max":241,"o":"m 102 -363 q 54 -351 74 -363 q 34 -317 34 -338 q 47 -273 34 -296 q 82 -250 61 -250 q 105 -256 95 -250 q 128 -263 118 -263 q 146 -256 138 -263 q 153 -248 153 -252 q 140 -241 153 -241 q 59 -218 84 -241 q 34 -152 34 -196 q 44 -109 34 -128 q 130 -68 66 -68 q 192 -84 168 -68 q 229 -129 216 -101 q 241 -193 241 -157 q 205 -308 241 -258 q 102 -363 167 -363 z "},"̱":{"ha":480,"x_min":34,"x_max":446,"o":"m 222 -213 l 111 -213 q 55 -200 76 -213 q 34 -144 34 -186 q 50 -98 34 -114 q 230 -68 79 -68 q 352 -71 296 -68 q 425 -89 404 -73 q 446 -146 446 -105 q 428 -195 446 -181 q 373 -210 409 -209 q 222 -213 298 -213 z "},"ẞ":{"ha":1244,"x_min":35,"x_max":1244,"o":"m 264 -1 q 126 33 179 -1 q 64 134 73 66 q 35 570 35 349 q 57 782 35 698 q 119 913 78 865 q 220 981 160 962 q 358 1001 281 1001 q 700 981 573 1001 q 882 910 827 961 q 937 768 937 860 q 926 696 937 729 q 905 635 916 663 q 886 570 886 589 q 917 530 886 547 q 994 495 947 513 q 1159 408 1099 455 q 1244 231 1244 340 q 905 0 1244 0 q 729 28 817 0 q 587 104 641 56 q 539 202 539 149 q 583 317 539 262 q 725 408 657 408 q 780 391 753 408 q 827 374 806 374 q 855 396 855 374 q 826 430 855 419 q 752 451 797 441 q 656 479 707 461 q 500 622 538 519 q 466 652 488 652 q 446 641 454 652 q 438 610 438 629 q 446 394 438 534 q 459 229 452 292 q 465 151 465 176 q 415 43 465 81 q 264 -1 357 0 z "},"˙":{"ha":256,"x_min":34,"x_max":222,"o":"m 126 1078 q 34 1156 34 1078 q 130 1235 34 1235 q 198 1217 174 1235 q 222 1166 222 1198 q 126 1078 222 1078 z "},"˚":{"ha":362,"x_min":34,"x_max":328,"o":"m 181 1029 q 99 1051 132 1029 q 50 1107 66 1073 q 34 1178 34 1141 q 50 1252 34 1217 q 99 1310 66 1287 q 181 1332 132 1332 q 287 1290 246 1332 q 328 1181 328 1248 q 275 1061 328 1107 q 181 1029 240 1029 m 180 1101 q 232 1126 214 1101 q 250 1185 250 1151 q 234 1237 250 1214 q 180 1260 217 1260 q 129 1236 146 1260 q 111 1181 111 1212 q 129 1125 111 1149 q 180 1101 146 1101 z "},"˛":{"ha":361,"x_min":34,"x_max":328,"o":"m 167 -322 q 91 -304 120 -322 q 47 -257 61 -286 q 34 -192 34 -227 q 86 -39 34 -112 q 203 94 139 34 q 237 109 218 109 q 271 94 257 109 q 279 75 279 85 q 244 8 279 64 q 206 -57 224 -24 q 164 -191 164 -132 q 193 -225 164 -225 q 230 -204 216 -225 q 284 -165 258 -165 q 310 -174 297 -165 q 328 -205 328 -188 q 309 -255 328 -228 q 167 -322 265 -322 z "},"˜":{"ha":480,"x_min":34,"x_max":446,"o":"m 319 1062 q 235 1093 271 1062 q 207 1120 220 1106 q 182 1143 195 1133 q 159 1152 170 1152 q 144 1137 145 1152 q 131 1080 143 1098 q 90 1062 118 1062 q 45 1077 57 1062 q 34 1121 34 1093 q 51 1208 34 1173 q 95 1262 67 1243 q 157 1280 123 1280 q 228 1262 201 1280 q 273 1223 254 1244 q 321 1190 303 1190 q 336 1205 335 1190 q 350 1262 337 1244 q 390 1280 362 1280 q 435 1265 423 1280 q 446 1221 446 1250 q 429 1133 446 1168 q 383 1080 412 1097 q 319 1062 354 1062 z "},"˝":{"ha":591,"x_min":34,"x_max":557,"o":"m 96 1062 q 54 1078 71 1062 q 34 1126 34 1100 q 55 1181 34 1152 q 152 1291 98 1242 q 224 1332 196 1332 q 267 1312 246 1332 q 296 1265 296 1287 q 155 1088 296 1228 q 96 1062 128 1062 m 357 1062 q 316 1078 332 1062 q 296 1126 296 1100 q 317 1181 296 1152 q 414 1291 360 1242 q 486 1332 458 1332 q 529 1312 508 1332 q 557 1265 557 1287 q 417 1088 557 1228 q 357 1062 390 1062 z "},"Ā":{"ha":985,"x_min":-7,"x_max":945,"o":"m 475 477 q 536 524 536 477 q 519 574 536 553 q 476 595 501 595 q 437 576 454 595 q 421 531 421 557 q 475 477 421 477 m 724 -1 q 573 40 627 -1 q 519 150 519 81 l 519 177 q 475 211 519 211 q 435 174 435 211 q 436 159 435 168 q 438 130 438 144 q 374 20 438 51 q 260 -1 334 -1 q 135 33 177 -1 q 77 153 92 66 q 42 203 73 180 q -7 337 -7 241 q 33 452 -7 416 q 53 477 47 465 q 60 510 58 489 q 171 857 74 731 q 509 1001 282 1001 q 856 841 749 1001 q 945 481 945 707 q 920 134 945 324 q 858 33 911 66 q 724 -1 806 -1 m 460 1078 l 380 1079 q 323 1092 345 1079 q 302 1148 302 1105 q 319 1194 302 1178 q 498 1224 348 1223 q 621 1221 565 1224 q 694 1203 673 1219 q 715 1145 715 1187 q 696 1097 715 1111 q 642 1082 677 1083 q 460 1078 551 1078 z "},"ā":{"ha":984,"x_min":-7,"x_max":945,"o":"m 475 477 q 537 524 537 477 q 519 574 537 553 q 477 595 502 595 q 438 576 454 595 q 422 531 422 557 q 475 477 422 477 m 724 -1 q 574 40 628 -1 q 520 150 520 81 l 520 177 q 476 211 520 211 q 435 174 435 211 q 437 159 435 168 q 439 130 439 144 q 375 20 439 51 q 261 -1 334 -1 q 135 33 178 -1 q 78 153 93 66 q 43 203 73 180 q -7 337 -7 241 q 33 452 -7 416 q 53 477 47 465 q 60 510 59 489 q 172 857 75 731 q 509 1001 283 1001 q 857 841 750 1001 q 945 481 945 707 q 920 134 945 324 q 859 33 911 66 q 724 -1 806 -1 m 461 1078 l 380 1079 q 324 1092 345 1079 q 303 1148 303 1105 q 319 1194 303 1178 q 499 1224 349 1223 q 621 1221 566 1224 q 694 1203 673 1219 q 715 1145 715 1187 q 697 1097 715 1111 q 642 1082 678 1083 q 461 1078 552 1078 z "},"Ă":{"ha":985,"x_min":-7,"x_max":945,"o":"m 475 477 q 536 524 536 477 q 519 574 536 553 q 476 595 501 595 q 437 576 454 595 q 421 531 421 557 q 475 477 421 477 m 724 -1 q 573 40 627 -1 q 519 150 519 81 l 519 177 q 475 211 519 211 q 435 174 435 211 q 436 159 435 168 q 438 130 438 144 q 374 20 438 51 q 260 -1 334 -1 q 135 33 177 -1 q 77 153 92 66 q 42 203 73 180 q -7 337 -7 241 q 33 452 -7 416 q 53 477 47 465 q 60 510 58 489 q 171 857 74 731 q 509 1001 282 1001 q 856 841 749 1001 q 945 481 945 707 q 920 134 945 324 q 858 33 911 66 q 724 -1 806 -1 m 508 1062 q 380 1103 433 1063 q 307 1218 326 1143 q 302 1251 302 1236 q 335 1301 302 1291 q 351 1304 344 1304 q 406 1241 389 1304 q 511 1192 425 1192 q 576 1204 550 1192 q 610 1241 603 1217 q 666 1304 627 1304 q 682 1301 673 1304 q 711 1277 707 1293 q 715 1249 715 1260 q 710 1218 715 1234 q 508 1062 669 1065 z "},"ă":{"ha":984,"x_min":-7,"x_max":945,"o":"m 475 477 q 537 524 537 477 q 519 574 537 553 q 477 595 502 595 q 438 576 454 595 q 422 531 422 557 q 475 477 422 477 m 724 -1 q 574 40 628 -1 q 520 150 520 81 l 520 177 q 476 211 520 211 q 435 174 435 211 q 437 159 435 168 q 439 130 439 144 q 375 20 439 51 q 261 -1 334 -1 q 135 33 178 -1 q 78 153 93 66 q 43 203 73 180 q -7 337 -7 241 q 33 452 -7 416 q 53 477 47 465 q 60 510 59 489 q 172 857 75 731 q 509 1001 283 1001 q 857 841 750 1001 q 945 481 945 707 q 920 134 945 324 q 859 33 911 66 q 724 -1 806 -1 m 509 1062 q 380 1103 434 1063 q 307 1218 327 1143 q 302 1251 302 1236 q 336 1301 302 1291 q 352 1304 345 1304 q 406 1241 390 1304 q 512 1192 425 1192 q 577 1204 551 1192 q 611 1241 604 1217 q 667 1304 628 1304 q 682 1301 674 1304 q 712 1277 708 1293 q 715 1249 715 1260 q 711 1218 715 1234 q 509 1062 669 1065 z "},"Ą":{"ha":985,"x_min":-7,"x_max":945,"o":"m 475 477 q 536 524 536 477 q 518 574 536 553 q 476 595 501 595 q 437 576 454 595 q 421 531 421 557 q 475 477 421 477 m 708 -322 q 631 -304 661 -322 q 589 -257 602 -286 q 575 -192 575 -227 q 641 -22 575 -111 q 646 -8 646 -16 q 631 12 646 7 q 520 149 520 46 l 520 178 q 475 211 520 211 q 435 172 435 211 q 437 152 435 160 q 438 128 438 143 q 426 69 438 99 q 374 19 414 39 q 260 -1 333 -1 q 134 33 176 -1 q 77 153 92 66 q 42 203 72 180 q -7 337 -7 241 q 32 452 -7 416 q 52 477 47 466 q 59 510 58 489 q 171 857 74 731 q 509 1001 283 1001 q 856 841 749 1001 q 945 481 945 707 q 920 134 945 317 q 804 9 905 35 q 783 0 790 5 q 770 -16 777 -5 q 724 -102 743 -59 q 705 -191 705 -146 q 734 -225 705 -225 q 771 -204 757 -225 q 825 -165 798 -165 q 851 -174 838 -165 q 869 -205 869 -188 q 849 -255 869 -225 q 708 -322 806 -322 z "},"ą":{"ha":984,"x_min":-7,"x_max":945,"o":"m 475 477 q 536 524 536 477 q 519 574 536 553 q 477 595 502 595 q 438 576 454 595 q 422 531 422 557 q 475 477 422 477 m 709 -322 q 632 -304 661 -322 q 589 -257 603 -286 q 576 -192 576 -227 q 642 -22 576 -111 q 646 -8 646 -16 q 631 12 646 7 q 521 149 521 46 l 521 178 q 475 211 521 211 q 436 172 436 211 q 437 152 436 160 q 439 128 439 143 q 427 69 439 99 q 374 19 415 39 q 260 -1 334 -1 q 135 33 177 -1 q 77 153 92 66 q 43 203 73 180 q -7 337 -7 241 q 33 452 -7 416 q 53 477 47 466 q 60 510 58 489 q 172 857 75 731 q 509 1001 283 1001 q 857 841 750 1001 q 945 481 945 707 q 920 134 945 317 q 804 9 906 35 q 784 0 791 5 q 770 -16 777 -5 q 725 -102 744 -59 q 706 -191 706 -146 q 735 -225 706 -225 q 772 -204 758 -225 q 826 -165 799 -165 q 852 -174 839 -165 q 869 -205 869 -188 q 850 -255 869 -225 q 709 -322 806 -322 z "},"Ć":{"ha":879,"x_min":14,"x_max":865,"o":"m 419 0 q 106 140 208 0 q 14 488 14 265 q 122 854 14 716 q 453 1001 237 1001 q 620 977 548 1001 q 821 820 758 928 q 865 664 865 744 q 757 509 865 558 q 650 483 699 483 q 555 543 591 483 q 525 581 543 564 q 486 595 509 595 q 441 573 458 595 q 414 484 414 538 q 432 413 414 441 q 486 382 452 382 q 518 391 503 382 q 572 408 543 408 q 715 317 644 408 q 758 202 758 262 q 709 104 758 149 q 578 28 656 56 q 419 0 499 0 m 431 1062 q 389 1078 406 1062 q 369 1126 369 1100 q 390 1181 369 1152 q 487 1291 433 1242 q 559 1332 531 1332 q 602 1312 581 1332 q 631 1265 631 1287 q 490 1088 631 1228 q 431 1062 463 1062 z "},"ć":{"ha":878,"x_min":15,"x_max":865,"o":"m 420 0 q 106 140 208 0 q 15 488 15 265 q 123 854 15 716 q 454 1001 238 1001 q 621 977 549 1001 q 822 820 759 928 q 865 664 865 744 q 758 509 865 558 q 651 483 699 483 q 556 543 592 483 q 526 581 543 564 q 486 595 510 595 q 442 573 459 595 q 415 484 415 538 q 433 413 415 441 q 486 382 453 382 q 519 391 504 382 q 572 408 544 408 q 715 317 644 408 q 758 202 758 262 q 710 104 758 149 q 578 28 657 56 q 420 0 500 0 m 431 1062 q 390 1078 406 1062 q 370 1126 370 1100 q 391 1181 370 1152 q 488 1291 434 1242 q 559 1332 532 1332 q 603 1312 582 1332 q 631 1265 631 1287 q 491 1088 631 1228 q 431 1062 464 1062 z "},"Ĉ":{"ha":879,"x_min":14,"x_max":865,"o":"m 419 0 q 106 140 208 0 q 14 488 14 265 q 122 854 14 716 q 453 1001 237 1001 q 620 977 548 1001 q 821 820 758 928 q 865 664 865 744 q 757 509 865 558 q 650 483 699 483 q 555 543 591 483 q 525 581 543 564 q 486 595 509 595 q 441 573 458 595 q 414 484 414 538 q 432 413 414 441 q 486 382 452 382 q 518 391 503 382 q 572 408 543 408 q 715 317 644 408 q 758 202 758 262 q 709 104 758 149 q 578 28 656 56 q 419 0 499 0 m 600 1062 q 540 1088 567 1062 q 469 1163 508 1121 q 454 1171 462 1171 q 439 1162 447 1171 q 370 1088 412 1128 q 311 1062 343 1062 q 269 1078 286 1062 q 249 1125 249 1100 q 271 1181 249 1152 q 368 1291 314 1242 q 411 1322 392 1313 q 455 1332 431 1332 q 500 1322 482 1332 q 543 1291 519 1313 q 640 1181 597 1242 q 662 1126 662 1152 q 641 1078 662 1100 q 600 1062 625 1062 z "},"ĉ":{"ha":878,"x_min":15,"x_max":865,"o":"m 420 0 q 106 140 208 0 q 15 488 15 265 q 123 854 15 716 q 454 1001 238 1001 q 621 977 549 1001 q 822 820 759 928 q 865 664 865 744 q 758 509 865 558 q 651 483 699 483 q 556 543 592 483 q 526 581 543 564 q 486 595 510 595 q 442 573 459 595 q 415 484 415 538 q 433 413 415 441 q 486 382 453 382 q 519 391 504 382 q 572 408 544 408 q 715 317 644 408 q 758 202 758 262 q 710 104 758 149 q 578 28 657 56 q 420 0 500 0 m 600 1062 q 541 1088 568 1062 q 469 1163 509 1121 q 455 1171 463 1171 q 440 1162 448 1171 q 371 1088 412 1128 q 311 1062 344 1062 q 270 1078 286 1062 q 250 1125 250 1100 q 271 1181 250 1152 q 369 1291 315 1242 q 412 1322 393 1313 q 456 1332 431 1332 q 501 1322 483 1332 q 544 1291 519 1313 q 641 1181 597 1242 q 663 1126 663 1152 q 642 1078 663 1100 q 600 1062 625 1062 z "},"Ċ":{"ha":879,"x_min":14,"x_max":865,"o":"m 419 0 q 106 140 208 0 q 14 488 14 265 q 122 854 14 716 q 453 1001 237 1001 q 620 977 548 1001 q 821 820 758 928 q 865 664 865 744 q 757 509 865 558 q 650 483 699 483 q 555 543 591 483 q 525 581 543 564 q 486 595 509 595 q 441 573 458 595 q 414 484 414 538 q 432 413 414 441 q 486 382 452 382 q 518 391 503 382 q 572 408 543 408 q 715 317 644 408 q 758 202 758 262 q 709 104 758 149 q 578 28 656 56 q 419 0 499 0 m 454 1078 q 361 1156 361 1078 q 457 1235 361 1235 q 526 1217 501 1235 q 550 1166 550 1198 q 454 1078 550 1078 z "},"ċ":{"ha":878,"x_min":15,"x_max":865,"o":"m 420 0 q 106 140 208 0 q 15 488 15 265 q 123 854 15 716 q 454 1001 238 1001 q 621 977 549 1001 q 822 820 759 928 q 865 664 865 744 q 758 509 865 558 q 651 483 699 483 q 556 543 592 483 q 526 581 543 564 q 486 595 510 595 q 442 573 459 595 q 415 484 415 538 q 433 413 415 441 q 486 382 453 382 q 519 391 504 382 q 572 408 544 408 q 715 317 644 408 q 758 202 758 262 q 710 104 758 149 q 578 28 657 56 q 420 0 500 0 m 454 1078 q 362 1156 362 1078 q 458 1235 362 1235 q 526 1217 502 1235 q 551 1166 551 1198 q 454 1078 551 1078 z "},"Č":{"ha":879,"x_min":14,"x_max":865,"o":"m 419 0 q 106 140 208 0 q 14 488 14 265 q 122 854 14 716 q 453 1001 237 1001 q 620 977 548 1001 q 821 820 758 928 q 865 664 865 744 q 757 509 865 558 q 650 483 699 483 q 555 543 591 483 q 525 581 543 564 q 486 595 509 595 q 441 573 458 595 q 414 484 414 538 q 432 413 414 441 q 486 382 452 382 q 518 391 503 382 q 572 408 543 408 q 715 317 644 408 q 758 202 758 262 q 709 104 758 149 q 578 28 656 56 q 419 0 499 0 m 455 1062 q 411 1072 431 1062 q 368 1103 392 1081 q 271 1213 314 1152 q 249 1269 249 1242 q 269 1316 249 1294 q 311 1332 286 1332 q 370 1305 343 1332 q 439 1232 412 1265 q 454 1223 447 1223 q 469 1231 462 1223 q 540 1305 508 1274 q 600 1332 567 1332 q 641 1316 625 1332 q 662 1268 662 1294 q 640 1213 662 1242 q 543 1103 597 1152 q 500 1072 519 1081 q 455 1062 482 1062 z "},"č":{"ha":878,"x_min":15,"x_max":865,"o":"m 420 0 q 106 140 208 0 q 15 488 15 265 q 123 854 15 716 q 454 1001 238 1001 q 621 977 549 1001 q 822 820 759 928 q 865 664 865 744 q 758 509 865 558 q 651 483 699 483 q 556 543 592 483 q 526 581 543 564 q 486 595 510 595 q 442 573 459 595 q 415 484 415 538 q 433 413 415 441 q 486 382 453 382 q 519 391 504 382 q 572 408 544 408 q 715 317 644 408 q 758 202 758 262 q 710 104 758 149 q 578 28 657 56 q 420 0 500 0 m 456 1062 q 412 1072 431 1062 q 369 1103 393 1081 q 271 1213 315 1152 q 250 1269 250 1242 q 270 1316 250 1294 q 311 1332 286 1332 q 371 1305 344 1332 q 440 1232 412 1265 q 455 1223 448 1223 q 469 1231 463 1223 q 541 1305 509 1274 q 600 1332 568 1332 q 642 1316 625 1332 q 663 1268 663 1294 q 641 1213 663 1242 q 544 1103 597 1152 q 501 1072 519 1081 q 456 1062 483 1062 z "},"Ď":{"ha":996,"x_min":35,"x_max":964,"o":"m 492 406 q 536 426 519 406 q 558 469 553 446 q 564 508 564 492 q 539 583 564 554 q 492 603 522 603 q 449 581 459 603 q 439 516 439 559 q 452 425 439 444 q 492 406 464 406 m 264 -1 q 127 32 179 -1 q 64 134 73 66 q 35 570 35 349 q 52 834 35 741 q 117 964 69 928 q 257 1001 165 1001 q 402 968 357 1001 q 429 960 415 960 q 445 963 436 960 q 562 985 500 985 q 789 927 700 985 q 921 762 878 870 q 964 501 964 654 q 750 37 964 139 q 568 0 675 0 q 449 24 505 0 q 415 32 430 32 q 382 23 401 32 q 264 -1 333 -1 m 475 1062 q 432 1072 451 1062 q 389 1103 412 1081 q 291 1213 334 1152 q 269 1269 269 1242 q 290 1316 269 1294 q 331 1332 306 1332 q 391 1305 363 1332 q 460 1232 432 1265 q 475 1223 467 1223 q 489 1231 482 1223 q 560 1305 528 1274 q 620 1332 587 1332 q 661 1316 645 1332 q 682 1268 682 1294 q 661 1213 682 1242 q 564 1103 617 1152 q 521 1072 539 1081 q 475 1062 503 1062 z "},"ď":{"ha":1185,"x_min":30,"x_max":1205,"o":"m 486 406 q 531 426 513 406 q 553 469 548 446 q 558 508 558 492 q 534 583 558 554 q 486 603 516 603 q 444 581 454 603 q 434 516 434 559 q 446 425 434 444 q 486 406 458 406 m 258 -1 q 122 32 174 -1 q 58 134 68 66 q 30 570 30 349 q 47 834 30 741 q 112 964 64 928 q 252 1001 159 1001 q 397 968 351 1001 q 423 960 410 960 q 439 963 431 960 q 556 985 494 985 q 784 927 694 985 q 916 762 873 870 q 958 501 958 654 q 745 37 958 139 q 563 0 669 0 q 444 24 500 0 q 410 32 425 32 q 377 23 395 32 q 258 -1 328 -1 m 1067 705 q 1018 718 1038 705 q 998 752 998 730 q 1012 796 998 773 q 1046 819 1025 819 q 1069 813 1059 819 q 1093 806 1082 806 q 1111 812 1103 806 q 1117 821 1117 817 q 1104 828 1117 828 q 1023 850 1048 828 q 998 917 998 873 q 1008 960 998 941 q 1095 1001 1031 1001 q 1156 984 1132 1001 q 1193 940 1181 968 q 1205 876 1205 911 q 1170 761 1205 810 q 1067 705 1131 705 z "},"Đ":{"ha":1011,"x_min":-14,"x_max":979,"o":"m 508 406 q 559 435 538 406 q 579 508 579 464 q 555 583 579 553 q 508 603 538 603 q 465 579 475 603 q 463 570 463 574 q 473 558 463 561 q 510 536 500 551 q 521 496 521 522 q 510 452 521 466 q 479 435 499 439 q 470 425 470 433 q 474 416 470 420 q 508 406 484 406 m 283 -1 l 277 -1 q 142 33 195 -1 q 81 134 90 66 q 55 418 62 270 q 41 430 54 429 q 1 445 16 431 q -14 498 -14 458 q 40 556 -14 544 q 52 570 52 559 q 68 834 52 741 q 133 964 85 928 q 273 1001 180 1001 q 418 968 372 1001 q 445 960 432 960 q 461 963 452 960 q 578 985 516 985 q 805 927 716 985 q 937 763 894 870 q 979 501 979 655 q 766 37 979 140 q 585 0 691 0 q 465 24 522 0 q 431 32 446 32 q 398 23 416 32 q 283 -1 349 0 z "},"đ":{"ha":1010,"x_min":-14,"x_max":980,"o":"m 509 406 q 559 435 539 406 q 580 508 580 464 q 555 583 580 553 q 509 603 538 603 q 465 579 475 603 q 463 570 463 574 q 473 558 463 561 q 511 536 500 551 q 522 496 522 522 q 511 452 522 466 q 480 435 500 439 q 471 425 471 433 q 475 416 471 420 q 509 406 485 406 m 284 -1 l 278 -1 q 143 33 196 -1 q 81 134 90 66 q 56 418 63 270 q 42 430 55 429 q 2 445 17 431 q -14 498 -14 458 q 41 556 -14 544 q 52 570 52 559 q 69 834 52 741 q 134 964 86 928 q 273 1001 181 1001 q 419 968 373 1001 q 446 960 433 960 q 462 963 453 960 q 578 985 517 985 q 806 927 717 985 q 937 763 895 870 q 980 501 980 655 q 767 37 980 140 q 585 0 692 0 q 465 24 522 0 q 431 32 446 32 q 399 23 417 32 q 284 -1 349 0 z "},"Ē":{"ha":793,"x_min":35,"x_max":780,"o":"m 264 -1 q 127 32 179 -1 q 64 134 73 66 q 35 570 35 349 q 52 834 35 741 q 117 964 69 928 q 256 1001 165 1001 q 536 986 422 1001 q 710 931 650 970 q 769 817 769 891 q 747 714 769 751 q 690 667 724 677 q 623 656 656 656 q 562 663 597 656 q 491 671 517 671 q 434 635 434 671 q 452 607 434 612 q 490 601 469 601 q 547 607 511 601 q 592 612 576 612 q 659 593 633 612 q 692 500 692 568 q 667 423 692 447 q 604 393 641 399 q 529 387 566 387 q 485 384 505 386 q 453 375 465 382 q 441 353 441 368 q 459 327 441 332 q 496 323 477 323 q 571 331 524 323 q 635 337 608 337 q 780 177 780 337 q 735 65 780 104 q 578 13 690 27 q 264 -1 467 -1 m 359 1078 l 279 1079 q 222 1092 243 1079 q 201 1148 201 1105 q 218 1194 201 1178 q 397 1224 247 1223 q 519 1221 464 1224 q 593 1203 572 1219 q 614 1145 614 1187 q 595 1097 614 1111 q 541 1082 576 1083 q 359 1078 450 1078 z "},"ē":{"ha":786,"x_min":30,"x_max":774,"o":"m 258 -1 q 122 32 174 -1 q 58 134 68 66 q 30 570 30 349 q 47 834 30 741 q 112 964 64 928 q 251 1001 159 1001 q 531 986 416 1001 q 704 931 645 970 q 764 817 764 891 q 741 714 764 751 q 685 667 719 677 q 617 656 651 656 q 557 663 591 656 q 486 671 511 671 q 429 635 429 671 q 446 607 429 612 q 484 601 464 601 q 542 607 506 601 q 587 612 571 612 q 654 593 628 612 q 687 500 687 568 q 661 423 687 447 q 598 393 635 399 q 524 387 561 387 q 479 384 499 386 q 448 375 460 382 q 436 353 436 368 q 454 327 436 332 q 490 323 472 323 q 566 331 519 323 q 629 337 602 337 q 774 177 774 337 q 729 65 774 104 q 573 13 684 27 q 258 -1 461 -1 m 355 1078 l 275 1079 q 218 1092 239 1079 q 197 1148 197 1105 q 214 1194 197 1178 q 393 1224 243 1223 q 515 1221 460 1224 q 589 1203 568 1219 q 610 1145 610 1187 q 591 1097 610 1111 q 536 1082 572 1083 q 355 1078 446 1078 z "},"Ĕ":{"ha":793,"x_min":35,"x_max":780,"o":"m 264 -1 q 127 32 179 -1 q 64 134 73 66 q 35 570 35 349 q 52 834 35 741 q 117 964 69 928 q 256 1001 165 1001 q 536 986 422 1001 q 710 931 650 970 q 769 817 769 891 q 747 714 769 751 q 690 667 724 677 q 623 656 656 656 q 562 663 597 656 q 491 671 517 671 q 434 635 434 671 q 452 607 434 612 q 490 601 469 601 q 547 607 511 601 q 592 612 576 612 q 659 593 633 612 q 692 500 692 568 q 667 423 692 447 q 604 393 641 399 q 529 387 566 387 q 485 384 505 386 q 453 375 465 382 q 441 353 441 368 q 459 327 441 332 q 496 323 477 323 q 571 331 524 323 q 635 337 608 337 q 780 177 780 337 q 735 65 780 104 q 578 13 690 27 q 264 -1 467 -1 m 420 1062 q 292 1103 346 1063 q 219 1218 239 1143 q 214 1251 214 1236 q 248 1301 214 1291 q 264 1304 256 1304 q 318 1241 302 1304 q 424 1192 337 1192 q 489 1204 463 1192 q 523 1241 515 1217 q 578 1304 540 1304 q 594 1301 586 1304 q 624 1277 620 1293 q 627 1249 627 1260 q 623 1218 627 1234 q 420 1062 581 1065 z "},"ĕ":{"ha":786,"x_min":30,"x_max":774,"o":"m 258 -1 q 122 32 174 -1 q 58 134 68 66 q 30 570 30 349 q 47 834 30 741 q 112 964 64 928 q 251 1001 159 1001 q 531 986 416 1001 q 704 931 645 970 q 764 817 764 891 q 741 714 764 751 q 685 667 719 677 q 617 656 651 656 q 557 663 591 656 q 486 671 511 671 q 429 635 429 671 q 446 607 429 612 q 484 601 464 601 q 542 607 506 601 q 587 612 571 612 q 654 593 628 612 q 687 500 687 568 q 661 423 687 447 q 598 393 635 399 q 524 387 561 387 q 479 384 499 386 q 448 375 460 382 q 436 353 436 368 q 454 327 436 332 q 490 323 472 323 q 566 331 519 323 q 629 337 602 337 q 774 177 774 337 q 729 65 774 104 q 573 13 684 27 q 258 -1 461 -1 m 416 1062 q 288 1103 342 1063 q 215 1218 235 1143 q 210 1251 210 1236 q 243 1301 210 1291 q 260 1304 252 1304 q 314 1241 298 1304 q 420 1192 333 1192 q 485 1204 458 1192 q 519 1241 511 1217 q 574 1304 536 1304 q 590 1301 582 1304 q 620 1277 616 1293 q 623 1249 623 1260 q 618 1218 623 1234 q 416 1062 577 1065 z "},"Ė":{"ha":793,"x_min":35,"x_max":780,"o":"m 264 -1 q 127 32 179 -1 q 64 134 73 66 q 35 570 35 349 q 52 834 35 741 q 117 964 69 928 q 256 1001 165 1001 q 536 986 422 1001 q 710 931 650 970 q 769 817 769 891 q 747 714 769 751 q 690 667 724 677 q 623 656 656 656 q 562 663 597 656 q 491 671 517 671 q 434 635 434 671 q 452 607 434 612 q 490 601 469 601 q 547 607 511 601 q 592 612 576 612 q 659 593 633 612 q 692 500 692 568 q 667 423 692 447 q 604 393 641 399 q 529 387 566 387 q 485 384 505 386 q 453 375 465 382 q 441 353 441 368 q 459 327 441 332 q 496 323 477 323 q 571 331 524 323 q 635 337 608 337 q 780 177 780 337 q 735 65 780 104 q 578 13 690 27 q 264 -1 467 -1 m 406 1078 q 313 1156 313 1078 q 409 1235 313 1235 q 477 1217 453 1235 q 502 1166 502 1198 q 406 1078 502 1078 z "},"ė":{"ha":786,"x_min":30,"x_max":774,"o":"m 258 -1 q 122 32 174 -1 q 58 134 68 66 q 30 570 30 349 q 47 834 30 741 q 112 964 64 928 q 251 1001 159 1001 q 531 986 416 1001 q 704 931 645 970 q 764 817 764 891 q 741 714 764 751 q 685 667 719 677 q 617 656 651 656 q 557 663 591 656 q 486 671 511 671 q 429 635 429 671 q 446 607 429 612 q 484 601 464 601 q 542 607 506 601 q 587 612 571 612 q 654 593 628 612 q 687 500 687 568 q 661 423 687 447 q 598 393 635 399 q 524 387 561 387 q 479 384 499 386 q 448 375 460 382 q 436 353 436 368 q 454 327 436 332 q 490 323 472 323 q 566 331 519 323 q 629 337 602 337 q 774 177 774 337 q 729 65 774 104 q 573 13 684 27 q 258 -1 461 -1 m 401 1078 q 309 1156 309 1078 q 405 1235 309 1235 q 473 1217 449 1235 q 498 1166 498 1198 q 401 1078 498 1078 z "},"Ę":{"ha":793,"x_min":35,"x_max":779,"o":"m 587 -322 q 510 -304 540 -322 q 467 -257 481 -286 q 454 -192 454 -227 q 529 -9 454 -104 q 532 -1 532 -5 q 520 7 532 7 q 471 4 513 7 q 260 -1 408 -1 q 126 33 178 -1 q 64 134 73 66 q 35 570 35 349 q 52 834 35 741 q 117 964 69 928 q 256 1001 164 1001 q 536 986 421 1001 q 710 931 650 970 q 769 817 769 891 q 747 714 769 751 q 690 667 724 677 q 622 656 656 656 q 562 663 596 656 q 491 671 516 671 q 434 635 434 671 q 489 601 434 601 q 547 607 511 601 q 592 612 576 612 q 692 500 692 612 q 603 393 692 408 q 528 386 566 387 q 473 382 490 385 q 441 353 441 376 q 495 323 441 323 q 571 331 524 323 q 634 337 608 337 q 694 328 667 337 q 779 177 779 302 q 764 101 779 132 q 711 50 748 71 q 683 33 692 40 q 625 -59 666 18 q 584 -191 584 -134 q 613 -225 584 -225 q 650 -204 635 -225 q 704 -165 677 -165 q 730 -174 717 -165 q 747 -205 747 -188 q 729 -255 747 -227 q 587 -322 685 -322 z "},"ę":{"ha":785,"x_min":30,"x_max":774,"o":"m 581 -322 q 505 -304 534 -322 q 462 -257 475 -286 q 448 -192 448 -227 q 524 -9 448 -104 q 527 -1 527 -5 q 515 7 527 7 q 465 4 507 7 q 255 -1 402 -1 q 120 33 173 -1 q 59 134 68 66 q 30 570 30 349 q 47 834 30 741 q 111 964 64 928 q 251 1001 159 1001 q 530 986 416 1001 q 704 931 645 970 q 764 817 764 891 q 741 714 764 751 q 685 667 719 677 q 616 656 650 656 q 556 663 591 656 q 486 671 511 671 q 429 635 429 671 q 484 601 429 601 q 542 607 506 601 q 587 612 571 612 q 687 500 687 612 q 597 393 687 408 q 522 386 560 387 q 468 382 484 385 q 436 353 436 376 q 490 323 436 323 q 566 331 518 323 q 629 337 602 337 q 689 328 662 337 q 774 177 774 302 q 758 101 774 132 q 706 50 743 71 q 677 33 687 40 q 619 -59 661 18 q 578 -191 578 -134 q 608 -225 578 -225 q 644 -204 630 -225 q 699 -165 672 -165 q 724 -174 711 -165 q 742 -205 742 -188 q 724 -255 742 -227 q 581 -322 680 -322 z "},"Ě":{"ha":793,"x_min":35,"x_max":780,"o":"m 264 -1 q 127 32 179 -1 q 64 134 73 66 q 35 570 35 349 q 52 834 35 741 q 117 964 69 928 q 256 1001 165 1001 q 536 986 422 1001 q 710 931 650 970 q 769 817 769 891 q 747 714 769 751 q 690 667 724 677 q 623 656 656 656 q 562 663 597 656 q 491 671 517 671 q 434 635 434 671 q 452 607 434 612 q 490 601 469 601 q 547 607 511 601 q 592 612 576 612 q 659 593 633 612 q 692 500 692 568 q 667 423 692 447 q 604 393 641 399 q 529 387 566 387 q 485 384 505 386 q 453 375 465 382 q 441 353 441 368 q 459 327 441 332 q 496 323 477 323 q 571 331 524 323 q 635 337 608 337 q 780 177 780 337 q 735 65 780 104 q 578 13 690 27 q 264 -1 467 -1 m 414 1062 q 370 1072 389 1062 q 327 1103 351 1081 q 229 1213 273 1152 q 208 1269 208 1242 q 228 1316 208 1294 q 269 1332 244 1332 q 329 1305 302 1332 q 398 1232 370 1265 q 413 1223 406 1223 q 427 1231 420 1223 q 498 1305 467 1274 q 558 1332 526 1332 q 600 1316 583 1332 q 621 1268 621 1294 q 599 1213 621 1242 q 502 1103 555 1152 q 459 1072 477 1081 q 414 1062 441 1062 z "},"ě":{"ha":786,"x_min":30,"x_max":774,"o":"m 258 -1 q 122 32 174 -1 q 58 134 68 66 q 30 570 30 349 q 47 834 30 741 q 112 964 64 928 q 251 1001 159 1001 q 531 986 416 1001 q 704 931 645 970 q 764 817 764 891 q 741 714 764 751 q 685 667 719 677 q 617 656 651 656 q 557 663 591 656 q 486 671 511 671 q 429 635 429 671 q 446 607 429 612 q 484 601 464 601 q 542 607 506 601 q 587 612 571 612 q 654 593 628 612 q 687 500 687 568 q 661 423 687 447 q 598 393 635 399 q 524 387 561 387 q 479 384 499 386 q 448 375 460 382 q 436 353 436 368 q 454 327 436 332 q 490 323 472 323 q 566 331 519 323 q 629 337 602 337 q 774 177 774 337 q 729 65 774 104 q 573 13 684 27 q 258 -1 461 -1 m 410 1062 q 366 1072 385 1062 q 323 1103 347 1081 q 225 1213 269 1152 q 203 1269 203 1242 q 224 1316 203 1294 q 265 1332 240 1332 q 325 1305 298 1332 q 394 1232 366 1265 q 409 1223 401 1223 q 423 1231 416 1223 q 494 1305 463 1274 q 554 1332 522 1332 q 595 1316 579 1332 q 616 1268 616 1294 q 595 1213 616 1242 q 498 1103 551 1152 q 455 1072 473 1081 q 410 1062 437 1062 z "},"Ĝ":{"ha":873,"x_min":14,"x_max":865,"o":"m 453 -1 q 107 144 214 -1 q 14 488 14 269 q 122 854 14 716 q 453 1001 237 1001 q 742 911 631 1001 q 860 717 839 832 q 865 664 865 688 q 757 510 865 559 q 650 483 698 483 q 555 543 591 483 q 525 581 543 564 q 486 595 509 595 q 432 550 450 595 q 414 441 414 506 q 437 339 414 379 q 497 281 459 299 q 581 262 534 262 q 603 286 603 262 q 568 324 603 324 q 560 323 565 324 q 549 323 555 323 q 501 376 501 323 q 530 425 501 414 q 646 436 559 436 q 755 419 714 436 q 816 361 797 403 q 835 241 835 319 q 740 56 835 112 q 453 -1 644 -1 m 583 1062 q 524 1088 551 1062 q 452 1163 492 1121 q 438 1171 446 1171 q 423 1162 431 1171 q 354 1088 395 1128 q 294 1062 327 1062 q 253 1078 269 1062 q 233 1125 233 1100 q 254 1181 233 1152 q 352 1291 298 1242 q 395 1322 376 1313 q 439 1332 414 1332 q 484 1322 466 1332 q 527 1291 503 1313 q 624 1181 581 1242 q 646 1126 646 1152 q 625 1078 646 1100 q 583 1062 608 1062 z "},"ĝ":{"ha":879,"x_min":15,"x_max":865,"o":"m 454 -1 q 108 144 215 -1 q 15 488 15 269 q 123 854 15 716 q 454 1001 238 1001 q 743 911 631 1001 q 861 717 840 832 q 865 664 865 688 q 758 510 865 559 q 650 483 699 483 q 555 543 592 483 q 526 581 543 564 q 486 595 510 595 q 433 550 451 595 q 415 441 415 506 q 437 339 415 379 q 497 281 460 299 q 581 262 535 262 q 604 286 604 262 q 569 324 604 324 q 561 323 566 324 q 550 323 556 323 q 502 376 502 323 q 531 425 502 414 q 646 436 560 436 q 756 419 715 436 q 817 361 798 403 q 836 241 836 319 q 740 56 836 112 q 454 -1 645 -1 m 584 1062 q 524 1088 551 1062 q 453 1163 492 1121 q 439 1171 446 1171 q 424 1162 431 1171 q 355 1088 396 1128 q 295 1062 328 1062 q 254 1078 270 1062 q 233 1125 233 1100 q 255 1181 233 1152 q 353 1291 298 1242 q 396 1322 376 1313 q 439 1332 415 1332 q 485 1322 467 1332 q 528 1291 503 1313 q 625 1181 581 1242 q 646 1126 646 1152 q 625 1078 646 1100 q 584 1062 609 1062 z "},"Ğ":{"ha":873,"x_min":14,"x_max":865,"o":"m 453 -1 q 107 144 214 -1 q 14 488 14 269 q 122 854 14 716 q 453 1001 237 1001 q 742 911 631 1001 q 860 717 839 832 q 865 664 865 688 q 757 510 865 559 q 650 483 698 483 q 555 543 591 483 q 525 581 543 564 q 486 595 509 595 q 432 550 450 595 q 414 441 414 506 q 437 339 414 379 q 497 281 459 299 q 581 262 534 262 q 603 286 603 262 q 568 324 603 324 q 560 323 565 324 q 549 323 555 323 q 501 376 501 323 q 530 425 501 414 q 646 436 559 436 q 755 419 714 436 q 816 361 797 403 q 835 241 835 319 q 740 56 835 112 q 453 -1 644 -1 m 439 1062 q 311 1103 364 1063 q 237 1218 257 1143 q 233 1251 233 1236 q 266 1301 233 1291 q 282 1304 275 1304 q 336 1241 320 1304 q 442 1192 355 1192 q 507 1204 481 1192 q 541 1241 534 1217 q 597 1304 558 1304 q 612 1301 604 1304 q 642 1277 638 1293 q 646 1249 646 1260 q 641 1218 646 1234 q 439 1062 600 1065 z "},"ğ":{"ha":879,"x_min":15,"x_max":865,"o":"m 454 -1 q 108 144 215 -1 q 15 488 15 269 q 123 854 15 716 q 454 1001 238 1001 q 743 911 631 1001 q 861 717 840 832 q 865 664 865 688 q 758 510 865 559 q 650 483 699 483 q 555 543 592 483 q 526 581 543 564 q 486 595 510 595 q 433 550 451 595 q 415 441 415 506 q 437 339 415 379 q 497 281 460 299 q 581 262 535 262 q 604 286 604 262 q 569 324 604 324 q 561 323 566 324 q 550 323 556 323 q 502 376 502 323 q 531 425 502 414 q 646 436 560 436 q 756 419 715 436 q 817 361 798 403 q 836 241 836 319 q 740 56 836 112 q 454 -1 645 -1 m 439 1062 q 311 1103 365 1063 q 238 1218 258 1143 q 233 1251 233 1236 q 267 1301 233 1291 q 283 1304 275 1304 q 337 1241 321 1304 q 443 1192 356 1192 q 508 1204 481 1192 q 542 1241 534 1217 q 597 1304 559 1304 q 613 1301 605 1304 q 643 1277 639 1293 q 646 1249 646 1260 q 642 1218 646 1234 q 439 1062 600 1065 z "},"Ġ":{"ha":873,"x_min":14,"x_max":865,"o":"m 453 -1 q 107 144 214 -1 q 14 488 14 269 q 122 854 14 716 q 453 1001 237 1001 q 742 911 631 1001 q 860 717 839 832 q 865 664 865 688 q 757 510 865 559 q 650 483 698 483 q 555 543 591 483 q 525 581 543 564 q 486 595 509 595 q 432 550 450 595 q 414 441 414 506 q 437 339 414 379 q 497 281 459 299 q 581 262 534 262 q 603 286 603 262 q 568 324 603 324 q 560 323 565 324 q 549 323 555 323 q 501 376 501 323 q 530 425 501 414 q 646 436 559 436 q 755 419 714 436 q 816 361 797 403 q 835 241 835 319 q 740 56 835 112 q 453 -1 644 -1 m 437 1078 q 345 1156 345 1078 q 441 1235 345 1235 q 509 1217 485 1235 q 534 1166 534 1198 q 437 1078 534 1078 z "},"ġ":{"ha":879,"x_min":15,"x_max":865,"o":"m 454 -1 q 108 144 215 -1 q 15 488 15 269 q 123 854 15 716 q 454 1001 238 1001 q 743 911 631 1001 q 861 717 840 832 q 865 664 865 688 q 758 510 865 559 q 650 483 699 483 q 555 543 592 483 q 526 581 543 564 q 486 595 510 595 q 433 550 451 595 q 415 441 415 506 q 437 339 415 379 q 497 281 460 299 q 581 262 535 262 q 604 286 604 262 q 569 324 604 324 q 561 323 566 324 q 550 323 556 323 q 502 376 502 323 q 531 425 502 414 q 646 436 560 436 q 756 419 715 436 q 817 361 798 403 q 836 241 836 319 q 740 56 836 112 q 454 -1 645 -1 m 438 1078 q 346 1156 346 1078 q 441 1235 346 1235 q 510 1217 486 1235 q 534 1166 534 1198 q 438 1078 534 1078 z "},"Ģ":{"ha":873,"x_min":14,"x_max":865,"o":"m 453 -1 q 107 144 214 -1 q 14 488 14 269 q 122 854 14 716 q 453 1001 237 1001 q 742 911 631 1001 q 860 717 839 832 q 865 664 865 688 q 757 510 865 559 q 650 483 698 483 q 555 543 591 483 q 525 581 543 564 q 486 595 509 595 q 432 550 450 595 q 414 441 414 506 q 437 339 414 379 q 497 281 459 299 q 581 262 534 262 q 603 286 603 262 q 568 324 603 324 q 560 323 565 324 q 549 323 555 323 q 501 376 501 323 q 530 425 501 414 q 646 436 559 436 q 755 419 714 436 q 816 361 797 403 q 835 241 835 319 q 740 56 835 112 q 453 -1 644 -1 m 404 -363 q 356 -351 376 -363 q 336 -317 336 -338 q 349 -273 336 -296 q 384 -250 363 -250 q 407 -256 397 -250 q 430 -263 420 -263 q 448 -256 440 -263 q 454 -248 454 -252 q 441 -241 454 -241 q 361 -218 386 -241 q 336 -152 336 -196 q 346 -109 336 -128 q 432 -68 368 -68 q 494 -84 469 -68 q 530 -129 518 -101 q 543 -193 543 -157 q 507 -308 543 -258 q 404 -363 469 -363 z "},"ģ":{"ha":879,"x_min":15,"x_max":865,"o":"m 454 -1 q 108 144 215 -1 q 15 488 15 269 q 123 854 15 716 q 454 1001 238 1001 q 743 911 631 1001 q 861 717 840 832 q 865 664 865 688 q 758 510 865 559 q 650 483 699 483 q 555 543 592 483 q 526 581 543 564 q 486 595 510 595 q 433 550 451 595 q 415 441 415 506 q 437 339 415 379 q 497 281 460 299 q 581 262 535 262 q 604 286 604 262 q 569 324 604 324 q 561 323 566 324 q 550 323 556 323 q 502 376 502 323 q 531 425 502 414 q 646 436 560 436 q 756 419 715 436 q 817 361 798 403 q 836 241 836 319 q 740 56 836 112 q 454 -1 645 -1 m 447 1062 q 386 1079 410 1062 q 349 1123 361 1095 q 337 1187 337 1152 q 372 1302 337 1253 q 475 1358 411 1358 q 524 1345 504 1358 q 544 1311 544 1333 q 530 1267 544 1290 q 496 1244 517 1244 q 472 1250 482 1244 q 449 1257 460 1257 q 431 1251 439 1257 q 425 1242 425 1246 q 437 1235 425 1235 q 518 1213 493 1235 q 544 1146 544 1190 q 534 1103 544 1122 q 447 1062 511 1062 z "},"Ĥ":{"ha":1015,"x_min":14,"x_max":966,"o":"m 741 -1 q 587 43 645 -1 q 536 151 536 81 q 538 182 536 170 q 543 216 541 195 q 553 317 553 299 q 541 346 553 334 q 502 359 530 359 q 455 321 455 359 q 467 167 455 258 q 469 134 469 149 q 457 72 469 103 q 402 20 445 41 q 283 -1 360 -1 q 130 69 174 -1 q 80 310 86 139 q 73 341 79 330 q 51 369 66 353 q 14 489 14 405 q 61 610 14 574 q 79 631 74 621 q 85 660 84 642 q 105 876 92 776 q 163 971 113 939 q 287 1001 211 1001 q 431 960 377 1001 q 477 861 477 925 q 476 830 477 842 q 463 697 463 740 q 512 652 463 652 q 560 695 560 652 q 548 821 560 732 q 545 856 545 839 q 558 923 545 889 q 617 979 572 956 q 745 1001 663 1001 q 885 964 838 1001 q 949 834 932 928 q 966 570 966 741 q 938 134 966 349 q 876 33 928 66 q 741 -1 823 -1 m 634 1062 q 574 1088 602 1062 q 503 1163 543 1121 q 489 1171 496 1171 q 474 1162 481 1171 q 405 1088 446 1128 q 345 1062 378 1062 q 304 1078 320 1062 q 283 1125 283 1100 q 305 1181 283 1152 q 403 1291 349 1242 q 446 1322 427 1313 q 490 1332 465 1332 q 535 1322 517 1332 q 578 1291 553 1313 q 675 1181 631 1242 q 696 1126 696 1152 q 675 1078 696 1100 q 634 1062 659 1062 z "},"ĥ":{"ha":1013,"x_min":15,"x_max":967,"o":"m 742 -1 q 587 43 646 -1 q 537 151 537 81 q 539 182 537 170 q 543 216 541 195 q 553 317 553 299 q 542 346 553 334 q 503 359 530 359 q 456 321 456 359 q 467 167 456 258 q 470 134 470 149 q 458 72 470 103 q 403 20 446 41 q 284 -1 361 -1 q 131 69 174 -1 q 81 310 87 139 q 73 341 80 330 q 52 369 66 353 q 15 489 15 405 q 62 610 15 574 q 80 631 75 621 q 85 660 85 642 q 106 876 92 776 q 164 971 114 939 q 288 1001 212 1001 q 431 960 378 1001 q 478 861 478 925 q 477 830 478 842 q 463 697 463 740 q 513 652 463 652 q 561 695 561 652 q 549 821 561 732 q 546 856 546 839 q 559 923 546 889 q 618 979 572 956 q 746 1001 663 1001 q 886 964 838 1001 q 950 834 933 928 q 967 570 967 741 q 939 134 967 349 q 876 33 929 66 q 742 -1 823 -1 m 663 1062 q 604 1088 631 1062 q 532 1163 572 1121 q 518 1171 526 1171 q 503 1162 511 1171 q 434 1088 475 1128 q 374 1062 407 1062 q 333 1078 349 1062 q 313 1125 313 1100 q 334 1181 313 1152 q 432 1291 378 1242 q 475 1322 456 1313 q 519 1332 494 1332 q 564 1322 546 1332 q 607 1291 583 1313 q 704 1181 661 1242 q 726 1126 726 1152 q 705 1078 726 1100 q 663 1062 688 1062 z "},"Ħ":{"ha":1046,"x_min":7,"x_max":1038,"o":"m 517 652 q 553 657 539 652 q 567 674 567 663 q 516 692 567 692 q 469 675 469 692 q 517 652 469 652 m 747 -1 q 593 43 652 -1 q 543 151 543 81 q 548 210 543 170 q 559 317 559 299 q 547 346 559 334 q 508 359 536 359 q 462 322 462 359 q 473 174 462 256 q 475 134 475 149 q 447 45 475 74 q 290 -1 401 -1 q 136 69 180 -1 q 87 310 92 139 q 79 341 86 330 q 57 369 72 353 q 20 489 20 405 q 67 610 20 574 q 92 673 92 630 q 75 690 92 690 q 26 702 45 690 q 7 758 7 714 q 21 799 7 784 q 76 821 36 814 q 106 843 104 825 q 111 876 109 860 q 170 971 119 939 q 294 1001 217 1001 q 435 962 381 1001 q 484 846 484 926 q 514 831 484 831 q 552 846 552 831 q 569 930 552 898 q 751 1001 607 1001 q 889 966 842 1001 q 954 843 936 932 q 962 828 956 832 q 979 821 967 823 q 1025 800 1012 815 q 1038 757 1038 785 q 1025 712 1038 726 q 991 695 1013 699 q 975 688 978 693 q 971 673 971 683 q 972 570 972 625 q 944 134 972 349 q 882 33 935 66 q 747 -1 829 -1 z "},"ħ":{"ha":1052,"x_min":7,"x_max":1038,"o":"m 517 652 q 554 657 540 652 q 568 674 568 663 q 517 692 568 692 q 469 675 469 692 q 517 652 469 652 m 748 -1 q 593 43 652 -1 q 543 151 543 81 q 549 210 543 170 q 559 317 559 299 q 548 346 559 334 q 509 359 536 359 q 463 322 463 359 q 473 174 463 256 q 476 134 476 149 q 448 45 476 74 q 290 -1 401 -1 q 137 69 181 -1 q 87 310 93 139 q 80 341 87 330 q 58 369 73 353 q 21 489 21 405 q 68 610 21 574 q 93 673 93 630 q 75 690 93 690 q 27 702 46 690 q 7 758 7 714 q 22 799 7 784 q 77 821 37 814 q 107 843 105 825 q 111 876 109 860 q 170 971 120 939 q 294 1001 218 1001 q 436 962 382 1001 q 485 846 485 926 q 515 831 485 831 q 553 846 553 831 q 570 930 553 898 q 752 1001 608 1001 q 889 966 842 1001 q 955 843 937 932 q 962 828 957 832 q 979 821 968 823 q 1025 800 1013 815 q 1038 757 1038 785 q 1026 712 1038 726 q 991 695 1013 699 q 975 688 979 693 q 972 673 972 683 q 973 570 973 625 q 945 134 973 349 q 883 33 935 66 q 748 -1 830 -1 z "},"Ĩ":{"ha":506,"x_min":35,"x_max":465,"o":"m 267 -1 l 260 -1 q 127 32 179 -1 q 64 134 73 66 q 35 570 35 349 q 52 834 35 741 q 117 964 69 928 q 256 1001 165 1001 q 384 979 339 1001 q 443 923 429 956 q 456 857 456 890 q 454 821 456 840 q 438 584 438 703 q 464 176 438 364 q 465 150 465 163 q 415 43 465 81 q 267 -1 358 0 m 329 1062 q 245 1093 281 1062 q 217 1120 230 1106 q 193 1143 205 1133 q 169 1152 180 1152 q 155 1137 155 1152 q 141 1080 153 1098 q 100 1062 128 1062 q 56 1077 67 1062 q 44 1121 44 1093 q 61 1208 44 1173 q 105 1262 77 1243 q 168 1280 133 1280 q 238 1262 211 1280 q 283 1223 264 1244 q 332 1190 313 1190 q 346 1205 345 1190 q 360 1262 347 1244 q 400 1280 372 1280 q 445 1265 433 1280 q 456 1221 456 1250 q 439 1133 456 1168 q 393 1080 422 1097 q 329 1062 364 1062 z "},"ĩ":{"ha":501,"x_min":30,"x_max":463,"o":"m 262 -1 l 255 -1 q 122 32 174 -1 q 58 134 68 66 q 30 570 30 349 q 47 834 30 741 q 112 964 64 928 q 251 1001 159 1001 q 379 979 334 1001 q 437 923 424 956 q 451 857 451 890 q 448 821 451 840 q 433 584 433 703 q 458 176 433 364 q 460 150 460 163 q 410 43 460 81 q 262 -1 353 0 m 335 1062 q 251 1093 287 1062 q 223 1120 236 1106 q 199 1143 211 1133 q 175 1152 186 1152 q 161 1137 161 1152 q 147 1080 159 1098 q 106 1062 134 1062 q 62 1077 73 1062 q 50 1121 50 1093 q 67 1208 50 1173 q 111 1262 83 1243 q 174 1280 139 1280 q 244 1262 217 1280 q 289 1223 271 1244 q 338 1190 319 1190 q 352 1205 351 1190 q 366 1262 353 1244 q 406 1280 378 1280 q 451 1265 439 1280 q 463 1221 463 1250 q 446 1133 463 1168 q 399 1080 429 1097 q 335 1062 370 1062 z "},"Ī":{"ha":506,"x_min":35,"x_max":465,"o":"m 267 -1 l 260 -1 q 127 32 179 -1 q 64 134 73 66 q 35 570 35 349 q 52 834 35 741 q 117 964 69 928 q 256 1001 165 1001 q 384 979 339 1001 q 443 923 429 956 q 456 857 456 890 q 454 821 456 840 q 438 584 438 703 q 464 176 438 364 q 465 150 465 163 q 415 43 465 81 q 267 -1 358 0 m 202 1078 l 121 1079 q 65 1092 86 1079 q 44 1148 44 1105 q 60 1194 44 1178 q 240 1224 90 1223 q 362 1221 307 1224 q 435 1203 414 1219 q 456 1145 456 1187 q 438 1097 456 1111 q 383 1082 419 1083 q 202 1078 293 1078 z "},"ī":{"ha":501,"x_min":30,"x_max":463,"o":"m 262 -1 l 255 -1 q 122 32 174 -1 q 58 134 68 66 q 30 570 30 349 q 47 834 30 741 q 112 964 64 928 q 251 1001 159 1001 q 379 979 334 1001 q 437 923 424 956 q 451 857 451 890 q 448 821 451 840 q 433 584 433 703 q 458 176 433 364 q 460 150 460 163 q 410 43 460 81 q 262 -1 353 0 m 208 1078 l 127 1079 q 71 1092 92 1079 q 50 1148 50 1105 q 66 1194 50 1178 q 246 1224 96 1223 q 368 1221 313 1224 q 441 1203 420 1219 q 463 1145 463 1187 q 444 1097 463 1111 q 389 1082 425 1083 q 208 1078 299 1078 z "},"Ĭ":{"ha":506,"x_min":35,"x_max":465,"o":"m 267 -1 l 260 -1 q 127 32 179 -1 q 64 134 73 66 q 35 570 35 349 q 52 834 35 741 q 117 964 69 928 q 256 1001 165 1001 q 384 979 339 1001 q 443 923 429 956 q 456 857 456 890 q 454 821 456 840 q 438 584 438 703 q 464 176 438 364 q 465 150 465 163 q 415 43 465 81 q 267 -1 358 0 m 250 1062 q 121 1103 175 1063 q 48 1218 68 1143 q 43 1251 43 1236 q 77 1301 43 1291 q 93 1304 85 1304 q 147 1241 131 1304 q 253 1192 166 1192 q 318 1204 292 1192 q 352 1241 345 1217 q 408 1304 369 1304 q 423 1301 415 1304 q 453 1277 449 1293 q 456 1249 456 1260 q 452 1218 456 1234 q 250 1062 410 1065 z "},"ĭ":{"ha":501,"x_min":30,"x_max":463,"o":"m 262 -1 l 255 -1 q 122 32 174 -1 q 58 134 68 66 q 30 570 30 349 q 47 834 30 741 q 112 964 64 928 q 251 1001 159 1001 q 379 979 334 1001 q 437 923 424 956 q 451 857 451 890 q 448 821 451 840 q 433 584 433 703 q 458 176 433 364 q 460 150 460 163 q 410 43 460 81 q 262 -1 353 0 m 256 1062 q 127 1103 181 1063 q 54 1218 74 1143 q 50 1251 50 1236 q 83 1301 50 1291 q 99 1304 92 1304 q 153 1241 137 1304 q 259 1192 172 1192 q 324 1204 298 1192 q 358 1241 351 1217 q 414 1304 375 1304 q 429 1301 421 1304 q 459 1277 455 1293 q 463 1249 463 1260 q 458 1218 463 1234 q 256 1062 416 1065 z "},"Į":{"ha":507,"x_min":35,"x_max":466,"o":"m 277 -322 q 200 -304 230 -322 q 157 -257 171 -286 q 144 -192 144 -227 q 212 -18 144 -109 q 216 -7 216 -12 q 203 4 216 1 q 64 134 79 26 q 35 570 35 349 q 52 834 35 741 q 117 964 69 928 q 256 1001 165 1001 q 385 979 339 1001 q 443 923 430 956 q 456 857 456 889 q 454 821 456 840 q 438 584 438 703 q 465 170 438 370 q 466 148 466 159 q 449 82 466 110 q 386 25 427 45 q 358 8 368 16 q 339 -16 349 1 q 293 -102 313 -58 q 274 -191 274 -146 q 303 -225 274 -225 q 340 -204 326 -225 q 394 -165 368 -165 q 420 -174 407 -165 q 437 -205 437 -188 q 418 -255 437 -228 q 277 -322 373 -322 z "},"į":{"ha":499,"x_min":30,"x_max":460,"o":"m 271 -322 q 195 -304 224 -322 q 152 -257 165 -286 q 138 -192 138 -227 q 207 -18 138 -109 q 211 -7 211 -12 q 197 4 211 1 q 58 134 73 26 q 30 570 30 349 q 47 834 30 741 q 112 964 64 928 q 251 1001 159 1001 q 379 979 334 1001 q 438 923 425 956 q 451 857 451 889 q 448 821 451 840 q 433 584 433 703 q 459 170 433 370 q 460 148 460 159 q 444 82 460 110 q 380 25 422 45 q 353 8 362 16 q 334 -16 343 1 q 288 -102 307 -58 q 269 -191 269 -146 q 298 -225 269 -225 q 334 -204 320 -225 q 389 -165 362 -165 q 414 -174 401 -165 q 432 -205 432 -188 q 413 -255 432 -228 q 271 -322 368 -322 z "},"İ":{"ha":506,"x_min":35,"x_max":465,"o":"m 267 -1 l 260 -1 q 127 32 179 -1 q 64 134 73 66 q 35 570 35 349 q 52 834 35 741 q 117 964 69 928 q 256 1001 165 1001 q 384 979 339 1001 q 443 923 429 956 q 456 857 456 890 q 454 821 456 840 q 438 584 438 703 q 464 176 438 364 q 465 150 465 163 q 415 43 465 81 q 267 -1 358 0 m 248 1078 q 156 1156 156 1078 q 252 1235 156 1235 q 320 1217 296 1235 q 345 1166 345 1198 q 248 1078 345 1078 z "},"Ĳ":{"ha":1077,"x_min":35,"x_max":1036,"o":"m 267 -1 l 260 -1 q 127 32 179 -1 q 64 134 73 66 q 35 570 35 349 q 52 834 35 741 q 117 964 69 928 q 256 1001 165 1001 q 384 979 339 1001 q 443 923 429 956 q 456 857 456 890 q 454 821 456 840 q 438 584 438 703 q 464 176 438 364 q 465 150 465 163 q 415 43 465 81 q 267 -1 358 0 m 635 -1 q 566 9 594 -1 q 522 42 537 18 q 507 110 507 66 q 608 200 507 200 q 640 208 629 200 q 656 240 652 216 q 661 312 661 264 q 621 730 661 431 q 606 849 606 837 q 656 957 606 919 q 811 1001 715 1001 q 945 968 892 1001 q 1007 865 998 935 q 1036 408 1036 631 q 998 175 1036 265 q 872 42 960 84 q 635 -1 784 -1 z "},"ĳ":{"ha":1072,"x_min":30,"x_max":1034,"o":"m 262 -1 l 255 -1 q 122 32 174 -1 q 58 134 68 66 q 30 570 30 349 q 47 834 30 741 q 112 964 64 928 q 251 1001 159 1001 q 379 979 334 1001 q 437 923 424 956 q 451 857 451 890 q 448 821 451 840 q 433 584 433 703 q 458 176 433 364 q 460 150 460 163 q 410 43 460 81 q 262 -1 353 0 m 633 -1 q 563 9 591 -1 q 519 42 534 18 q 505 110 505 66 q 605 200 505 200 q 637 208 626 200 q 654 240 649 216 q 659 312 659 264 q 618 730 659 431 q 604 849 604 837 q 654 957 604 919 q 808 1001 713 1001 q 943 968 890 1001 q 1004 865 996 935 q 1034 408 1034 631 q 995 175 1034 265 q 869 42 957 84 q 633 -1 781 -1 z "},"Ĵ":{"ha":537,"x_min":-33,"x_max":496,"o":"m 96 -1 q 26 9 54 -1 q -18 42 -3 18 q -33 110 -33 66 q 68 200 -33 200 q 100 208 89 200 q 117 240 112 216 q 121 312 121 264 q 81 730 121 431 q 66 849 66 837 q 117 957 66 919 q 271 1001 176 1001 q 406 968 353 1001 q 467 865 458 935 q 496 408 496 631 q 458 175 496 265 q 332 42 420 84 q 96 -1 244 -1 m 414 1062 q 354 1088 381 1062 q 283 1163 322 1121 q 269 1171 276 1171 q 254 1162 261 1171 q 184 1088 226 1128 q 125 1062 157 1062 q 83 1078 100 1062 q 63 1125 63 1100 q 85 1181 63 1152 q 182 1291 128 1242 q 225 1322 206 1313 q 269 1332 245 1332 q 315 1322 296 1332 q 357 1291 333 1313 q 454 1181 411 1242 q 476 1126 476 1152 q 455 1078 476 1100 q 414 1062 439 1062 z "},"ĵ":{"ha":536,"x_min":-32,"x_max":497,"o":"m 96 -1 q 26 9 55 -1 q -17 42 -2 18 q -32 110 -32 66 q 68 200 -32 200 q 101 208 90 200 q 117 240 113 216 q 122 312 122 264 q 81 730 122 431 q 67 849 67 837 q 117 957 67 919 q 272 1001 176 1001 q 406 968 353 1001 q 468 865 459 935 q 497 408 497 631 q 459 175 497 265 q 333 42 420 84 q 96 -1 245 -1 m 414 1062 q 355 1088 382 1062 q 283 1163 323 1121 q 269 1171 277 1171 q 254 1162 262 1171 q 185 1088 227 1128 q 125 1062 158 1062 q 84 1078 100 1062 q 64 1125 64 1100 q 85 1181 64 1152 q 183 1291 129 1242 q 226 1322 207 1313 q 270 1332 245 1332 q 315 1322 297 1332 q 358 1291 334 1313 q 455 1181 412 1242 q 477 1126 477 1152 q 456 1078 477 1100 q 414 1062 439 1062 z "},"Ķ":{"ha":964,"x_min":35,"x_max":962,"o":"m 733 -1 q 632 22 676 -1 q 563 138 568 54 q 540 269 558 222 q 488 332 522 315 q 467 339 475 339 q 450 313 450 339 q 460 216 450 298 q 465 150 465 170 q 415 43 465 81 q 260 -1 357 -1 q 127 32 179 -1 q 64 134 73 66 q 35 570 35 349 q 52 834 35 741 q 117 964 69 928 q 256 1001 165 1001 q 385 979 339 1001 q 443 923 430 956 q 456 857 456 889 q 454 821 456 840 q 439 595 439 713 q 448 575 439 575 q 463 586 454 575 q 532 877 515 660 q 684 1001 541 1001 q 743 995 712 1001 q 863 938 827 978 q 899 832 899 897 q 867 683 899 750 q 779 557 835 616 q 765 528 765 542 q 784 497 765 509 q 917 363 871 441 q 962 194 962 285 q 944 109 962 149 q 888 42 927 69 q 785 3 849 14 q 733 -1 758 -1 m 463 -363 q 415 -351 435 -363 q 395 -317 395 -338 q 408 -273 395 -296 q 443 -250 422 -250 q 466 -256 456 -250 q 489 -263 479 -263 q 507 -256 499 -263 q 513 -248 513 -252 q 500 -241 513 -241 q 420 -218 445 -241 q 395 -152 395 -196 q 405 -109 395 -128 q 491 -68 427 -68 q 553 -84 528 -68 q 589 -129 577 -101 q 602 -193 602 -157 q 566 -308 602 -258 q 463 -363 528 -363 z "},"ķ":{"ha":956,"x_min":30,"x_max":956,"o":"m 728 -1 q 627 22 671 -1 q 558 138 563 54 q 534 269 553 222 q 483 332 516 315 q 461 339 470 339 q 444 313 444 339 q 454 216 444 298 q 460 150 460 170 q 410 43 460 81 q 255 -1 352 -1 q 122 32 174 -1 q 58 134 68 66 q 30 570 30 349 q 47 834 30 741 q 112 964 64 928 q 251 1001 159 1001 q 379 979 334 1001 q 438 923 425 956 q 451 857 451 889 q 448 821 451 840 q 433 595 434 713 q 442 575 433 575 q 457 586 449 575 q 526 877 510 660 q 679 1001 536 1001 q 737 995 707 1001 q 858 938 822 978 q 894 832 894 897 q 862 683 894 750 q 774 557 829 616 q 760 528 760 542 q 779 497 760 509 q 911 363 866 441 q 956 194 956 285 q 939 109 956 149 q 883 42 922 69 q 780 3 844 14 q 728 -1 753 -1 m 458 -363 q 409 -351 429 -363 q 389 -317 389 -338 q 403 -273 389 -296 q 437 -250 416 -250 q 460 -256 450 -250 q 484 -263 473 -263 q 502 -256 494 -263 q 508 -248 508 -252 q 495 -241 508 -241 q 414 -218 439 -241 q 389 -152 389 -196 q 399 -109 389 -128 q 486 -68 422 -68 q 547 -84 523 -68 q 584 -129 572 -101 q 596 -193 596 -157 q 561 -308 596 -258 q 458 -363 522 -363 z "},"Ĺ":{"ha":639,"x_min":35,"x_max":656,"o":"m 302 -1 q 166 22 218 -1 q 89 86 115 44 q 56 188 63 128 q 35 570 35 376 q 52 834 35 741 q 117 964 69 928 q 256 1001 164 1001 q 385 979 339 1001 q 443 923 430 956 q 456 856 456 889 q 454 802 456 839 q 438 338 438 585 q 479 279 438 279 q 509 280 494 279 q 538 281 525 281 q 626 253 596 281 q 656 153 656 224 q 571 37 656 74 q 302 -1 485 -1 m 250 1062 q 208 1078 224 1062 q 188 1126 188 1100 q 209 1181 188 1152 q 306 1291 252 1242 q 378 1332 350 1332 q 421 1312 400 1332 q 450 1265 450 1287 q 309 1088 450 1228 q 250 1062 282 1062 z "},"ĺ":{"ha":631,"x_min":30,"x_max":651,"o":"m 296 -1 q 161 22 212 -1 q 84 86 110 44 q 51 188 58 128 q 30 570 30 376 q 47 834 30 741 q 111 964 64 928 q 251 1001 159 1001 q 379 979 334 1001 q 438 923 425 956 q 451 856 451 889 q 448 802 451 839 q 433 338 433 585 q 473 279 433 279 q 504 280 488 279 q 532 281 519 281 q 621 253 591 281 q 651 153 651 224 q 565 37 651 74 q 296 -1 479 -1 m 244 1062 q 203 1078 219 1062 q 182 1126 182 1100 q 203 1181 182 1152 q 300 1291 247 1242 q 372 1332 345 1332 q 416 1312 395 1332 q 444 1265 444 1287 q 304 1088 444 1228 q 244 1062 277 1062 z "},"Ļ":{"ha":639,"x_min":35,"x_max":656,"o":"m 302 -1 q 166 22 218 -1 q 89 86 115 44 q 56 188 63 128 q 35 570 35 376 q 52 834 35 741 q 117 964 69 928 q 256 1001 164 1001 q 385 979 339 1001 q 443 923 430 956 q 456 856 456 889 q 454 802 456 839 q 438 338 438 585 q 479 279 438 279 q 509 280 494 279 q 538 281 525 281 q 626 253 596 281 q 656 153 656 224 q 571 37 656 74 q 302 -1 485 -1 m 311 -363 q 262 -351 282 -363 q 242 -317 242 -338 q 256 -273 242 -296 q 290 -250 269 -250 q 313 -256 303 -250 q 336 -263 326 -263 q 355 -256 347 -263 q 361 -248 361 -252 q 348 -241 361 -241 q 267 -218 292 -241 q 242 -152 242 -196 q 252 -109 242 -128 q 338 -68 275 -68 q 400 -84 376 -68 q 437 -129 425 -101 q 449 -193 449 -157 q 414 -308 449 -258 q 311 -363 375 -363 z "},"ļ":{"ha":631,"x_min":30,"x_max":651,"o":"m 296 -1 q 161 22 212 -1 q 84 86 110 44 q 51 188 58 128 q 30 570 30 376 q 47 834 30 741 q 111 964 64 928 q 251 1001 159 1001 q 379 979 334 1001 q 438 923 425 956 q 451 856 451 889 q 448 802 451 839 q 433 338 433 585 q 473 279 433 279 q 504 280 488 279 q 532 281 519 281 q 621 253 591 281 q 651 153 651 224 q 565 37 651 74 q 296 -1 479 -1 m 295 -363 q 247 -351 267 -363 q 227 -317 227 -338 q 240 -273 227 -296 q 275 -250 254 -250 q 298 -256 288 -250 q 321 -263 311 -263 q 339 -256 331 -263 q 345 -248 345 -252 q 332 -241 345 -241 q 252 -218 277 -241 q 227 -152 227 -196 q 237 -109 227 -128 q 323 -68 259 -68 q 385 -84 360 -68 q 421 -129 409 -101 q 433 -193 433 -157 q 398 -308 433 -258 q 295 -363 359 -363 z "},"Ľ":{"ha":759,"x_min":35,"x_max":772,"o":"m 302 -1 q 166 22 218 -1 q 89 86 115 44 q 56 188 63 128 q 35 570 35 376 q 52 834 35 741 q 117 964 69 928 q 256 1001 164 1001 q 385 979 339 1001 q 443 923 430 956 q 456 856 456 889 q 454 802 456 839 q 438 338 438 585 q 479 279 438 279 q 509 280 494 279 q 538 281 525 281 q 626 253 596 281 q 656 153 656 224 q 571 37 656 74 q 302 -1 485 -1 m 633 705 q 585 718 605 705 q 565 752 565 730 q 578 796 565 773 q 613 819 592 819 q 636 813 626 819 q 659 806 649 806 q 677 812 669 806 q 684 821 684 817 q 671 828 684 828 q 590 850 615 828 q 565 917 565 873 q 575 960 565 941 q 661 1001 597 1001 q 723 984 699 1001 q 760 940 747 968 q 772 876 772 911 q 736 761 772 810 q 633 705 698 705 z "},"ľ":{"ha":747,"x_min":30,"x_max":766,"o":"m 296 -1 q 161 22 212 -1 q 84 86 110 44 q 51 188 58 128 q 30 570 30 376 q 47 834 30 741 q 111 964 64 928 q 251 1001 159 1001 q 379 979 334 1001 q 438 923 425 956 q 451 856 451 889 q 448 802 451 839 q 433 338 433 585 q 473 279 433 279 q 504 280 488 279 q 532 281 519 281 q 621 253 591 281 q 651 153 651 224 q 565 37 651 74 q 296 -1 479 -1 m 628 705 q 579 718 600 705 q 559 752 559 730 q 573 796 559 773 q 608 819 587 819 q 631 813 621 819 q 654 806 644 806 q 672 812 664 806 q 678 821 678 817 q 665 828 678 828 q 585 850 610 828 q 559 917 559 873 q 570 960 559 941 q 656 1001 592 1001 q 718 984 693 1001 q 754 940 742 968 q 766 876 766 911 q 731 761 766 810 q 628 705 692 705 z "},"Ŀ":{"ha":794,"x_min":35,"x_max":793,"o":"m 302 -1 q 166 22 218 -1 q 89 86 115 44 q 56 188 63 128 q 35 570 35 376 q 52 834 35 741 q 117 964 69 928 q 256 1001 164 1001 q 385 979 339 1001 q 443 923 430 956 q 456 856 456 889 q 454 802 456 839 q 438 338 438 585 q 479 279 438 279 q 509 280 494 279 q 538 281 525 281 q 626 253 596 281 q 656 153 656 224 q 571 37 656 74 q 302 -1 485 -1 m 656 385 q 549 414 583 385 q 515 503 515 444 q 528 560 515 535 q 644 616 559 616 q 758 584 722 616 q 793 487 793 553 q 758 412 793 439 q 656 385 722 385 z "},"ŀ":{"ha":786,"x_min":30,"x_max":788,"o":"m 296 -1 q 161 22 212 -1 q 84 86 110 44 q 51 188 58 128 q 30 570 30 376 q 47 834 30 741 q 111 964 64 928 q 251 1001 159 1001 q 379 979 334 1001 q 438 923 425 956 q 451 856 451 889 q 448 802 451 839 q 433 338 433 585 q 473 279 433 279 q 504 280 488 279 q 532 281 519 281 q 621 253 591 281 q 651 153 651 224 q 565 37 651 74 q 296 -1 479 -1 m 652 385 q 544 414 577 385 q 510 503 510 444 q 524 560 510 535 q 639 616 553 616 q 753 584 718 616 q 788 487 788 553 q 752 412 788 439 q 652 385 716 385 z "},"Ł":{"ha":733,"x_min":-7,"x_max":731,"o":"m 377 -1 q 164 86 218 -1 q 132 188 138 128 q 121 213 130 213 q 109 211 116 213 q 85 207 97 207 q 15 254 48 207 q -7 311 -7 283 q 87 434 -7 363 q 111 483 111 452 l 111 570 q 127 834 111 741 q 192 964 144 928 q 332 1001 239 1001 q 459 979 414 1001 q 518 922 505 956 q 532 854 532 888 q 529 821 532 838 q 519 733 519 753 q 532 718 519 718 q 546 722 536 718 q 580 727 562 727 q 652 680 623 727 q 674 618 674 644 q 613 537 674 576 l 541 491 q 516 443 516 475 q 524 336 516 422 q 574 279 528 279 q 592 280 582 279 q 613 281 602 281 q 701 253 671 281 q 731 153 731 224 q 646 37 731 74 q 377 -1 560 -1 z "},"ł":{"ha":732,"x_min":-7,"x_max":732,"o":"m 378 -1 q 165 86 218 -1 q 133 188 139 128 q 121 213 131 213 q 110 211 117 213 q 86 207 98 207 q 16 254 49 207 q -7 311 -7 283 q 87 434 -7 363 q 111 483 111 452 l 111 570 q 128 834 111 741 q 193 964 145 928 q 332 1001 240 1001 q 460 979 414 1001 q 519 922 506 956 q 532 854 532 888 q 530 821 532 838 q 520 733 520 753 q 532 718 520 718 q 547 722 536 718 q 581 727 563 727 q 652 680 623 727 q 675 618 675 644 q 614 537 675 576 l 542 491 q 517 443 517 475 q 524 336 517 422 q 574 279 529 279 q 592 280 583 279 q 614 281 602 281 q 702 253 671 281 q 732 153 732 224 q 646 37 732 74 q 378 -1 561 -1 z "},"Ń":{"ha":995,"x_min":35,"x_max":954,"o":"m 729 -1 q 585 36 631 -1 q 511 145 538 72 q 410 427 418 398 q 397 442 406 442 q 390 425 390 442 q 410 167 391 313 q 413 134 413 149 q 401 72 413 103 q 346 20 389 41 q 241 -1 304 -1 q 111 41 155 -1 q 51 179 66 82 q 35 444 35 276 q 60 876 35 670 q 236 1001 76 1001 q 374 956 328 1001 q 453 828 421 911 q 564 607 485 744 q 572 600 568 600 q 576 611 576 600 q 564 821 576 743 q 560 857 560 840 q 573 923 560 889 q 632 979 587 956 q 733 1001 677 1001 q 872 964 825 1001 q 937 834 920 928 q 954 570 954 741 q 926 134 954 349 q 864 33 916 66 q 729 -1 811 -1 m 470 1062 q 429 1078 445 1062 q 408 1126 408 1100 q 429 1181 408 1152 q 526 1291 473 1242 q 598 1332 570 1332 q 642 1312 621 1332 q 670 1265 670 1287 q 530 1088 670 1228 q 470 1062 503 1062 z "},"ń":{"ha":987,"x_min":30,"x_max":949,"o":"m 724 -1 q 579 36 626 -1 q 506 145 532 72 q 405 427 413 398 q 391 442 400 442 q 385 425 385 442 q 405 167 386 313 q 408 134 408 149 q 395 72 408 103 q 341 20 383 41 q 235 -1 298 -1 q 105 41 150 -1 q 45 179 61 82 q 30 444 30 276 q 55 876 30 670 q 231 1001 71 1001 q 369 956 322 1001 q 448 828 416 911 q 558 607 479 744 q 567 600 562 600 q 571 611 571 600 q 558 821 571 743 q 555 857 555 840 q 568 923 555 889 q 627 979 581 956 q 728 1001 672 1001 q 867 964 819 1001 q 932 834 915 928 q 949 570 949 741 q 920 134 949 349 q 858 33 911 66 q 724 -1 806 -1 m 465 1062 q 423 1078 439 1062 q 403 1126 403 1100 q 424 1181 403 1152 q 521 1291 467 1242 q 593 1332 565 1332 q 636 1312 615 1332 q 665 1265 665 1287 q 524 1088 665 1228 q 465 1062 497 1062 z "},"Ņ":{"ha":995,"x_min":35,"x_max":954,"o":"m 729 -1 q 585 36 631 -1 q 511 145 538 72 q 410 427 418 398 q 397 442 406 442 q 390 425 390 442 q 410 167 391 313 q 413 134 413 149 q 401 72 413 103 q 346 20 389 41 q 241 -1 304 -1 q 111 41 155 -1 q 51 179 66 82 q 35 444 35 276 q 60 876 35 670 q 236 1001 76 1001 q 374 956 328 1001 q 453 828 421 911 q 564 607 485 744 q 572 600 568 600 q 576 611 576 600 q 564 821 576 743 q 560 857 560 840 q 573 923 560 889 q 632 979 587 956 q 733 1001 677 1001 q 872 964 825 1001 q 937 834 920 928 q 954 570 954 741 q 926 134 954 349 q 864 33 916 66 q 729 -1 811 -1 m 460 -363 q 411 -351 431 -363 q 391 -317 391 -338 q 405 -273 391 -296 q 439 -250 418 -250 q 463 -256 452 -250 q 486 -263 475 -263 q 504 -256 496 -263 q 510 -248 510 -252 q 497 -241 510 -241 q 416 -218 441 -241 q 391 -152 391 -196 q 401 -109 391 -128 q 488 -68 424 -68 q 549 -84 525 -68 q 586 -129 574 -101 q 598 -193 598 -157 q 563 -308 598 -258 q 460 -363 524 -363 z "},"ņ":{"ha":987,"x_min":30,"x_max":949,"o":"m 724 -1 q 579 36 626 -1 q 506 145 532 72 q 405 427 413 398 q 391 442 400 442 q 385 425 385 442 q 405 167 386 313 q 408 134 408 149 q 395 72 408 103 q 341 20 383 41 q 235 -1 298 -1 q 105 41 150 -1 q 45 179 61 82 q 30 444 30 276 q 55 876 30 670 q 231 1001 71 1001 q 369 956 322 1001 q 448 828 416 911 q 558 607 479 744 q 567 600 562 600 q 571 611 571 600 q 558 821 571 743 q 555 857 555 840 q 568 923 555 889 q 627 979 581 956 q 728 1001 672 1001 q 867 964 819 1001 q 932 834 915 928 q 949 570 949 741 q 920 134 949 349 q 858 33 911 66 q 724 -1 806 -1 m 454 -363 q 406 -351 426 -363 q 386 -317 386 -338 q 399 -273 386 -296 q 434 -250 413 -250 q 457 -256 447 -250 q 480 -263 470 -263 q 498 -256 490 -263 q 505 -248 505 -252 q 492 -241 505 -241 q 411 -218 436 -241 q 386 -152 386 -196 q 396 -109 386 -128 q 482 -68 418 -68 q 544 -84 519 -68 q 581 -129 568 -101 q 593 -193 593 -157 q 557 -308 593 -258 q 454 -363 519 -363 z "},"Ň":{"ha":995,"x_min":35,"x_max":954,"o":"m 729 -1 q 585 36 631 -1 q 511 145 538 72 q 410 427 418 398 q 397 442 406 442 q 390 425 390 442 q 410 167 391 313 q 413 134 413 149 q 401 72 413 103 q 346 20 389 41 q 241 -1 304 -1 q 111 41 155 -1 q 51 179 66 82 q 35 444 35 276 q 60 876 35 670 q 236 1001 76 1001 q 374 956 328 1001 q 453 828 421 911 q 564 607 485 744 q 572 600 568 600 q 576 611 576 600 q 564 821 576 743 q 560 857 560 840 q 573 923 560 889 q 632 979 587 956 q 733 1001 677 1001 q 872 964 825 1001 q 937 834 920 928 q 954 570 954 741 q 926 134 954 349 q 864 33 916 66 q 729 -1 811 -1 m 494 1062 q 451 1072 470 1062 q 408 1103 431 1081 q 310 1213 353 1152 q 288 1269 288 1242 q 309 1316 288 1294 q 350 1332 325 1332 q 410 1305 382 1332 q 479 1232 451 1265 q 494 1223 486 1223 q 508 1231 501 1223 q 579 1305 547 1274 q 639 1332 606 1332 q 680 1316 664 1332 q 701 1268 701 1294 q 680 1213 701 1242 q 583 1103 636 1152 q 540 1072 558 1081 q 494 1062 522 1062 z "},"ň":{"ha":987,"x_min":30,"x_max":949,"o":"m 724 -1 q 579 36 626 -1 q 506 145 532 72 q 405 427 413 398 q 391 442 400 442 q 385 425 385 442 q 405 167 386 313 q 408 134 408 149 q 395 72 408 103 q 341 20 383 41 q 235 -1 298 -1 q 105 41 150 -1 q 45 179 61 82 q 30 444 30 276 q 55 876 30 670 q 231 1001 71 1001 q 369 956 322 1001 q 448 828 416 911 q 558 607 479 744 q 567 600 562 600 q 571 611 571 600 q 558 821 571 743 q 555 857 555 840 q 568 923 555 889 q 627 979 581 956 q 728 1001 672 1001 q 867 964 819 1001 q 932 834 915 928 q 949 570 949 741 q 920 134 949 349 q 858 33 911 66 q 724 -1 806 -1 m 489 1062 q 445 1072 465 1062 q 402 1103 426 1081 q 304 1213 348 1152 q 283 1269 283 1242 q 303 1316 283 1294 q 345 1332 319 1332 q 404 1305 377 1332 q 473 1232 446 1265 q 488 1223 481 1223 q 503 1231 496 1223 q 574 1305 542 1274 q 633 1332 601 1332 q 675 1316 659 1332 q 696 1268 696 1294 q 674 1213 696 1242 q 577 1103 631 1152 q 534 1072 553 1081 q 489 1062 516 1062 z "},"ŉ":{"ha":1001,"x_min":-68,"x_max":955,"o":"m 1 1062 q -48 1075 -28 1062 q -68 1109 -68 1087 q -54 1153 -68 1130 q -20 1176 -41 1176 q 3 1170 -7 1176 q 26 1162 16 1162 q 45 1169 37 1162 q 51 1178 51 1174 q 38 1185 51 1185 q -43 1207 -18 1185 q -68 1274 -68 1230 q -58 1316 -68 1297 q 28 1358 -35 1358 q 90 1341 66 1358 q 127 1296 115 1324 q 139 1233 139 1268 q 104 1118 139 1167 q 1 1062 65 1062 m 729 -1 q 585 36 632 -1 q 511 145 538 72 q 411 427 419 398 q 397 442 406 442 q 391 425 391 442 q 411 167 392 313 q 413 134 413 149 q 401 72 413 103 q 347 20 389 41 q 241 -1 304 -1 q 112 41 156 -1 q 52 179 67 82 q 36 444 36 276 q 61 876 36 670 q 237 1001 76 1001 q 375 956 328 1001 q 454 828 422 911 q 564 607 486 744 q 573 600 568 600 q 577 611 577 600 q 564 821 577 743 q 560 857 560 840 q 574 923 560 889 q 633 979 587 956 q 734 1001 678 1001 q 873 964 825 1001 q 938 834 921 928 q 955 570 955 741 q 926 134 955 349 q 864 33 917 66 q 729 -1 812 -1 z "}}}
